<svg xmlns="http://www.w3.org/2000/svg" width="45.43" height="43.584" viewBox="0 0 45.43 43.584">
  <path id="auto_stories_FILL1_wght400_GRAD0_opsz48" d="M17.645,31.28a15.4,15.4,0,0,0-4.171-2.366,13.142,13.142,0,0,0-4.652-.842,12.567,12.567,0,0,0-3.308.441,14.516,14.516,0,0,0-3.108,1.243,1.544,1.544,0,0,1-1.624-.04A1.55,1.55,0,0,1,0,28.312V8.983a1.723,1.723,0,0,1,.221-.842,1.384,1.384,0,0,1,.662-.6A16.738,16.738,0,0,1,4.732,6.1,17.345,17.345,0,0,1,17.645,8.02V28.312a16.406,16.406,0,0,1,4.291-1.985,15.957,15.957,0,0,1,4.532-.662,19.468,19.468,0,0,1,3.148.281,9.879,9.879,0,0,1,3.268,1.163V6.857q.4.16.782.321a7.6,7.6,0,0,1,.742.361,1.9,1.9,0,0,1,.642.622,1.511,1.511,0,0,1,.241.822V28.312a1.629,1.629,0,0,1-2.406,1.444,14.516,14.516,0,0,0-3.108-1.243,12.567,12.567,0,0,0-3.308-.441,13.142,13.142,0,0,0-4.652.842A15.4,15.4,0,0,0,17.645,31.28Zm2.406-6.7V10.427L30.478,0V15.519Z" transform="matrix(0.899, 0.438, -0.438, 0.899, 13.712, 0)" fill="#137bc4"/>
</svg>
