<svg xmlns="http://www.w3.org/2000/svg" width="18" height="19.868" viewBox="0 0 18 19.868">
  <path id="event_FILL1_wght700_GRAD0_opsz48" d="M16.47,18.716a2.233,2.233,0,1,1,1.611-.654A2.189,2.189,0,0,1,16.47,18.716ZM6.945,22.568A2.192,2.192,0,0,1,4.75,20.373V6.319a2.154,2.154,0,0,1,.642-1.564A2.1,2.1,0,0,1,6.945,4.1H8.252V2.7h1.914V4.1H17.31V2.7h1.914V4.1h1.307A2.232,2.232,0,0,1,22.75,6.319V20.373a2.1,2.1,0,0,1-.654,1.553,2.154,2.154,0,0,1-1.564.642Zm0-2.195H20.532V10.544H6.945v9.829Z" transform="translate(-4.75 -2.7)" fill="#6a6a6a"/>
</svg>
