<svg xmlns="http://www.w3.org/2000/svg" width="258.25" height="153" viewBox="0 0 258.25 153">
  <g id="Checked_in_img" transform="translate(0)">
    <g id="Group_386" data-name="Group 386">
      <path id="Path_313" data-name="Path 313" d="M900.937,673.2c1.742,3.079.265,13.477.265,13.477s-9.672-4.094-11.413-7.172a6.4,6.4,0,1,1,11.148-6.306Z" transform="translate(-685.909 -534.415)" fill="#f1f1f1"/>
      <circle id="Ellipse_51" data-name="Ellipse 51" cx="55.154" cy="55.154" r="55.154" transform="translate(25.777)" fill="#008c3d"/>
      <path id="Path_314" data-name="Path 314" d="M911.4,689.045l-.206.043a33.084,33.084,0,0,0-8.959-15.841l.141-.155C902.448,673.155,909.409,679.575,911.4,689.045Z" transform="translate(-695.969 -536.799)" fill="#fff"/>
      <path id="Path_315" data-name="Path 315" d="M951.719,656.748c-2.363,4.287-15.689,10.1-15.689,10.1s-2.2-14.369.165-18.655a8.863,8.863,0,1,1,15.523,8.559Z" transform="translate(-720.865 -514.461)" fill="#f1f1f1"/>
      <path id="Path_316" data-name="Path 316" d="M938.79,670.524l-.2-.211c9.642-9.157,12.139-21.929,12.163-22.057l.286.054C951.015,648.439,948.5,661.3,938.79,670.524Z" transform="translate(-723.508 -517.985)" fill="#fff"/>
      <path id="Path_319" data-name="Path 319" d="M283.306,196.679c.2-.108,0,95.531,0,95.531s-45.511-3.975-45.511-46.947S276.075,196.679,283.306,196.679Z" transform="translate(-202.694 -189.134)" opacity="0.1"/>
      <path id="Path_320" data-name="Path 320" d="M17.089,48.153,0,26.181l9.938-7.729,8.091,10.4L45.363,0,54.5,8.66Z" transform="matrix(0.998, -0.07, 0.07, 0.998, 60.163, 29.269)" fill="#fff"/>
      <path id="Path_321" data-name="Path 321" d="M884.116,740.485h-256.9c-.372,0-.674-.109-.674-.242s.3-.242.674-.242h256.9c.373,0,.674.109.674.242S884.488,740.485,884.116,740.485Z" transform="translate(-626.54 -587.485)" fill="#cacaca"/>
      <path id="Path_322" data-name="Path 322" d="M546.594,523.046h4.331l1.784-14.463h-5.534Z" transform="translate(-380.808 -373.869)" fill="#ffb8b8"/>
      <path id="Path_323" data-name="Path 323" d="M733.725,721.187h7.385a4.706,4.706,0,0,1,4.706,4.706v.153H733.725Z" transform="translate(-568.314 -573.233)" fill="#2f2e41"/>
      <path id="Path_324" data-name="Path 324" d="M598.528,523.046h4.394l1.784-14.463h-5.924Z" transform="translate(-420.197 -373.869)" fill="#ffb8b8"/>
      <path id="Path_325" data-name="Path 325" d="M785.725,721.187h7.385a4.706,4.706,0,0,1,4.706,4.706v.153H785.725Z" transform="translate(-607.706 -573.233)" fill="#2f2e41"/>
      <path id="Path_326" data-name="Path 326" d="M530.836,347.128l.9,45.885-7.276-.451-5.048-29.226-1.594-19.927Z" transform="translate(-358.575 -248.742)" fill="#2f2e41"/>
      <path id="Path_327" data-name="Path 327" d="M733.789,450.935l1.02,54.318-8.486-.242-1.833-32.288L721.3,461.032l-13.019-6.111,2.126-14.613,19.13-.266Z" transform="translate(-549.04 -360.254)" fill="#2f2e41"/>
      <path id="Path_333" data-name="Path 333" d="M6.507,0a13.271,13.271,0,0,1,3.684.491c2.942.826,2.823,3.184,2.823,6.016,0,2.041-1.244,6.7-1.665,9.182-9.039,1.265-5.99-1.926-7.542-1.926C.213,13.763,0,10.1,0,6.507S-.191-.082,6.507,0Z" transform="translate(162.658 30.607)" fill="#ffb8b8"/>
      <path id="Path_328" data-name="Path 328" d="M545.714,137.738l1,1.51,2.657,7.439-2.125,28.961-12.488.266L533.16,142.7l3.339-4.174Z" transform="translate(-370.198 -92.938)" fill="#ccc"/>
      <path id="Path_329" data-name="Path 329" d="M682.88,318.669l-2.125-.266s-.532.266-.8,2.126-3.454,18.333-3.454,18.333l4.251,20.193,4.782-6.377-2.923-11.159,2.923-11.159Z" transform="translate(-524.966 -268.108)" fill="#2f2e41"/>
      <path id="Path_330" data-name="Path 330" d="M614.152,160.4h1.594l3.985,21.521-3.72,16.739-3.72-6.111,1.063-6.642-.531-5.845-1.86-3.454Z" transform="translate(-429.138 -110.108)" fill="#2f2e41"/>
      <path id="Path_331" data-name="Path 331" d="M732.958,226.085l-1.183-.3s-.887-5.028-2.958-4.437-7.395,1.183-7.395-1.183,5.028-4.437,7.986-4.141,6.735,1.277,7.69,5.62c1.531,6.962-3.158,8.72-3.158,8.72l.078-.253a3.948,3.948,0,0,0-1.061-4.03Z" transform="translate(-559.948 -188.97)" fill="#2f2e41"/>
      <path id="Path_332" data-name="Path 332" d="M695.132,300.555l8.5-3.454,1.993-1.461,5.978,26.437,2.79-27.234,11.026,5.712-3.72,18.067-.531,6.908,1.594,5.58s5.58,3.986,3.72,8.237-3.986,4.517-3.986,4.517-9.034-8.5-9.565-10.628-1.328-5.845-1.328-5.845-3.736,18.65-9.05,18.384-7.01-7.064-7.01-7.064l2.243-6.272,2.126-6.111-1.063-10.1Z" transform="translate(-539.078 -250.259)" fill="#2f2e41"/>
    </g>
  </g>
</svg>
