<svg xmlns="http://www.w3.org/2000/svg" width="168.955" height="176.46" viewBox="0 0 168.955 176.46">
  <path id="contact_support_FILL1_wght400_GRAD0_opsz48" d="M67.487,136.682l-1.709-18.794H58.944a56.8,56.8,0,0,1-41.688-17.256A56.8,56.8,0,0,1,0,58.944,56.658,56.658,0,0,1,17.342,17.256,57.281,57.281,0,0,1,59.286,0,57.255,57.255,0,0,1,81.753,4.357,54.608,54.608,0,0,1,99.778,16.573,56.972,56.972,0,0,1,111.823,35.11a61.155,61.155,0,0,1,4.357,23.321,79.247,79.247,0,0,1-3.332,22.553,88.808,88.808,0,0,1-9.653,21.527,96.776,96.776,0,0,1-15.377,18.965A104.048,104.048,0,0,1,67.487,136.682Zm-8.2-38.1A6.418,6.418,0,1,0,54.673,96.7,6.272,6.272,0,0,0,59.286,98.582ZM54.673,75.346h8.543a15.4,15.4,0,0,1,1.452-7.09,34.085,34.085,0,0,1,6.065-7.432,33.267,33.267,0,0,0,6.492-8.457A18.613,18.613,0,0,0,79.1,44.08a16.684,16.684,0,0,0-5.211-12.643q-5.211-4.955-13.924-4.955a22.47,22.47,0,0,0-21.186,14.01l7.859,3.246a13.981,13.981,0,0,1,5.211-6.578,13.781,13.781,0,0,1,7.6-2.136q5.126,0,8.03,2.477a8.215,8.215,0,0,1,2.9,6.578,13.318,13.318,0,0,1-1.879,6.578,44.564,44.564,0,0,1-6.663,8.286q-4.613,4.784-5.894,7.688T54.673,75.346Z" transform="translate(68.341) rotate(30)" fill="#fff" opacity="0.33"/>
</svg>
