<?xml version="1.0" encoding="UTF-8"?>
<svg width="119px" height="132px" viewBox="0 0 119 132" version="1.1" xmlns="http://www.w3.org/2000/svg" xmlns:xlink="http://www.w3.org/1999/xlink">
  <title>contact-us-icon</title>
  <g id="Page-1" stroke="none" stroke-width="1" fill="none" fill-rule="evenodd">
    <g id="Artboard" transform="translate(1.000000, 0.000000)" fill="#000000" fill-rule="nonzero">
      <g id="contact-us-icon" transform="translate(-0.194451, 0.492671)">
        <path d="M88.8849157,8.16092164 C95.5956443,11.9494021 101.472523,17.0536078 106.163408,23.1676943 C110.613883,28.9942111 113.845486,35.6572715 115.665516,42.7595607 C117.490762,49.9717307 117.885789,57.4715652 116.828292,64.8355736 C115.684993,72.7372791 113.005505,80.3386503 108.941065,87.210652 C105.106108,93.8172584 100.336062,99.8346672 94.7789684,105.076123 C89.0473747,110.511567 82.6162267,115.158033 75.6557251,118.892552 C68.455204,122.755286 60.7944611,125.690531 52.8563525,127.628224 C44.9657301,129.566545 36.8764648,130.573622 28.7539905,130.629748 L27.64619,130.631506 L35.5631526,113.500924 L29.644735,110.083924 C15.9380717,102.459599 5.99416626,89.5068947 2.16986795,74.2957901 C-2.12374487,59.2104379 0.0115777728,43.0211144 8.06973359,29.564923 C15.706759,15.8469882 28.6936723,5.91309736 43.9323461,2.13305601 C59.1076718,-2.1281248 75.3683016,0.0523265674 88.8849157,8.16092164 Z M39.8877076,82.1923119 C37.1513578,83.5499578 35.7510505,86.6480673 36.5399405,89.5990782 C36.9468417,91.1833848 37.955365,92.5421806 39.3448102,93.3909984 L39.5947817,93.535938 C42.2574145,95.0330016 45.6062289,94.445988 47.6009177,92.1325427 C49.5956065,89.8190973 49.683372,86.4203564 47.810742,84.0070454 C45.938112,81.5937345 42.6240575,80.834666 39.8877076,82.1923119 Z M50.8793327,32.9745223 L56.0624264,39.7151408 C58.285149,37.9101356 61.0084811,36.83111 63.8642847,36.6239256 C66.5498317,36.5140801 69.2088844,37.1919552 71.5140778,38.5740954 C74.4735753,40.282762 76.3788033,42.3361437 77.2297618,44.7342403 C78.0820069,47.1094563 77.7953188,49.74458 76.4522355,51.8809554 C75.2556602,53.8677153 73.5609962,55.5075551 71.5359737,56.6381705 C68.3967944,58.3106616 65.0686693,59.6013079 61.6226465,60.482557 C57.364663,61.706934 54.3818784,62.9439351 52.6742928,64.1935603 C50.9667071,65.4431855 49.1475896,67.7473226 47.2169405,71.1059717 L54.6153955,75.3774717 C55.7634132,73.2168979 57.4096923,71.3609456 59.4178644,69.9633516 C62.2319433,68.4116515 65.251319,67.2657054 68.3863085,66.5595508 C71.8677702,65.7386503 75.1940558,64.3616452 78.2370454,62.481574 C80.6147984,60.8742825 82.5886524,58.7389021 84.004343,56.2423214 C86.5162296,52.1900591 87.1744949,47.2567643 85.8129846,42.6876623 C84.495988,38.2251202 81.4486744,34.5602223 76.6710437,31.6929685 L76.2319469,31.4345064 C68.2736521,26.664217 58.201713,27.2760256 50.8793327,32.9745223 Z" id="Combined-Shape"></path>
      </g>
    </g>
  </g>
</svg>
