<?xml version="1.0" encoding="UTF-8"?>
<svg width="261px" height="89px" version="1.1" viewBox="0 0 261 89" xmlns="http://www.w3.org/2000/svg" xmlns:xlink="http://www.w3.org/1999/xlink">
 <title>LibreTexts-ADAPT-logo-vector-alt</title>
 <defs>
  <polygon id="path-1" points="261 0 261 89 0 89 0 0"/>
  <polygon id="path-3" points="76 0 76 19 0 19 0 0"/>
  <path id="path-5" d="m10.215 1.5803c3.3441 2.6593 3.4316 8.225 0.75771 11.378-2.2598 2.2823-5.4633 2.4256-8.5335 2.3798l-0.49652-0.0087867c-0.66002-0.013106-1.3111-0.030131-1.9423-0.031368v-15.258c0.4756 0.007064 0.95836 0.001794 1.4451-0.0069527l0.58588-0.011598 0.58853-0.011535c2.6526-0.04666 5.3492 0.011921 7.595 1.5704zm-7.0089 1.2933c0 3.2042 0 6.4085 0.0072857 9.6127 0.36328-0.042092 0.74278-0.061168 1.1277-0.078271l0.38627-0.017224c1.3554-0.063438 2.7324-0.18863 3.6662-1.2778 1.4571-1.8019 1.4426-4.5993 0.34243-6.5756-0.85179-1.3944-2.4205-1.5475-3.9415-1.5972l-0.36372-0.010541c-0.42236-0.011344-0.83619-0.021727-1.2247-0.056133z"/>
  <polygon id="path-7" points="12.861 0 12.861 15.345 0 15.345 0 0"/>
  <path id="path-9" d="m5.5153 0c1.3114 0.021798 2.6301 0.043595 3.9489 0.072659 1.8069 5.0934 3.6866 10.165 5.5007 15.251-1.1657-0.029064-2.3314-0.058127-3.4899-0.094456-0.36429-1.1916-0.72857-2.3832-1.0856-3.5748-1.9307 0.0072658-3.8541 0.0072658-5.7849 0-0.40071 1.2134-0.80143 2.4268-1.2021 3.6475-1.1366-0.0072659-2.2731-0.014532-3.4024-0.014532 1.8506-5.0934 3.6939-10.187 5.5153-15.287zm1.9599 2.3759c-0.67757 2.1216-1.3551 4.236-2.0546 6.3504 1.3989 0 2.805 0.021798 4.2111 0.021798-0.72857-2.1216-1.4426-4.2505-2.1566-6.3722z"/>
  <polygon id="path-11" points="14.965 0 14.965 15.324 0 15.324 0 0"/>
  <path id="path-13" d="m5.5153 0c1.3114 0.021798 2.6301 0.043595 3.9489 0.072659 1.8069 5.0934 3.6866 10.165 5.5007 15.251-1.1657-0.029064-2.3314-0.058127-3.4899-0.094456-0.36429-1.1916-0.72857-2.3832-1.0856-3.5748-1.9307 0.0072658-3.8541 0.0072658-5.7849 0-0.40071 1.2134-0.80143 2.4268-1.2021 3.6475-1.1366-0.0072659-2.2731-0.014532-3.4024-0.014532 1.8506-5.0934 3.6939-10.187 5.5153-15.287zm1.9599 2.3759c-0.67757 2.1216-1.3551 4.236-2.0546 6.3504 1.3989 0 2.805 0.021798 4.2111 0.021798-0.72857-2.1216-1.4426-4.2505-2.1566-6.3722z"/>
  <polygon id="path-15" points="14.965 0 14.965 15.324 0 15.324 0 0"/>
  <path id="path-17" d="m8.4441 0.84584c2.5791 1.4314 2.7759 5.2242 1.1439 7.4475-1.5591 1.9109-4.2476 1.8964-6.4916 2.0635 0.014571 1.6494 0.014571 3.2987 0.021857 4.9481h-3.1183c0.0072857-5.0861 0.0072857-10.172 0-15.251 0.70307 0.025431 1.4184 0.0068118 2.137-0.015213l0.61647-0.018764c1.9533-0.056058 3.9109-0.051656 5.6907 0.82596zm-5.3259 1.9842c-0.0072857 1.547-0.0072857 3.1019 0 4.6568 0.3264-0.053767 0.69564-0.087772 1.0774-0.12654l0.25604-0.026822c1.4576-0.15905 2.998-0.46391 2.987-2.2371 0.048466-1.7884-1.4235-2.0723-2.8715-2.1721l-0.25496-0.015966c-0.38112-0.021888-0.75418-0.036315-1.0905-0.067768l-0.10344-0.010511z"/>
  <polygon id="path-19" points="10.636 0 10.636 15.305 0 15.305 0 0"/>
  <path id="path-21" d="m11.657 0.0051167v2.9063c-1.4207 0-2.8341 0-4.2549 0.0072659 0.0072857 4.1125 0.0072857 8.225 0.0072857 12.345h-3.2567c0-4.1197 0-8.2322 0.0072857-12.352h-4.1601v-2.9063c3.8906-0.014532 7.7739 0.0072659 11.657 0z"/>
  <polygon id="path-23" points="11.657 0 11.657 15.263 0 15.263 0 0"/>
  <path id="path-25" d="m42.188 0.16872c0.85033 0.34097 1.3044 1.2841 1.2356 2.1695 0 1.5151-1.2961 2.5297-2.0281 3.7341 4.6231 2.67 9.2545 5.329 13.875 8.0044 1.6126 0.9789 3.3133 2.0183 4.3094 3.6764 1.0209 1.7268 1.0485 3.8056 1.0897 5.7524 0 7.4215 0.016511 14.843 0.011008 22.264-0.033022 1.9138-0.024767 3.9403-0.94389 5.6782-0.97416 1.7571-2.7711 2.8102-4.4388 3.8166-6.5137 3.7589-13.027 7.5122-19.547 11.263-1.6594 0.91016-3.4013 1.8973-5.3469 1.9334-1.9593 0.010646-3.7178-0.98475-5.3827-1.9004-6.5715-3.7836-13.14-7.5727-19.706-11.367-1.6098-0.9789-3.36-1.9688-4.3397-3.6461-1.1228-2.0925-0.91637-4.5618-0.96591-6.8578 0.0082556-7.2428-0.022015-14.488-0.0055037-21.734 0.041278-1.7021 0.057789-3.4949 0.86409-5.0402 1.0732-1.8457 2.908-2.9367 4.737-3.9735l0.6084-0.34456c0.40405-0.22965 0.80361-0.46048 1.1902-0.70016 6.0486-3.4811 12.089-6.9788 18.146-10.449 1.6594-0.89641 3.4536-1.9248 5.4157-1.6773 1.8107 0.27222 3.3876 1.2814 4.9699 2.1448 1.2493-0.77542 2.4822-1.5756 3.7343-2.3483 0.732-0.46195 1.6786-0.77817 2.518-0.39871zm-1.7667 1.7021c-7.2209 4.4408-14.447 8.8733-21.674 13.306-0.60816 0.37396-1.1393 0.86891-1.5603 1.4464-2.7464 4.0173-5.6248 7.9439-8.4262 11.923-0.89986 1.4436-1.4227 3.1429-1.3759 4.8533 0.024767 1.7571 0.12934 3.6186 1.1173 5.1392-1.2604 1.7213-1.2383 3.9376-1.0457 5.9641 0.10182 0.9789 0.60816 1.8726 1.3181 2.538 1.2961 1.2429 2.8867 2.1145 4.3947 3.0632 5.3056 3.2309 10.63 6.4288 15.966 9.602 1.1255 0.70943 2.5895 0.78367 3.748 0.10999 6.5137-3.5691 13.003-7.1878 19.519-10.754 0.79529-0.48945 1.7529-0.96515 2.0887-1.9001-0.038526-0.92391-0.89436-1.4574-1.5135-2.0128-0.0055038-1.5948-0.0027519-3.1897-0.0027519-4.7845 0.74301-0.50045 1.8493-0.9569 1.8795-1.9963-0.0743-1.0806-1.098-1.6856-1.8768-2.2713-0.0055038-1.5756-0.0055038-3.1512 0-4.7268 0.32197-0.26397 0.67421-0.4977 0.93013-0.83042 0.39902-0.78917 0.22015-1.9715-0.6577-2.3565-5.6771-2.9477-11.368-5.8707-17.051-8.8101-1.4585-0.73143-2.8647-1.5866-4.4278-2.0843 0.96866-1.3034 1.6704-2.7772 2.6143-4.0943 2.4106-3.3767 4.813-6.7616 7.2264-10.138 0.39352-0.40696 0.34123-1.0394-0.046782-1.4326-0.40177-0.25297-0.79254 0.063244-1.1448 0.24747z"/>
  <polygon id="path-27" points="5.5863 0 5.5863 5.5654 0 5.5654 0 0"/>
  <path id="path-29" d="m5.3992 0c-0.0027519 3.4454 0.035774 6.8908 0.022015 10.336 1.5108-1.0394 3.3188-1.6663 5.168-1.5838 3.6627 0.10999 6.9732 2.5462 8.6794 5.7057 2.6748 4.7488 1.4998 11.389-2.8592 14.741-3.0738 2.45-7.8318 2.9092-11.054 0.48395 0 0.35746 0.0027519 0.71768 0.0055038 1.0779h-5.3606v-30.761h5.3992zm-0.027519 14.651c-0.033022 3.4674 0 6.9348-0.016511 10.402 1.9841 1.8368 5.2175 2.1063 7.397 0.46745 2.4382-1.8176 3.0243-5.318 2.0887-8.0842-0.62192-1.9138-2.2703-3.4866-4.2737-3.8496-1.797-0.40421-3.6435 0.16223-5.1955 1.0641z"/>
  <path id="path-31" d="m2.0281 0c0.91087 0.29147 1.7007 0.86341 2.5235 1.3419-0.64119 0.37671-1.2576 0.81942-1.9703 1.0531-0.9494-0.24747-1.7447-0.86616-2.5813-1.3556l0.24562-0.14447 0.48994-0.29629c0.41025-0.24439 0.82991-0.47145 1.2926-0.59863z"/>
  <path id="path-33" d="m5.8835 0.0012221v24.06h14.252v5.5544h-20.135v-29.614c1.9593-0.0027497 3.9214 0 5.8835 0z"/>
  <polygon id="path-35" points="22.29 0 22.29 5.1145 14.068 5.1145 14.068 29.614 8.2226 29.614 8.2226 5.1145 0 5.1145 0 0"/>
  <path id="path-37" d="m2.1327 0c0.85583 0.32447 1.6209 0.84416 2.4051 1.3144-0.6687 0.39871-1.3126 0.93765-2.0997 1.0614-0.8751-0.31897-1.6511-0.84966-2.4382-1.3364 0.68522-0.37671 1.3292-0.98715 2.1327-1.0394z"/>
  <path id="path-39" d="m7.6844 0c-0.0027519 2.0073-0.0027519 4.0173 0 6.0246 1.9181 0.032997 3.8361 0.063244 5.7569 0.09624-1.153 1.5288-2.3061 3.0604-3.4564 4.5893-0.77052 0.046745-1.5355 0.087991-2.3006 0.13474 0.016511 3.3657-0.033022 6.7341 0.019263 10.097-0.060541 1.2456 0.9604 2.439 2.262 2.307 1.9483-0.20073 3.8499-0.71493 5.7762-1.0614-1.2604 1.6168-2.163 3.5664-3.7948 4.8588-1.6043 1.2896-3.8251 1.1329-5.6964 0.64343-1.3897-0.36021-2.5868-1.3639-3.1371-2.6947-0.66595-1.5343-0.77328-3.2419-0.78979-4.8945 0-3.0852 0.0027519-6.1704 0-9.2556l-2.3226-0.13474c0-0.63794-0.0027519-1.2759 0-1.9138 2.1685-2.9312 4.348-5.8514 6.5137-8.7854 0.38801-0.0054994 0.77603-0.0082492 1.1695-0.010999z"/>
  <path id="path-41" d="m2.0584 0c0.88335 0.32447 1.6731 0.85241 2.4822 1.3281-0.62192 0.39046-1.2328 0.81667-1.9318 1.0586-0.97141-0.20623-1.7667-0.86066-2.6088-1.3556 0.6632-0.38221 1.3071-0.83591 2.0584-1.0311z"/>
  <path id="path-43" d="m2.0446 0c0.93013 0.28597 1.7282 0.87441 2.5482 1.3804-0.6632 0.37671-1.2989 0.83042-2.0336 1.0641-0.93839-0.27497-1.7282-0.88541-2.5592-1.3804 0.6632-0.38771 1.3016-0.84416 2.0446-1.0641z"/>
  <path id="path-45" d="m2.595 0.15336c0.68246 0.33547 1.3209 0.75067 1.9593 1.1604-0.66595 0.38771-1.3126 0.84691-2.0667 1.0531-0.88885-0.32997-1.6786-0.86891-2.4877-1.3529 0.79804-0.38496 1.6566-1.3969 2.595-0.86066z"/>
  <path id="path-47" d="m2.0061 0c0.93564 0.28047 1.7392 0.86616 2.5785 1.3474-0.64944 0.40146-1.2796 0.86066-2.0199 1.0806-0.93013-0.30522-1.7392-0.87991-2.5647-1.3859 0.65219-0.36846 1.2796-0.82492 2.0061-1.0421z"/>
  <path id="path-49" d="m1.9483 0c0.98517 0.14848 1.786 0.86891 2.6418 1.3446-0.6632 0.40971-1.3126 0.89091-2.0722 1.1026-0.91637-0.31347-1.7089-0.89366-2.518-1.4134 0.63843-0.36846 1.2549-0.77817 1.9483-1.0339z"/>
  <path id="path-51" d="m2.0501 0c0.92188 0.28597 1.7117 0.87166 2.5345 1.3611-0.63018 0.38496-1.2466 0.82492-1.9511 1.0669-0.98517-0.18423-1.7832-0.87991-2.6335-1.3666l0.24871-0.14655 0.49599-0.3007c0.41517-0.24831 0.83935-0.4801 1.3054-0.61415z"/>
  <path id="path-53" d="m2.1272 0c0.89161 0.30247 1.6649 0.86341 2.4547 1.3584-0.64394 0.37396-1.2604 0.81392-1.9703 1.0476-0.97141-0.21448-1.7639-0.88266-2.6115-1.3749 0.68797-0.36296 1.3264-0.97615 2.1272-1.0311z"/>
  <path id="path-55" d="m1.896 0c0.63743 0.10849 1.2013 0.43077 1.7533 0.77341l0.47171 0.29416c0.15723 0.096705 0.31492 0.19056 0.47453 0.27705-0.59991 0.39046-1.1971 0.80842-1.8713 1.0669-1.0237-0.14024-1.852-0.87441-2.7244-1.3804 0.61917-0.36296 1.2218-0.76992 1.896-1.0311z"/>
  <path id="path-57" d="m2.1492 0c0.89436 0.31347 1.6704 0.88541 2.4657 1.3886l-0.25676 0.15201-0.51184 0.31587c-0.42877 0.26122-0.86843 0.50311-1.3586 0.61826-0.89711-0.32447-1.6814-0.89091-2.4877-1.3886 0.69072-0.39596 1.3457-0.95415 2.1492-1.0861z"/>
  <path id="path-59" d="m1.9951 0c0.96591 0.25297 1.7667 0.88266 2.6005 1.3996-0.66595 0.39046-1.3126 0.84691-2.0584 1.0724-0.92188-0.29147-1.7117-0.88541-2.5372-1.3721 0.64394-0.40421 1.2824-0.83317 1.9951-1.0999z"/>
  <path id="path-61" d="m15.455 2.7674c-0.9549 1.5041-1.9126 3.0054-2.8592 4.515-1.1118-1.0339-2.4024-2.3455-4.07-2.0925-1.9593 0.29972-3.1124 2.351-3.1454 4.1961-0.052286 4.1961-0.0055038 8.3949-0.022015 12.594h-5.3579v-21.423h5.3606c-0.0027519 0.75342-0.0055038 1.5041-0.013759 2.2548 1.0485-1.3391 2.4299-2.6425 4.2186-2.7772 2.3143-0.27772 4.3397 1.1824 5.889 2.7332z"/>
  <path id="path-63" d="m21.466 5.6064c1.4337 2.3345 1.7282 5.1832 1.3209 7.8504-5.7487 0.0054995-11.497-0.0027497-17.246 0.0054995 0.5834 1.5013 1.5108 2.9449 2.9748 3.7176 2.6941 1.4876 6.1532 0.77817 8.5253-1.0229 1.1145 1.1246 2.2428 2.2355 3.3628 3.3574-2.4299 1.8368-5.3909 2.9999-8.4593 3.0192-4.0508 0.20073-8.1538-1.8891-10.267-5.3675-1.852-2.9257-2.1877-6.7313-0.92188-9.9485 1.2466-3.2474 4.1058-5.7607 7.4245-6.7451 4.9121-1.5013 10.702 0.67093 13.286 5.1337zm-12.942-0.20073c-1.453 0.79742-2.4161 2.2273-2.983 3.7506 3.9462 0.0054994 7.8924 0.0082492 11.839-0.0027497-0.46231-1.1824-1.098-2.34-2.1189-3.1347-1.8327-1.5673-4.6534-1.8341-6.7366-0.61319z"/>
  <path id="path-65" d="m18.572 2.3786c2.3941 1.7736 4.026 4.559 4.3177 7.5315 0.1431 1.1769 0.027519 2.3648-0.10182 3.5389-5.7459 0.010999-11.495-0.0027497-17.24 0.0082492 0.67146 1.9138 2.1052 3.6269 4.103 4.2126 2.3171 0.66818 5.0304 0.24198 6.8879-1.3446 1.1475 1.0174 2.3033 2.0293 3.4453 3.0577-1.8658 1.4848-3.9957 2.8652-6.4339 3.0714-2.152 0.20073-4.3865 0.09899-6.4036-0.73967-2.6418-1.0394-4.8736-3.0879-6.0734-5.6617-1.5135-3.1402-1.4227-7.0035 0.25317-10.061 1.6539-3.1127 4.8571-5.318 8.3327-5.8542 3.1151-0.48945 6.3981 0.34371 8.9133 2.241zm-9.9232 2.9532c-1.5108 0.78642-2.5345 2.2438-3.1014 3.8166 3.9462 0.010999 7.8896 0.010999 11.836 0-0.47057-1.1851-1.1035-2.351-2.1327-3.1429-1.797-1.5233-4.5351-1.8176-6.6017-0.67368z"/>
  <path id="path-67" d="m12.378 0.74948c1.5713 0.60494 2.8922 1.7048 4.015 2.9395-1.0595 1.0751-2.1299 2.1393-3.1839 3.2199-1.0237-1.1026-2.2565-2.1338-3.7893-2.3785-1.3016-0.21448-2.8537-0.0027497-3.7591 1.0476-0.5201 0.61044-0.31922 1.5756 0.33022 2.01 1.6786 1.2071 3.8031 1.4546 5.6551 2.3043 1.6869 0.75067 3.3243 1.8506 4.2379 3.5004 1.0292 1.8643 0.8118 4.3336-0.49809 6.0081-1.409 1.8698-3.726 2.8267-5.9963 3.1017-1.6374 0.22273-3.272-0.16773-4.846-0.58019-1.142-0.25297-2.0089-1.0806-2.9583-1.7021l2.3914-3.7781c1.3429 0.60219 2.6583 1.3501 4.1223 1.6251 1.1393 0.063244 2.7959-0.23373 3.0518-1.5673 0.18713-1.0064-0.72374-1.7076-1.5355-2.0623-2.2758-1.0806-4.9121-1.3804-6.954-2.9504-1.5548-1.1164-2.7244-2.912-2.6583-4.878-0.057789-2.1008 1.2301-4.0393 2.9803-5.1172 2.7711-1.7268 6.3761-1.9276 9.3949-0.74242z"/>
  <path id="path-69" d="m2.0804 0c0.91913 0.30797 1.7144 0.88541 2.54 1.3749-0.64944 0.40421-1.2879 0.85241-2.0199 1.1026-0.95215-0.29147-1.7639-0.89641-2.6005-1.4106 0.67696-0.38221 1.3181-0.87441 2.0804-1.0669z"/>
  <polygon id="path-71" points="5.4294 0 5.4294 21.459 0 21.459 0 0"/>
  <path id="path-73" d="m6.6953 0c1.3154 2.0018 2.6308 4.0036 3.9462 6.0054 1.3016-2.0018 2.606-4.0036 3.9077-6.0054h6.1009c-2.3556 3.4234-4.714 6.8468-7.0696 10.267 2.5537 3.7424 5.1102 7.4847 7.664 11.227h-6.1394c-1.4888-2.285-2.9775-4.57-4.4635-6.8551-1.4998 2.285-3.0023 4.57-4.5021 6.8551h-6.1394c2.5537-3.7424 5.1075-7.4847 7.664-11.227-2.3446-3.4207-4.6892-6.8441-7.0338-10.267h6.0651z"/>
  <path id="path-75" d="m4.0748 0c-0.0027519 0.28597-0.0027519 0.57469 0 0.86066-0.51185 0-1.0182 0-1.5218 0.0027497 0 1.4161-0.0027519 2.8322 0 4.2511h-1.0292v-4.2538h-1.5218c-0.0027519-0.28597-0.0027519-0.57469 0-0.86066h4.0728z"/>
  <path id="path-77" d="m1.5438 0c0.30821 1.1604 0.61642 2.3235 0.93013 3.4866 0.30821-1.1631 0.61092-2.3263 0.91913-3.4866h1.5521v5.1145h-0.96316c0-1.3364 0-2.6755-0.011007-4.0118-0.33022 1.3391-0.66595 2.6782-1.0044 4.0173-0.33573-0.0054994-0.67146-0.0082492-1.0017-0.010999-0.33298-1.3419-0.67146-2.6837-1.0044-4.0256-0.0082556 1.3446-0.0082556 2.6865-0.0055037 4.0311h-0.9549v-5.1145h1.5438z"/>
  <path id="path-79" d="m2.0309 0c0.9494 0.29697 1.7695 0.88816 2.6115 1.3969-0.66595 0.39046-1.3016 0.86891-2.0529 1.0861-0.93564-0.31072-1.7474-0.89916-2.5895-1.4024 0.6577-0.39321 1.2906-0.85791 2.0309-1.0806z"/>
  <path id="path-81" d="m2.141 0c0.8861 0.34097 1.6731 0.89366 2.4712 1.4024-0.69622 0.40971-1.3594 0.96515-2.1712 1.1109-0.8751-0.34921-1.6511-0.89366-2.4409-1.3969 0.68246-0.41796 1.3484-0.92116 2.141-1.1164z"/>
  <path id="path-83" d="m2.0199 0c0.96316 0.20898 1.7474 0.89366 2.5923 1.3721-0.67146 0.41521-1.3319 0.89916-2.1052 1.1109-0.91087-0.31897-1.7034-0.89916-2.507-1.4216 0.6577-0.37671 1.2934-0.81942 2.0199-1.0614z"/>
  <path id="path-85" d="m2.1877 0c0.8861 0.31347 1.6539 0.87716 2.4437 1.3749-0.67971 0.39321-1.3264 0.88816-2.0969 1.0861-0.91362-0.32172-1.7089-0.89641-2.5345-1.3941 0.70173-0.38496 1.3622-1.0256 2.1877-1.0669z"/>
  <path id="path-87" d="m5.4184 0.014881c0.8861 0.32722 1.6621 0.87716 2.4519 1.3859-1.6979 1.0229-3.3986 2.076-5.1983 2.9092-0.99618-0.21723-1.808-0.91016-2.6721-1.4189 1.4255-0.84966 2.8895-1.6361 4.3149-2.4857 0.35499-0.15398 0.69072-0.47845 1.1035-0.39046z"/>
  <path id="path-89" d="m2.196 0c0.8861 0.32447 1.6511 0.89091 2.4354 1.4024-0.69898 0.39046-1.3567 0.90741-2.1492 1.0889-0.89711-0.32447-1.6759-0.90466-2.4822-1.3996 0.70173-0.40146 1.3704-0.9899 2.196-1.0916z"/>
  <path id="path-91" d="m2.1437 0c0.8861 0.34646 1.6759 0.89366 2.4794 1.3969-0.69347 0.40421-1.3539 0.9954-2.1712 1.1081-0.87785-0.34646-1.6594-0.89091-2.4519-1.3941 0.68797-0.40971 1.3402-0.9569 2.1437-1.1109z"/>
  <path id="path-93" d="m39.553 0c0 1.6361 0.0027518 3.2722 0 4.9082-5.4074 3.0577-10.812 6.1154-16.217 9.1813-0.9549 0.5197-1.8795 1.1989-2.9858 1.3474-1.0485 0.14024-2.0281-0.35746-2.9032-0.86891-5.3579-3.1897-10.735-6.3491-16.093-9.536-1.12-0.65993-1.3842-2.0925-1.3512-3.2914 0.016511-0.4702 0.13759-1.0861 0.65495-1.2429 0.55037-0.14299 1.087 0.14024 1.5631 0.38221 5.9 3.3794 11.836 6.7038 17.75 10.061 6.5247-3.6516 13.055-7.295 19.582-10.941z"/>
  <path id="path-95" d="m2.1327 0c0.57273 0.20623 1.0982 0.51128 1.6126 0.83458l0.61433 0.39158c0.10228 0.065005 0.2047 0.12945 0.30755 0.1927-0.71273 0.40146-1.3842 1.0229-2.2208 1.1026-0.88885-0.33272-1.6566-0.90466-2.4464-1.4161l0.25699-0.15441 0.51334-0.31811c0.43038-0.26251 0.87219-0.50569 1.3624-0.63287z"/>
  <path id="path-97" d="m2.0639 0c0.9604 0.30522 1.7805 0.91841 2.628 1.4464-0.67421 0.40146-1.3237 0.86891-2.0722 1.1219-0.59853-0.18904-1.1412-0.50161-1.6709-0.83431l-0.63224-0.4023c-0.10526-0.066455-0.21069-0.13206-0.31664-0.19599 0.66595-0.41521 1.3126-0.89091 2.0639-1.1356z"/>
  <path id="path-99" d="m2.0419 0c0.98242 0.28322 1.8052 0.92116 2.6473 1.4711-0.67696 0.40146-1.3292 0.87441-2.0832 1.1219-0.95215-0.30522-1.7612-0.92391-2.606-1.4409 0.65495-0.42621 1.3044-0.87991 2.0419-1.1521z"/>
  <path id="path-101" d="m39.552 0v4.9028c-5.856 3.3107-11.706 6.6351-17.565 9.943-1.1723 0.72593-2.6968 0.83866-3.8884 0.090741-5.5395-3.2447-11.049-6.5416-16.58-9.7973-1.3209-0.68468-1.6181-2.3455-1.4915-3.6901 0.019263-0.55269 0.46782-1.1191 1.0705-0.9844 0.92463 0.16773 1.6814 0.76442 2.4904 1.1989 5.4542 3.1017 10.919 6.1814 16.374 9.2776 6.5329-3.6434 13.06-7.295 19.591-10.941z"/>
 </defs>
 <g id="Page-1" fill="none" fill-rule="evenodd">
  <g id="LibreTexts-ADAPT-logo-vector-alt">
   <mask id="mask-2" fill="white">
    <use xlink:href="#path-1"/>
   </mask>
   <g id="Group-Clipped" transform="translate(171 65)">
    <mask id="mask-4" fill="white">
     <use xlink:href="#path-3"/>
    </mask>
    <g id="Group" mask="url(#mask-4)">
     <g transform="translate(.99708 1.8102)">
      <g id="Group-Clipped" transform="translate(17.34 .006659)">
       <mask id="mask-6" fill="white">
        <use xlink:href="#path-5"/>
       </mask>
       <g id="Group" mask="url(#mask-6)">
        <g id="Path-Clipped" transform="translate(0)">
         <mask id="mask-8" fill="white">
          <use xlink:href="#path-7"/>
         </mask>
         <polygon id="Path" points="0 0 12.861 0 12.861 15.345 0 15.345" fill="#066BBE" fill-rule="nonzero" mask="url(#mask-8)"/>
        </g>
       </g>
      </g>
      <g id="Path-Clipped-Clipped" transform="translate(31.744 .017527)">
       <mask id="mask-10" fill="white">
        <use xlink:href="#path-9"/>
       </mask>
       <g id="Path-Clipped" mask="url(#mask-10)">
        <mask id="mask-12" fill="white">
         <use xlink:href="#path-11"/>
        </mask>
        <polygon id="Path" points="0 0 14.965 0 14.965 15.324 0 15.324" fill="#066BBE" fill-rule="nonzero" mask="url(#mask-12)"/>
       </g>
      </g>
      <g id="Path-Clipped-Clipped" transform="translate(0 .046591)">
       <mask id="mask-14" fill="white">
        <use xlink:href="#path-13"/>
       </mask>
       <g id="Path-Clipped" mask="url(#mask-14)">
        <mask id="mask-16" fill="white">
         <use xlink:href="#path-15"/>
        </mask>
        <polygon id="Path" points="0 0 14.965 0 14.965 15.324 0 15.324" fill="#066BBE" fill-rule="nonzero" mask="url(#mask-16)"/>
       </g>
      </g>
      <g id="Group-Clipped" transform="translate(49.077)">
       <mask id="mask-18" fill="white">
        <use xlink:href="#path-17"/>
       </mask>
       <g id="Group" mask="url(#mask-18)">
        <g id="Path-Clipped" transform="translate(0)">
         <mask id="mask-20" fill="white">
          <use xlink:href="#path-19"/>
         </mask>
         <polygon id="Path" points="0 4.9975e-12 10.636 4.9975e-12 10.636 15.305 0 15.305" fill="#066BBE" fill-rule="nonzero" mask="url(#mask-20)"/>
        </g>
       </g>
      </g>
      <g id="Group-Clipped" transform="translate(61.346 .041474)">
       <mask id="mask-22" fill="white">
        <use xlink:href="#path-21"/>
       </mask>
       <g id="Group" mask="url(#mask-22)">
        <g id="Path-Clipped" transform="translate(0)">
         <mask id="mask-24" fill="white">
          <use xlink:href="#path-23"/>
         </mask>
         <polygon id="Path" points="0 0 11.657 0 11.657 15.263 0 15.263" fill="#066BBE" fill-rule="nonzero" mask="url(#mask-24)"/>
        </g>
       </g>
      </g>
     </g>
    </g>
   </g>
   <g id="Path-Clipped" transform="translate(3 6)">
    <mask id="mask-26" fill="white">
     <use xlink:href="#path-25"/>
    </mask>
    <polygon id="Path" points="-1.0377e-11 -5.4661e-10 60.682 -5.4661e-10 60.682 68.461 -1.0377e-11 68.461" fill="#127BC3" fill-rule="nonzero" mask="url(#mask-26)"/>
   </g>
   <g id="Path-Clipped" transform="translate(91.029 25.972)">
    <mask id="mask-28" fill="white">
     <use xlink:href="#path-27"/>
    </mask>
    <polygon id="Path" points="0 0 5.5863 0 5.5863 5.5654 0 5.5654" fill="#127BC3" fill-rule="nonzero" mask="url(#mask-28)"/>
   </g>
   <g id="Path-Clipped" transform="translate(99.593 25.936)">
    <mask id="mask-30" fill="white">
     <use xlink:href="#path-29"/>
    </mask>
    <polygon id="Path" points="0 0 20.692 0 20.692 31.286 0 31.286" fill="#127BC3" fill-rule="nonzero" mask="url(#mask-30)"/>
   </g>
   <g id="Path-Clipped" transform="translate(35.513 27.086)">
    <mask id="mask-32" fill="white">
     <use xlink:href="#path-31"/>
    </mask>
    <polygon id="Path" points="0 0 4.5516 0 4.5516 2.395 0 2.395" fill="#127BC3" fill-rule="nonzero" mask="url(#mask-32)"/>
   </g>
   <g id="Path-Clipped" transform="translate(68.667 27.082)">
    <mask id="mask-34" fill="white">
     <use xlink:href="#path-33"/>
    </mask>
    <polygon id="Path" points="0 -3.3333e-12 20.135 -3.3333e-12 20.135 29.616 0 29.616" fill="#127BC3" fill-rule="nonzero" mask="url(#mask-34)"/>
   </g>
   <g id="Path-Clipped" transform="translate(154.63 27.083)">
    <mask id="mask-36" fill="white">
     <use xlink:href="#path-35"/>
    </mask>
    <polygon id="Path" points="0 0 22.29 0 22.29 29.614 0 29.614" fill="#127BC3" fill-rule="nonzero" mask="url(#mask-36)"/>
   </g>
   <g id="Path-Clipped" transform="translate(32.373 28.854)">
    <mask id="mask-38" fill="white">
     <use xlink:href="#path-37"/>
    </mask>
    <polygon id="Path" points="0 0 4.5378 0 4.5378 2.3758 0 2.3758" fill="#127BC3" fill-rule="nonzero" mask="url(#mask-38)"/>
   </g>
   <g id="Path-Clipped" transform="translate(214.71 29.214)">
    <mask id="mask-40" fill="white">
     <use xlink:href="#path-39"/>
    </mask>
    <polygon id="Path" points="6.9523e-15 0 15.742 0 15.742 28.048 6.9523e-15 28.048" fill="#127BC3" fill-rule="nonzero" mask="url(#mask-40)"/>
   </g>
   <g id="Path-Clipped" transform="translate(39.324 29.365)">
    <mask id="mask-42" fill="white">
     <use xlink:href="#path-41"/>
    </mask>
    <polygon id="Path" points="0 0 4.5406 0 4.5406 2.3868 0 2.3868" fill="#127BC3" fill-rule="nonzero" mask="url(#mask-42)"/>
   </g>
   <g id="Path-Clipped" transform="translate(29.164 30.583)">
    <mask id="mask-44" fill="white">
     <use xlink:href="#path-43"/>
    </mask>
    <polygon id="Path" points="0 0 4.5929 0 4.5929 2.4445 0 2.4445" fill="#127BC3" fill-rule="nonzero" mask="url(#mask-44)"/>
   </g>
   <g id="Path-Clipped" transform="translate(36.171 31.164)">
    <mask id="mask-46" fill="white">
     <use xlink:href="#path-45"/>
    </mask>
    <polygon id="Path" points="0 7.4806e-10 4.5543 7.4806e-10 4.5543 2.3669 0 2.3669" fill="#127BC3" fill-rule="nonzero" mask="url(#mask-46)"/>
   </g>
   <g id="Path-Clipped" transform="translate(43.226 31.54)">
    <mask id="mask-48" fill="white">
     <use xlink:href="#path-47"/>
    </mask>
    <polygon id="Path" points="0 0 4.5846 0 4.5846 2.428 0 2.428" fill="#127BC3" fill-rule="nonzero" mask="url(#mask-48)"/>
   </g>
   <g id="Path-Clipped" transform="translate(25.947 32.382)">
    <mask id="mask-50" fill="white">
     <use xlink:href="#path-49"/>
    </mask>
    <polygon id="Path" points="0 0 4.5901 0 4.5901 2.4473 0 2.4473" fill="#127BC3" fill-rule="nonzero" mask="url(#mask-50)"/>
   </g>
   <g id="Path-Clipped" transform="translate(32.97 32.863)">
    <mask id="mask-52" fill="white">
     <use xlink:href="#path-51"/>
    </mask>
    <polygon id="Path" points="0 0 4.5846 0 4.5846 2.428 0 2.428" fill="#127BC3" fill-rule="nonzero" mask="url(#mask-52)"/>
   </g>
   <g id="Path-Clipped" transform="translate(40.084 33.333)">
    <mask id="mask-54" fill="white">
     <use xlink:href="#path-53"/>
    </mask>
    <polygon id="Path" points="0 0 4.5819 0 4.5819 2.406 0 2.406" fill="#127BC3" fill-rule="nonzero" mask="url(#mask-54)"/>
   </g>
   <g id="Path-Clipped" transform="translate(47.195 33.757)">
    <mask id="mask-56" fill="white">
     <use xlink:href="#path-55"/>
    </mask>
    <polygon id="Path" points="0 0 4.5956 0 4.5956 2.4115 0 2.4115" fill="#127BC3" fill-rule="nonzero" mask="url(#mask-56)"/>
   </g>
   <g id="Path-Clipped" transform="translate(22.7 34.164)">
    <mask id="mask-58" fill="white">
     <use xlink:href="#path-57"/>
    </mask>
    <polygon id="Path" points="0 0 4.6149 0 4.6149 2.4747 0 2.4747" fill="#127BC3" fill-rule="nonzero" mask="url(#mask-58)"/>
   </g>
   <g id="Path-Clipped" transform="translate(29.759 34.634)">
    <mask id="mask-60" fill="white">
     <use xlink:href="#path-59"/>
    </mask>
    <polygon id="Path" points="0 0 4.5956 0 4.5956 2.472 0 2.472" fill="#127BC3" fill-rule="nonzero" mask="url(#mask-60)"/>
   </g>
   <g id="Path-Clipped" transform="translate(121.77 34.718)">
    <mask id="mask-62" fill="white">
     <use xlink:href="#path-61"/>
    </mask>
    <polygon id="Path" points="0 -7.1311e-11 15.455 -7.1311e-11 15.455 21.98 0 21.98" fill="#127BC3" fill-rule="nonzero" mask="url(#mask-62)"/>
   </g>
   <g id="Path-Clipped" transform="translate(136.5 34.714)">
    <mask id="mask-64" fill="white">
     <use xlink:href="#path-63"/>
    </mask>
    <polygon id="Path" points="9.2346e-10 1.1837e-9 22.955 1.1837e-9 22.955 22.547 9.2346e-10 22.547" fill="#127BC3" fill-rule="nonzero" mask="url(#mask-64)"/>
   </g>
   <g id="Path-Clipped" transform="translate(172.08 34.719)">
    <mask id="mask-66" fill="white">
     <use xlink:href="#path-65"/>
    </mask>
    <polygon id="Path" points="1.4509e-9 5.1945e-10 22.956 5.1945e-10 22.956 22.542 1.4509e-9 22.542" fill="#127BC3" fill-rule="nonzero" mask="url(#mask-66)"/>
   </g>
   <g id="Path-Clipped" transform="translate(228.42 34.72)">
    <mask id="mask-68" fill="white">
     <use xlink:href="#path-67"/>
    </mask>
    <polygon id="Path" points="2.1383e-12 -6.7616e-10 16.532 -6.7616e-10 16.532 22.567 2.1383e-12 22.567" fill="#127BC3" fill-rule="nonzero" mask="url(#mask-68)"/>
   </g>
   <g id="Path-Clipped" transform="translate(36.878 35.082)">
    <mask id="mask-70" fill="white">
     <use xlink:href="#path-69"/>
    </mask>
    <polygon id="Path" points="0 0 4.6204 0 4.6204 2.4775 0 2.4775" fill="#127BC3" fill-rule="nonzero" mask="url(#mask-70)"/>
   </g>
   <g id="Path-Clipped" transform="translate(91.112 35.239)">
    <mask id="mask-72" fill="white">
     <use xlink:href="#path-71"/>
    </mask>
    <polygon id="Path" points="0 0 5.4294 0 5.4294 21.459 0 21.459" fill="#127BC3" fill-rule="nonzero" mask="url(#mask-72)"/>
   </g>
   <g id="Path-Clipped" transform="translate(194.08 35.239)">
    <mask id="mask-74" fill="white">
     <use xlink:href="#path-73"/>
    </mask>
    <polygon id="Path" points="0 0 21.244 0 21.244 21.495 0 21.495" fill="#127BC3" fill-rule="nonzero" mask="url(#mask-74)"/>
   </g>
   <g id="Path-Clipped" transform="translate(247.33 35.395)">
    <mask id="mask-76" fill="white">
     <use xlink:href="#path-75"/>
    </mask>
    <polygon id="Path" points="-7.3442e-13 0 4.0748 0 4.0748 5.1145 -7.3442e-13 5.1145" fill="#127BC3" fill-rule="nonzero" mask="url(#mask-76)"/>
   </g>
   <g id="Path-Clipped" transform="translate(252.05 35.395)">
    <mask id="mask-78" fill="white">
     <use xlink:href="#path-77"/>
    </mask>
    <polygon id="Path" points="0 0 4.9451 0 4.9451 5.12 0 5.12" fill="#127BC3" fill-rule="nonzero" mask="url(#mask-78)"/>
   </g>
   <g id="Path-Clipped" transform="translate(44.027 35.522)">
    <mask id="mask-80" fill="white">
     <use xlink:href="#path-79"/>
    </mask>
    <polygon id="Path" points="0 0 4.6424 0 4.6424 2.483 0 2.483" fill="#127BC3" fill-rule="nonzero" mask="url(#mask-80)"/>
   </g>
   <g id="Path-Clipped" transform="translate(19.425 35.954)">
    <mask id="mask-82" fill="white">
     <use xlink:href="#path-81"/>
    </mask>
    <polygon id="Path" points="0 0 4.6121 0 4.6121 2.5132 0 2.5132" fill="#127BC3" fill-rule="nonzero" mask="url(#mask-82)"/>
   </g>
   <g id="Path-Clipped" transform="translate(26.506 36.44)">
    <mask id="mask-84" fill="white">
     <use xlink:href="#path-83"/>
    </mask>
    <polygon id="Path" points="0 0 4.6121 0 4.6121 2.483 0 2.483" fill="#127BC3" fill-rule="nonzero" mask="url(#mask-84)"/>
   </g>
   <g id="Path-Clipped" transform="translate(33.664 36.913)">
    <mask id="mask-86" fill="white">
     <use xlink:href="#path-85"/>
    </mask>
    <polygon id="Path" points="0 0 4.6314 0 4.6314 2.461 0 2.461" fill="#127BC3" fill-rule="nonzero" mask="url(#mask-86)"/>
   </g>
   <g id="Path-Clipped" transform="translate(37.613 37.347)">
    <mask id="mask-88" fill="white">
     <use xlink:href="#path-87"/>
    </mask>
    <polygon id="Path" points="0 -6.1901e-11 7.8704 -6.1901e-11 7.8704 4.3099 0 4.3099" fill="#127BC3" fill-rule="nonzero" mask="url(#mask-88)"/>
   </g>
   <g id="Path-Clipped" transform="translate(23.226 38.261)">
    <mask id="mask-90" fill="white">
     <use xlink:href="#path-89"/>
    </mask>
    <polygon id="Path" points="0 0 4.6314 0 4.6314 2.4912 0 2.4912" fill="#127BC3" fill-rule="nonzero" mask="url(#mask-90)"/>
   </g>
   <g id="Path-Clipped" transform="translate(30.425 38.692)">
    <mask id="mask-92" fill="white">
     <use xlink:href="#path-91"/>
    </mask>
    <polygon id="Path" points="0 0 4.6231 0 4.6231 2.505 0 2.505" fill="#127BC3" fill-rule="nonzero" mask="url(#mask-92)"/>
   </g>
   <g id="Path-Clipped" transform="translate(14.156 38.758)">
    <mask id="mask-94" fill="white">
     <use xlink:href="#path-93"/>
    </mask>
    <polygon id="Path" points="-1.3185e-11 0 39.554 0 39.554 15.461 -1.3185e-11 15.461" fill="#127BC3" fill-rule="nonzero" mask="url(#mask-94)"/>
   </g>
   <g id="Path-Clipped" transform="translate(27.128 40.518)">
    <mask id="mask-96" fill="white">
     <use xlink:href="#path-95"/>
    </mask>
    <polygon id="Path" points="0 0 4.6672 0 4.6672 2.5215 0 2.5215" fill="#127BC3" fill-rule="nonzero" mask="url(#mask-96)"/>
   </g>
   <g id="Path-Clipped" transform="translate(34.365 40.972)">
    <mask id="mask-98" fill="white">
     <use xlink:href="#path-97"/>
    </mask>
    <polygon id="Path" points="0 0 4.6919 0 4.6919 2.5682 0 2.5682" fill="#127BC3" fill-rule="nonzero" mask="url(#mask-98)"/>
   </g>
   <g id="Path-Clipped" transform="translate(31.085 42.825)">
    <mask id="mask-100" fill="white">
     <use xlink:href="#path-99"/>
    </mask>
    <polygon id="Path" points="0 0 4.6892 0 4.6892 2.593 0 2.593" fill="#127BC3" fill-rule="nonzero" mask="url(#mask-100)"/>
   </g>
   <g id="Path-Clipped" transform="translate(14.156 47.06)">
    <mask id="mask-102" fill="white">
     <use xlink:href="#path-101"/>
    </mask>
    <polygon id="Path" points="6.7794e-11 0 39.552 0 39.552 15.446 6.7794e-11 15.446" fill="#127BC3" fill-rule="nonzero" mask="url(#mask-102)"/>
   </g>
  </g>
 </g>
</svg>
