<svg xmlns="http://www.w3.org/2000/svg" xmlns:xlink="http://www.w3.org/1999/xlink" width="203.48" height="149.215" viewBox="0 0 203.48 149.215">
  <defs>
    <linearGradient id="linear-gradient" x1="0.5" y1="1" x2="0.5" gradientUnits="objectBoundingBox">
      <stop offset="0" stop-color="gray" stop-opacity="0.251"/>
      <stop offset="0.54" stop-color="gray" stop-opacity="0.122"/>
      <stop offset="1" stop-color="gray" stop-opacity="0.102"/>
    </linearGradient>
  </defs>
  <g id="Event_Expired_Img" transform="translate(0 0)">
    <path id="Path_207" data-name="Path 207" d="M61.83,433.31c3.222,12.451,10.036,23.213,20.8,28.431,22.386,10.843,72.873,5.251,110.553-1.168A88.787,88.787,0,0,0,242.255,435.2Z" transform="translate(-59.632 -356.81)" fill="#6c63ff" opacity="0.1"/>
    <path id="Path_208" data-name="Path 208" d="M282.286,57.838H261.612a1.624,1.624,0,1,1,0-3.233h3.576a1.624,1.624,0,1,1,0-3.233h-2.552a1.625,1.625,0,1,1,0-3.233h10.791a30.923,30.923,0,0,0-8.418-2.1c-29.425-3.418-39.93-1.157-43.635,1.167a43.5,43.5,0,0,1-15.123,6c-18.154,3.389-52.1,7.465-82.875-1.3-15.294-4.364-26.661,3-33.474,15.312H285.877a26.6,26.6,0,0,0-2.428-9.774A1.886,1.886,0,0,1,282.286,57.838Z" transform="translate(-82.496 -39.945)" fill="#6c63ff" opacity="0.1"/>
    <path id="Path_209" data-name="Path 209" d="M50.426,293.19a74.657,74.657,0,0,0,.8,21.722l181.516,6.007a77.009,77.009,0,0,0,12.612-17.4Zm71.792,15.5h-3.574a1.625,1.625,0,1,1,0,3.233H97.969a1.624,1.624,0,1,1,0-3.233h3.576a1.624,1.624,0,1,1,0-3.233H98.991a1.625,1.625,0,1,1,0-3.233h20.674a1.624,1.624,0,1,1,0,3.233h2.552a1.624,1.624,0,1,1,0,3.233Z" transform="translate(-49.981 -242.678)" fill="#6c63ff" opacity="0.1"/>
    <path id="Path_210" data-name="Path 210" d="M255.437,168.5,57.266,172.859a65.749,65.749,0,0,0-4.746,18.515H251.965a70.343,70.343,0,0,0,2.879-11.8A50.519,50.519,0,0,0,255.437,168.5ZM92.756,182.79H89.182a1.625,1.625,0,1,1,0,3.235H68.507a1.625,1.625,0,1,1,0-3.235h3.576a1.624,1.624,0,1,1,0-3.233H69.529a1.625,1.625,0,1,1,0-3.233H90.2a1.624,1.624,0,1,1,0,3.233h2.552a1.624,1.624,0,1,1,0,3.233Z" transform="translate(-52.049 -141.114)" fill="#6c63ff" opacity="0.1"/>
    <ellipse id="Ellipse_33" data-name="Ellipse 33" cx="82.901" cy="7.627" rx="82.901" ry="7.627" transform="translate(18.196 133.962)" fill="#6c63ff" opacity="0.1"/>
    <path id="Path_211" data-name="Path 211" d="M873.911,333.523a.277.277,0,0,1,0-.039v-.057h0a1.584,1.584,0,0,0-.236-.6,4.69,4.69,0,0,0-1.717-1.625c-1.224-.671-2.906-.959-3.4-2.24a6.842,6.842,0,0,1-.228-1.244,3.763,3.763,0,0,0-2.483-2.825c-.582-.195-1.211-.249-1.777-.49-1.265-.538-1.933-1.864-2.5-3.09l-2.2-4.75a1.847,1.847,0,0,1-1.8-.2,3.729,3.729,0,0,1-1.163-1.437c-.755-1.465-1.079-3.125-1.966-4.52s-2.658-2.5-4.223-1.89a7.217,7.217,0,0,1-.946.391c-1.341.313-2.825-1.219-3.973-.475a1.3,1.3,0,0,0-.451.493.209.209,0,0,1,0-.037,2.372,2.372,0,0,0-.245.968h0v.234c0,.267.017.538.02.809a3.6,3.6,0,0,1-.052.679v-.019a2.281,2.281,0,0,1-.1.371c-.3.8-1.126,1.326-1.513,2.079v-.037a1.969,1.969,0,0,0-.113.254,1.891,1.891,0,0,0-.106.614c-.033,1.415,1.467,2.747,1.641,4.266a2.268,2.268,0,0,0,1.285,2.029l.2.134c-.08,0-.161.011-.252.013a.617.617,0,0,0-.106.011,1.131,1.131,0,0,0-.953.167c-.7.556-2.359.128-3.1,0s-3.259.217-3.611,1.615-.957,4.284-.957,4.284a8.353,8.353,0,0,1-.224,2.172.109.109,0,0,0,0,.074c0,.514.018,3.6-.479,4.4a1.8,1.8,0,0,0-.022,1.1,3.3,3.3,0,0,0-.927,1.975c.159,1.055,2.3,4.373,5.367,2.6,0,0,1.745-3.192-.451-4.889l.095-.371c.664.816,1.155,1.4,1.155,1.4s.026.069.067.185h-.067a8.716,8.716,0,0,1,.516,2.426,2.969,2.969,0,0,1-.163.892h.057c-.017.063-.035.126-.057.185a1.617,1.617,0,0,1-.577.781c-1.534,1.087-3.29,8.849-3.29,8.849s-3.479,12.547-4.175,13.261c-.575.586,3.038,2.237,5.75,2.04a4.426,4.426,0,0,0,1.113-.211c.017.185.035.371.054.54.057.556.117,1.072.154,1.233.1.4.287,4.533.287,4.533a29.129,29.129,0,0,0-.3,4.548c0,.128.017.25.028.371l-.338.052c-.512,1.15,1.6,10.744,1.884,11.551a7.681,7.681,0,0,1,.319,1.957,2.134,2.134,0,0,0-.032,1.055,2.567,2.567,0,0,1,.186.714,1.966,1.966,0,0,0,.065,1.024,1.938,1.938,0,0,1-.031,1.113,17.028,17.028,0,0,1-.638,4.316,2.485,2.485,0,0,0,.4,2.463,1.508,1.508,0,0,0,.13.15s3.172.026,3.73,0h.072a5.628,5.628,0,0,0,.287-3.758,4.571,4.571,0,0,1-.063-2.7v-2.2s.575-.53,0-1.669-.48-1.484-.48-1.484.64-1.832-.032-2.422.128-2.827.128-2.827l.226-7.456a2.929,2.929,0,0,0-.362-.093c-.013-.122-.026-.249-.039-.382-.132-1.35-.245-3.186.048-3.709s.434-5.089.48-8.263l2.923.111c.061,1.484.126,2.838.167,3.01.1.4.289,4.533.289,4.533a29.028,29.028,0,0,0-.3,4.548c0,.128.017.25.028.371l-.338.052c-.512,1.15,1.6,10.744,1.884,11.551a7.731,7.731,0,0,1,.321,1.957,2.149,2.149,0,0,0-.033,1.055,2.567,2.567,0,0,1,.185.714,1.966,1.966,0,0,0,.065,1.024,1.938,1.938,0,0,1-.031,1.113,17.03,17.03,0,0,1-.638,4.316,2.485,2.485,0,0,0,.412,2.459,1.519,1.519,0,0,0,.13.15s3.172.026,3.73,0h.072a5.63,5.63,0,0,0,.287-3.758,4.571,4.571,0,0,1-.063-2.7v-2.2s.575-.53,0-1.669-.48-1.484-.48-1.484.64-1.832-.032-2.422.128-2.827.128-2.827l.23-7.456a2.846,2.846,0,0,0-.371-.093c-.013-.122-.026-.249-.039-.382-.132-1.35-.245-3.186.048-3.709a31.415,31.415,0,0,0,.432-5.883c0-.185,0-.371.015-.556a28.769,28.769,0,0,0,4-.449s-1.564-5.529-1.085-6.428c.206-.388-.091-2.452-.5-4.676a3.25,3.25,0,0,0,2,.723c.7,1.345,2.826,4.438,4.025,4.915,1.406.556.351-4.377-.319-5.091a6.007,6.007,0,0,1-.794-1.274c.019-.022.039-.041.058-.061s.033-5.249-.287-5.154-.7-.777-.7-.777l-.99-8.693-.415-3.639h0c.347.256.759.419,1.113.673.964.707,1.28,1.947,1.7,3.045a5,5,0,0,0,1.641,2.367,2.481,2.481,0,0,0,2.782.143,3.614,3.614,0,0,0,1.124-2.4,2.2,2.2,0,0,0,2.806-2.174c-.043-.341-.169-.714.009-1.013.356-.59,1.484-.247,1.855-.829a.62.62,0,0,0,.093-.336A.232.232,0,0,0,873.911,333.523ZM855.9,338.3c-.02.332.436,3,.807,5.11a6.477,6.477,0,0,0-2.116-3.682,1.66,1.66,0,0,0-.015-.185h.015s-.05-.53-.058-1.285a14.159,14.159,0,0,1,.148-2v-.017h-.024a1.057,1.057,0,0,1,.024-.169,6.026,6.026,0,0,1,.451-1.621,4.49,4.49,0,0,1,.343-.582C855.673,335.667,855.918,337.969,855.9,338.3Zm1,6.18c.163.911.28,1.551.28,1.551l.985,6.762v.031c-.53-2.854-1.207-5.863-1.207-5.863A11.682,11.682,0,0,0,856.9,344.485Z" transform="translate(-688.32 -254.928)" fill="url(#linear-gradient)"/>
    <path id="Path_212" data-name="Path 212" d="M886.848,321.289c-.185-1.714-2.04-3.192-1.484-4.822.3-.888,1.248-1.432,1.567-2.315a5.408,5.408,0,0,0,.119-1.842,1.933,1.933,0,0,1,.662-1.654c1.113-.742,2.545.785,3.843.473a6.8,6.8,0,0,0,.914-.389c1.515-.6,3.229.5,4.08,1.883s1.17,3.042,1.9,4.5a3.691,3.691,0,0,0,1.124,1.43,1.747,1.747,0,0,0,1.74.2l2.124,4.729c.556,1.219,1.194,2.539,2.411,3.075.545.239,1.154.293,1.717.488a3.71,3.71,0,0,1,2.411,2.81,6.916,6.916,0,0,0,.221,1.241c.473,1.276,2.1,1.562,3.285,2.226a4.594,4.594,0,0,1,1.669,1.615A1.07,1.07,0,0,1,915.3,336c-.358.579-1.447.237-1.792.825a1.541,1.541,0,0,0,0,1.009,2.145,2.145,0,0,1-2.715,2.163,3.644,3.644,0,0,1-1.087,2.391,2.336,2.336,0,0,1-2.687-.141,4.971,4.971,0,0,1-1.586-2.355c-.41-1.094-.716-2.329-1.649-3.032-.338-.252-.742-.415-1.072-.67a4.523,4.523,0,0,1-1.378-2.411,25.23,25.23,0,0,0-1.113-3.363,5.061,5.061,0,0,0-2.361-2.55c-1.011-.454-2.176-.425-3.22-.794-1.8-.634-3.127-2.146-4.915-2.858a7.956,7.956,0,0,1-1.614-.913A2.216,2.216,0,0,1,886.848,321.289Z" transform="translate(-730.342 -256.737)" fill="#3f3d56"/>
    <g id="Group_383" data-name="Group 383" transform="translate(154.932 54.37)" opacity="0.1">
      <path id="Path_213" data-name="Path 213" d="M894.72,316.672a1.874,1.874,0,0,0,.1-.224,5.452,5.452,0,0,0,.119-1.842,3.309,3.309,0,0,1,.057-.616,2.6,2.6,0,0,0-.243,1.172A8.537,8.537,0,0,1,894.72,316.672Z" transform="translate(-892.979 -313.99)"/>
      <path id="Path_214" data-name="Path 214" d="M909.937,366.961a2.336,2.336,0,0,1-2.687-.143,4.889,4.889,0,0,1-1.578-2.357c-.41-1.094-.714-2.329-1.649-3.032-.336-.252-.742-.417-1.07-.67a4.546,4.546,0,0,1-1.38-2.4,24.97,24.97,0,0,0-1.113-3.363,5.062,5.062,0,0,0-2.361-2.55c-1.009-.454-2.174-.425-3.218-.794-1.8-.634-3.129-2.146-4.915-2.858a8.056,8.056,0,0,1-1.615-.913,2.293,2.293,0,0,1-1.243-2.02c-.186-1.606-1.818-3.006-1.564-4.52a2.355,2.355,0,0,0-.109.252c-.556,1.632,1.3,3.11,1.484,4.822a2.289,2.289,0,0,0,1.243,2.02,8.059,8.059,0,0,0,1.615.913c1.786.712,3.116,2.226,4.915,2.858,1.044.371,2.209.339,3.218.794a5.1,5.1,0,0,1,2.361,2.55,22.744,22.744,0,0,1,1.113,3.363,4.534,4.534,0,0,0,1.38,2.4c.336.252.742.417,1.07.67a6.308,6.308,0,0,1,1.649,3.032,4.969,4.969,0,0,0,1.588,2.354,2.339,2.339,0,0,0,2.687.143,2.739,2.739,0,0,0,.907-1.543,2.277,2.277,0,0,1-.727.992Z" transform="translate(-885.331 -336.267)"/>
      <path id="Path_215" data-name="Path 215" d="M1038.147,446.395a.781.781,0,0,0-.089.434c.419-.414,1.365-.171,1.7-.7a.677.677,0,0,0,.085-.436C1039.408,446.1,1038.462,445.855,1038.147,446.395Z" transform="translate(-1009.729 -421.264)"/>
      <path id="Path_216" data-name="Path 216" d="M1023.355,461.629c-.035.185-.07.384-.115.577a2.177,2.177,0,0,0,2.632-1.706A2.157,2.157,0,0,1,1023.355,461.629Z" transform="translate(-997.662 -433.327)"/>
    </g>
    <path id="Path_217" data-name="Path 217" d="M898.862,369.026s.618,1.246-1.206,1.272,1.174,8.094,1.174,8.094l3.031,3.858,3.771-2.04.217-5.627.278-3.4s-3.524-1.144-2.875-2.658S898.862,369.026,898.862,369.026Z" transform="translate(-739.959 -303.582)" fill="#fbbebe"/>
    <path id="Path_218" data-name="Path 218" d="M965.75,538.622s2.226,2.19,4.822-.716l-1.994-2.116h-2.522Z" transform="translate(-795.902 -440.283)" fill="#575a89"/>
    <path id="Path_219" data-name="Path 219" d="M965.706,535.79l-.306,2.832s2.226,2.19,4.822-.716" transform="translate(-795.617 -440.283)" opacity="0.1"/>
    <path id="Path_220" data-name="Path 220" d="M976.382,537.87a14.537,14.537,0,0,0,1.545,3.06c.649.71,1.669,5.625.31,5.069s-3.956-4.7-4.112-5.408a24.047,24.047,0,0,1-.215-2.721Z" transform="translate(-802.549 -441.977)" fill="#fbbebe"/>
    <path id="Path_221" data-name="Path 221" d="M832.42,537.809l11.992.464-1.391-5.071-6.041-.122Z" transform="translate(-678.03 -429.861)" fill="#575a89"/>
    <path id="Path_222" data-name="Path 222" d="M841.41,537.809l11.994.464-1.391-5.071-6.042-.122Z" transform="translate(-685.352 -429.861)" opacity="0.1"/>
    <path id="Path_223" data-name="Path 223" d="M878.865,598.346a10.658,10.658,0,0,0-.046,3.709c.082.861.171,1.523.171,1.523s-4.483,1.391-5.162.185a3.667,3.667,0,0,1-.287-1.471,29.666,29.666,0,0,1,.287-4.527s-.185-4.11-.278-4.512c-.037-.161-.095-.673-.15-1.228-.082-.823-.16-1.74-.16-1.74l6.12-3.246s0,.608-.011,1.545C879.316,591.527,879.218,597.7,878.865,598.346Z" transform="translate(-720.55 -482.028)" fill="#fbbebe"/>
    <path id="Path_224" data-name="Path 224" d="M880.309,669.055s-4.483,1.391-5.162.186a3.666,3.666,0,0,1-.287-1.471,20.155,20.155,0,0,1,5.278-.237C880.22,668.393,880.309,669.055,880.309,669.055Z" transform="translate(-721.87 -547.504)" opacity="0.1"/>
    <path id="Path_225" data-name="Path 225" d="M878.8,694.052h-.07c-.54.02-3.607,0-3.607,0A1.679,1.679,0,0,1,875,693.9a2.53,2.53,0,0,1-.4-2.448,17.42,17.42,0,0,0,.618-4.3,1.992,1.992,0,0,0,.031-1.113,2.009,2.009,0,0,1-.063-1.02,2.646,2.646,0,0,0-.185-.71,2.119,2.119,0,0,1,.032-1.052,7.873,7.873,0,0,0-.31-1.947c-.278-.8-2.318-10.355-1.823-11.5,0,0,4.327-.742,5.967-.185l-.217,7.419s-.773,2.226-.124,2.814.032,2.411.032,2.411-.093.339.464,1.484,0,1.669,0,1.669v2.194a4.692,4.692,0,0,0,.061,2.689A5.774,5.774,0,0,1,878.8,694.052Z" transform="translate(-720.211 -549.132)" fill="#3f3d56"/>
    <path id="Path_226" data-name="Path 226" d="M926.155,594.192a10.657,10.657,0,0,0-.046,3.709c.082.861.171,1.523.171,1.523s-4.483,1.391-5.162.185a3.668,3.668,0,0,1-.287-1.471,29.665,29.665,0,0,1,.287-4.527s-.185-4.11-.278-4.513c-.05-.217-.137-2.287-.206-4.143-.057-1.584-.1-3.016-.1-3.016l6.12.946s0,2.691-.076,5.456A32.658,32.658,0,0,1,926.155,594.192Z" transform="translate(-759.069 -477.874)" fill="#fbbebe"/>
    <path id="Path_227" data-name="Path 227" d="M927.6,669.055s-4.483,1.391-5.162.186a3.667,3.667,0,0,1-.287-1.471,20.156,20.156,0,0,1,5.278-.237C927.51,668.393,927.6,669.055,927.6,669.055Z" transform="translate(-760.389 -547.504)" opacity="0.1"/>
    <path id="Path_228" data-name="Path 228" d="M926.07,694.02H926c-.54.02-3.607,0-3.607,0a1.67,1.67,0,0,1-.126-.148,2.53,2.53,0,0,1-.4-2.448,17.4,17.4,0,0,0,.612-4.3,1.992,1.992,0,0,0,.032-1.113,2.008,2.008,0,0,1-.063-1.02,2.646,2.646,0,0,0-.185-.71,2.119,2.119,0,0,1,.031-1.052,7.87,7.87,0,0,0-.31-1.947c-.278-.8-2.318-10.355-1.823-11.5,0,0,4.327-.742,5.967-.185l-.217,7.419s-.773,2.226-.124,2.814.032,2.411.032,2.411-.093.339.464,1.484,0,1.669,0,1.669v2.194a4.692,4.692,0,0,0,.061,2.689A5.809,5.809,0,0,1,926.07,694.02Z" transform="translate(-758.706 -549.1)" fill="#3f3d56"/>
    <circle id="Ellipse_34" data-name="Ellipse 34" cx="4.359" cy="4.359" r="4.359" transform="translate(156.955 58.185)" opacity="0.1"/>
    <circle id="Ellipse_35" data-name="Ellipse 35" cx="4.359" cy="4.359" r="4.359" transform="translate(155.841 58.294)" fill="#fbbebe"/>
    <path id="Path_229" data-name="Path 229" d="M873.24,590.286l6.12-3.246s0,.608-.011,1.545c-.894.534-2.242,1.337-3.539,2.1-.7.414-1.393.814-1.983,1.15a2.631,2.631,0,0,1-.428.185C873.318,591.2,873.24,590.286,873.24,590.286Z" transform="translate(-720.55 -482.028)" opacity="0.1"/>
    <path id="Path_230" data-name="Path 230" d="M926.683,582.846s0,2.691-.076,5.457h-.022a10.3,10.3,0,0,1-1.371-.043c-.8-.085-1.439-.3-1.669-.716a10.96,10.96,0,0,0-2.871-2.628c-.057-1.584-.1-3.016-.1-3.016Z" transform="translate(-759.102 -477.841)" opacity="0.1"/>
    <path id="Path_231" data-name="Path 231" d="M858.078,393.917a17.657,17.657,0,0,0-.089,3.641c2.812,2.318,2.287,7.2,2.287,7.2s2.164,9.893,1.7,10.789,1.05,6.4,1.05,6.4a26.991,26.991,0,0,1-3.908.449,10.3,10.3,0,0,1-1.371-.043c-.8-.085-1.439-.3-1.669-.716-.864-1.513-4.605-3.771-4.605-3.771s-2.37,1.421-4.577,2.713c-.7.414-1.393.814-1.983,1.15a3.68,3.68,0,0,1-1.549.425c-2.624.195-6.121-1.449-5.564-2.031.681-.712,4.051-13.2,4.051-13.2s1.7-7.729,3.183-8.81a1.6,1.6,0,0,0,.556-.777c.508-1.411-.341-3.674-.341-3.674s-4.791-5.9-4.576-6.245a8.647,8.647,0,0,0,.217-2.163s.588-2.875.927-4.266,2.782-1.732,3.492-1.608,2.317.556,3,0,1.825.217,1.825.217l2.815.775,2.532-1.484s2.537.13,2.754.469,3.555.99,3.555.99c1.7,1.142,1.638,6.584,1.638,6.584s-4.08,3.554-4.915,5.379a6.134,6.134,0,0,0-.432,1.6Z" transform="translate(-691.636 -312.483)" fill="#575a89"/>
    <path id="Path_232" data-name="Path 232" d="M954.127,418.2l.927.742.959,8.624.957,8.656s.371.866.681.773.278,5.13.278,5.13-3.55-2.183-4.822.716l-.99-6.99s-1.269-7.141-1.237-7.7-.649-6.584-.649-6.584Z" transform="translate(-783.261 -344.503)" fill="#575a89"/>
    <path id="Path_233" data-name="Path 233" d="M851.828,420.37l-.681.835s.063,3.585-.464,4.451,1.454,5.935,2.2,5.625,2.411-8.222,2.411-8.315S851.828,420.37,851.828,420.37Z" transform="translate(-702.106 -346.27)" fill="#575a89"/>
    <path id="Path_234" data-name="Path 234" d="M848.046,447.87s-2.164,2.194-2.01,3.246,2.226,4.355,5.193,2.58C851.229,453.7,853.981,448.519,848.046,447.87Z" transform="translate(-698.385 -368.67)" fill="#575a89"/>
    <path id="Path_235" data-name="Path 235" d="M888.294,800.107c-.54.02-3.607,0-3.607,0a1.668,1.668,0,0,1-.126-.148A4.533,4.533,0,0,1,888.294,800.107Z" transform="translate(-729.771 -655.182)" opacity="0.1"/>
    <path id="Path_236" data-name="Path 236" d="M935.6,800.107c-.54.02-3.607,0-3.607,0a1.668,1.668,0,0,1-.126-.148A4.532,4.532,0,0,1,935.6,800.107Z" transform="translate(-768.306 -655.182)" opacity="0.1"/>
    <path id="Path_237" data-name="Path 237" d="M871.766,509.11c-.473,4.537-.317,13.539-.219,17.538-.7.414-1.393.814-1.983,1.15a3.68,3.68,0,0,1-1.549.425C867.819,527.013,870.542,514.592,871.766,509.11Z" transform="translate(-716.287 -418.552)" opacity="0.1"/>
    <path id="Path_238" data-name="Path 238" d="M888.859,495.23c-.013.065-.237,1.052-.579,2.574A6.569,6.569,0,0,1,888.859,495.23Z" transform="translate(-732.801 -407.246)" opacity="0.1"/>
    <path id="Path_239" data-name="Path 239" d="M909.364,492.59s2.628,16.507-5.154,18.547C904.208,511.13,909.594,510.312,909.364,492.59Z" transform="translate(-745.776 -405.096)" opacity="0.1"/>
    <path id="Path_240" data-name="Path 240" d="M937.76,514.152a10.276,10.276,0,0,1-1.371-.043l-2.1-22.57C935.629,492.415,937.232,508.433,937.76,514.152Z" transform="translate(-770.277 -404.24)" opacity="0.1"/>
    <path id="Path_241" data-name="Path 241" d="M897.947,331.214a1.147,1.147,0,0,1,.414.043,1.8,1.8,0,0,1,.523.393,1.864,1.864,0,0,0,1.769.343,2.334,2.334,0,0,1,.666-.185,1.061,1.061,0,0,1,.844.556c.184.3.278.649.436.966a1.214,1.214,0,0,0,.757.7,1.325,1.325,0,0,1,.482.111.683.683,0,0,1,.208.287c.289.625.519,1.363,1.137,1.669a1.7,1.7,0,0,0,.725.158,1.515,1.515,0,0,0,.742-.134,1.421,1.421,0,0,0,.545-.543,3.389,3.389,0,0,0,.339-2.168,5.964,5.964,0,0,0-.97-2.608,5.443,5.443,0,0,0-4.98-2.3,6.945,6.945,0,0,0-.992.185,5.422,5.422,0,0,0-3.053,1.894,6.425,6.425,0,0,1-.569.7C897.294,331.249,897.621,331.221,897.947,331.214Z" transform="translate(-742.105 -271.419)" opacity="0.1"/>
    <path id="Path_242" data-name="Path 242" d="M897.947,330.214a1.148,1.148,0,0,1,.414.043,1.8,1.8,0,0,1,.523.393,1.864,1.864,0,0,0,1.769.343,2.333,2.333,0,0,1,.666-.185,1.061,1.061,0,0,1,.844.556c.184.3.278.649.436.966a1.214,1.214,0,0,0,.757.7,1.325,1.325,0,0,1,.482.111.682.682,0,0,1,.208.287c.289.625.519,1.363,1.137,1.669a1.7,1.7,0,0,0,.725.158,1.515,1.515,0,0,0,.742-.134,1.421,1.421,0,0,0,.545-.543,3.389,3.389,0,0,0,.339-2.168,5.964,5.964,0,0,0-.97-2.608,5.443,5.443,0,0,0-4.98-2.3,6.939,6.939,0,0,0-.992.185,5.421,5.421,0,0,0-3.053,1.894,6.422,6.422,0,0,1-.569.7C897.294,330.249,897.621,330.221,897.947,330.214Z" transform="translate(-742.105 -270.605)" fill="#3f3d56"/>
    <path id="Path_243" data-name="Path 243" d="M873.411,398.2s.217,1.732-.525,2.164S873.411,398.2,873.411,398.2Z" transform="translate(-720.073 -328.212)" opacity="0.1"/>
    <path id="Path_244" data-name="Path 244" d="M961.57,461.809s1.762-2.6,2.01-1.855S961.57,461.809,961.57,461.809Z" transform="translate(-792.498 -378.404)" opacity="0.1"/>
    <path id="Path_245" data-name="Path 245" d="M962.24,468.648s1.738-2.133,1.9-1.3S962.24,468.648,962.24,468.648Z" transform="translate(-793.043 -384.378)" opacity="0.1"/>
    <path id="Path_246" data-name="Path 246" d="M888.715,458.293a2.821,2.821,0,0,1-1.747-.575h-.152a2.745,2.745,0,0,1-1.909.718,2.708,2.708,0,0,1-1.979-.794h-.2a2.914,2.914,0,0,1-3.761-.069l-.725-.013s.849,2.263.341,3.674l12.395.221a17.657,17.657,0,0,1,.089-3.641V457.8l-.681-.013A2.853,2.853,0,0,1,888.715,458.293Z" transform="translate(-724.623 -376.563)" opacity="0.1"/>
    <path id="Path_247" data-name="Path 247" d="M888.715,460.293a2.821,2.821,0,0,1-1.747-.575h-.152a2.745,2.745,0,0,1-1.909.718,2.708,2.708,0,0,1-1.979-.794h-.2a2.914,2.914,0,0,1-3.761-.069l-.725-.013s.849,2.263.341,3.674l12.395.221a17.657,17.657,0,0,1,.089-3.641V459.8l-.681-.013A2.852,2.852,0,0,1,888.715,460.293Z" transform="translate(-724.623 -378.192)" opacity="0.1"/>
    <path id="Path_248" data-name="Path 248" d="M888.715,459.293a2.821,2.821,0,0,1-1.747-.575h-.152a2.745,2.745,0,0,1-1.909.718,2.708,2.708,0,0,1-1.979-.794h-.2a2.914,2.914,0,0,1-3.761-.069l-.725-.013s.849,2.263.341,3.674l12.395.221a17.657,17.657,0,0,1,.089-3.641V458.8l-.681-.013a2.853,2.853,0,0,1-1.669.508Z" transform="translate(-724.623 -377.377)" fill="#3f3d56"/>
    <path id="Path_249" data-name="Path 249" d="M931.75,395.83s2.61.167,2.626.538S931.75,395.83,931.75,395.83Z" transform="translate(-768.208 -326.281)" opacity="0.1"/>
    <path id="Path_250" data-name="Path 250" d="M886.036,387.3s-2.61.167-2.626.538S886.036,387.3,886.036,387.3Z" transform="translate(-728.834 -319.334)" opacity="0.1"/>
    <path id="Path_251" data-name="Path 251" d="M937.452,427.97c-.026-.019-.052-.033-.078-.05.668.6.556,1.914-.263,3s-2.064,1.534-2.821,1.048c.024.02.045.043.07.063.742.568,2.04.122,2.9-1S938.2,428.539,937.452,427.97Z" transform="translate(-770.277 -352.42)" opacity="0.1"/>
    <path id="Path_252" data-name="Path 252" d="M871.384,430.135c-.66-1.191-.575-2.506.172-3-.028.013-.057.024-.085.039-.82.456-.927,1.823-.249,3.055s1.9,1.855,2.723,1.406a.712.712,0,0,0,.078-.052C873.206,431.949,872.045,431.325,871.384,430.135Z" transform="translate(-718.544 -351.776)" opacity="0.1"/>
    <path id="Path_253" data-name="Path 253" d="M875.079,387.227h0l-.239.371-.61-.325.321-.493a1.345,1.345,0,0,1,.529.447Z" transform="translate(-721.357 -318.91)" opacity="0.1"/>
    <path id="Path_254" data-name="Path 254" d="M855.257,426.54s.543-2.556-.185-3.368-.5-5.071.618-4.978,2.782,3.461,2.5,4.173-1.33,4.359-1.33,4.359Z" transform="translate(-705.411 -344.496)" fill="#fbbebe"/>
    <path id="Path_255" data-name="Path 255" d="M907.2,344.6a1.421,1.421,0,0,1-.545.543,1.516,1.516,0,0,1-.742.134,1.7,1.7,0,0,1-.725-.158c-.618-.308-.848-1.046-1.137-1.669a.682.682,0,0,0-.189-.293,1.325,1.325,0,0,0-.477-.117,1.224,1.224,0,0,1-.757-.7c-.159-.315-.254-.664-.436-.966a1.021,1.021,0,0,0-.844-.556,2.279,2.279,0,0,0-.666.195,1.87,1.87,0,0,1-1.769-.345,1.8,1.8,0,0,0-.523-.393,1.149,1.149,0,0,0-.414-.043c-.213,0-.425.02-.638.037a4.66,4.66,0,0,1-.339.4c.325-.028.651-.056.977-.063a1.149,1.149,0,0,1,.414.043,1.8,1.8,0,0,1,.523.393,1.869,1.869,0,0,0,1.769.345,2.281,2.281,0,0,1,.666-.195,1.061,1.061,0,0,1,.844.556c.184.3.278.649.436.966a1.214,1.214,0,0,0,.757.7,1.324,1.324,0,0,1,.477.117.682.682,0,0,1,.208.287c.289.625.519,1.363,1.137,1.669a1.7,1.7,0,0,0,.725.158,1.516,1.516,0,0,0,.742-.134,1.421,1.421,0,0,0,.545-.543,3.077,3.077,0,0,0,.371-1.717A2.834,2.834,0,0,1,907.2,344.6Z" transform="translate(-742.129 -280.994)" opacity="0.1"/>
    <ellipse id="Ellipse_36" data-name="Ellipse 36" cx="1.669" cy="1.131" rx="1.669" ry="1.131" transform="translate(148.999 81.808)" fill="#575a89"/>
    <path id="Path_275" data-name="Path 275" d="M57.217,0A57.217,57.217,0,1,1,0,57.217,57.217,57.217,0,0,1,57.217,0Z" transform="translate(39.041 31.481)" fill="#2a87c9"/>
    <path id="Path_256" data-name="Path 256" d="M467.154,546.255c0,9.032,1.288-17.551-29.735-17.857s-30.309,26.548-30.309,17.516c0-5.151,4.908-12.313,11.948-17.516h0c5.3-3.921,11.818-5.5,18.362-5.5A29.542,29.542,0,0,1,456,528.882C462.634,534.144,467.154,541.214,467.154,546.255Z" transform="translate(-340.873 -428.803)" fill="#444053"/>
    <path id="Path_258" data-name="Path 258" d="M9.65,0S-2.894,7.912.622,14.238,9.65,0,9.65,0Z" transform="translate(54.352 82.547) rotate(-17)" opacity="0.33"/>
    <path id="Path_259" data-name="Path 259" d="M.364.024S19.541-1.115,17.28,12.141a3.2,3.2,0,0,1-1.7,3.406s-.034-.982-1.966-.649a9,9,0,0,1-2.084.1A4.359,4.359,0,0,1,8.98,13.958h0s-5.391-2.2-7.489-10.887c0,0-1.551-1.9-1.49-2.381L3.238,2.051a5.634,5.634,0,0,0-.228,4.217s.1-4.132.727-4.044c.125.02,1.681.8,1.681.8s-1.9,4.013-.455,6.927c0,0-.544-4.943,1.061-6.637L8.3,4.623s-2.223,4.143-.715,7.524c0,0-.387-5.185,1.193-7.205l2.066,1.588s-2.089,4.084-.816,6.888c0,0,.166-6.037,1.262-6.493a12.533,12.533,0,0,1,2.082,2.217s-1.43,2.963-.544,4.527c0,0,.544-4.022.991-4.044a13.3,13.3,0,0,1,1.988,4.493,9.616,9.616,0,0,0-1.551-4.747,5.434,5.434,0,0,1,2.754,1.409s-.28-1.885-3.189-2.049a12.331,12.331,0,0,0-1.886-2.143,11.971,11.971,0,0,1,4.664.53s-1.549-1.777-5.2-.971l-2.05-1.64s3.822-.517,5.444.054c0,0-1.865-1.573-5.992-.427L6.586,2.826a20.632,20.632,0,0,1,5.2-.449s-2.05-1.09-5.851.092l-1.594-.7S6.732,1.3,7.431,1.231s.736-.265.736-.265a8.385,8.385,0,0,0-4.494.514S.307.233.364.024Z" transform="matrix(0.999, -0.052, 0.052, 0.999, 27.554, 41.977)" fill="#6c63ff"/>
    <path id="Path_260" data-name="Path 260" d="M757.323,87.257s12.153-.766,10.733,8.113a2.2,2.2,0,0,1-1.081,2.281s-.019-.666-1.247-.433a5.549,5.549,0,0,1-1.321.067,2.722,2.722,0,0,1-1.618-.7h0s-3.419-1.472-4.749-7.294c0,0-.985-1.269-.959-1.6l2.053.913a3.968,3.968,0,0,0-.15,2.824s.067-2.768.461-2.7c.08,0,1.068.533,1.068.533s-1.209,2.688-.3,4.639c0,0-.345-3.31.672-4.446l1.446.879s-1.41,2.778-.454,5.042c0,0-.243-3.474.758-4.826l1.311,1.062s-1.324,2.734-.518,4.613c0,0,.106-4.043.8-4.35a8.223,8.223,0,0,1,1.321,1.485s-.908,2-.345,3.034c0,0,.345-2.694.64-2.7a9.11,9.11,0,0,1,1.26,3,6.677,6.677,0,0,0-.982-3.181,3.381,3.381,0,0,1,1.746.943s-.176-1.262-2.028-1.372a8.222,8.222,0,0,0-1.2-1.435,7.216,7.216,0,0,1,2.958.356s-.982-1.192-3.3-.666l-1.279-1.1a10.671,10.671,0,0,1,3.454.033s-1.183-1.052-3.8-.283l-1.407-.879a12.31,12.31,0,0,1,3.3-.3,4.877,4.877,0,0,0-3.713.063l-1.007-.473s1.516-.31,1.957-.356.47-.177.47-.177a5.05,5.05,0,0,0-2.846.333A12.616,12.616,0,0,1,757.323,87.257Z" transform="translate(-735.13 -67.766)" fill="#6c63ff"/>
    <path id="Path_274" data-name="Path 274" d="M.3.021S15.026-.953,13.3,10.341a2.87,2.87,0,0,1-1.31,2.9s-.023-.847-1.512-.551a6.414,6.414,0,0,1-1.6.085,3.224,3.224,0,0,1-1.961-.885h0S2.776,10.019,1.163,2.614C1.163,2.614-.03,1,0,.585L2.489,1.745a5.275,5.275,0,0,0-.182,3.593s.082-3.521.558-3.436c.1,0,1.295.678,1.295.678S2.695,6,3.8,8.481c0,0-.419-4.211.814-5.656L6.366,3.944s-1.709,3.533-.55,6.414c0,0-.295-4.419.919-6.139L8.323,5.571s-1.6,3.478-.628,5.868c0,0,.128-5.143.973-5.533a10.3,10.3,0,0,1,1.6,1.889s-1.1,2.542-.418,3.859c0,0,.418-3.427.775-3.44a11.885,11.885,0,0,1,1.527,3.813,8.8,8.8,0,0,0-1.19-4.046,4.044,4.044,0,0,1,2.116,1.2s-.213-1.606-2.458-1.745a10.365,10.365,0,0,0-1.45-1.826,8.355,8.355,0,0,1,3.586.453s-1.19-1.517-4-.847L7.211,3.821s2.938-.424,4.187.042c0,0-1.434-1.339-4.609-.36L5.082,2.385a14.246,14.246,0,0,1,4-.377s-1.578-.928-4.5.081l-1.221-.6S5.2,1.093,5.734,1.034,6.3.809,6.3.809a5.856,5.856,0,0,0-3.45.424A14.949,14.949,0,0,1,.3.021Z" transform="matrix(0.891, -0.454, 0.454, 0.891, 177.673, 6.104)" fill="#6c63ff"/>
    <ellipse id="Ellipse_41" data-name="Ellipse 41" cx="7.458" cy="1.261" rx="7.458" ry="1.261" transform="translate(180.638 146.682)" fill="#6c63ff"/>
    <path id="Path_261" data-name="Path 261" d="M1050.472,792.3a2.175,2.175,0,0,0,.712-1.074.957.957,0,0,0-.5-1.092c-.456-.174-.944.143-1.313.462a1.76,1.76,0,0,1-1.278.616,1.942,1.942,0,0,0,.6-1.819.765.765,0,0,0-.167-.371c-.254-.271-.712-.156-1.016.057a3.786,3.786,0,0,0-1.239,3.168,5.947,5.947,0,0,1-.017-1.3,1.342,1.342,0,0,0-.49-1.155,1.483,1.483,0,0,0-.742-.174,1.544,1.544,0,0,0-1.213.343,1.193,1.193,0,0,0,.048,1.484,4.808,4.808,0,0,0,1.254,1.005,2.781,2.781,0,0,1,.9.855.893.893,0,0,1,.067.154h2.717A7.557,7.557,0,0,0,1050.472,792.3Z" transform="translate(-859.294 -646.421)" fill="#6c63ff"/>
    <path id="Path_272" data-name="Path 272" d="M400.537,449.162c1.089-.061,2.825-.017,9.026-3.717.523-.308,2.61-1.68,2.164-5.244,1.035-.03,2.226.4,1.463,2.821-1.235,3.956-8.407,8.407-12.859,8.161a14.75,14.75,0,0,1-12.712-8.027,3.71,3.71,0,0,1-.458-1.908c.039-1.224,2.821,3.328,5.119,5.038a16.626,16.626,0,0,0,8.257,2.877C400.677,449.17,400.4,449.17,400.537,449.162Z" transform="translate(-324.623 -361.815)" fill="#444053"/>
    <path id="Path_273" data-name="Path 273" d="M400.055,449.162c-1.089-.061-2.825-.017-9.026-3.717-.523-.308-2.609-1.68-2.164-5.244-1.035-.03-2.226.4-1.463,2.821,1.235,3.956,8.407,8.407,12.858,8.161a14.75,14.75,0,0,0,12.712-8.027,3.71,3.71,0,0,0,.458-1.909c-.039-1.224-2.821,3.328-5.119,5.038a16.626,16.626,0,0,1-8.257,2.877C399.915,449.17,400.194,449.17,400.055,449.162Z" transform="translate(-285.149 -361.815)" fill="#444053"/>
  </g>
</svg>
