<svg xmlns="http://www.w3.org/2000/svg" width="123.014" height="123.014" viewBox="0 0 123.014 123.014">
  <path id="waving_hand_FILL1_wght400_GRAD0_opsz48" d="M91.464,125.014v-8.387a25.057,25.057,0,0,0,25.162-25.162h8.387a33.41,33.41,0,0,1-33.549,33.549ZM2,35.549a32.354,32.354,0,0,1,9.785-23.764A32.354,32.354,0,0,1,35.549,2v8.387a24.265,24.265,0,0,0-17.823,7.339,24.265,24.265,0,0,0-7.339,17.823Zm13.42,76.045A44.337,44.337,0,0,1,5.355,96.357a46.818,46.818,0,0,1,0-34.807A44.337,44.337,0,0,1,15.42,46.313L41.141,20.592A7.226,7.226,0,0,1,46.1,18.5a6.488,6.488,0,0,1,5.1,1.957,6.724,6.724,0,0,1,1.957,4.962,6.724,6.724,0,0,1-1.957,4.962L28.42,53.162a18.711,18.711,0,0,1,6.85,11.952q1.258,7.479-4.893,13.769L34.291,82.8q5.731-5.312,6.5-14.119A20.39,20.39,0,0,0,36.108,53.3L78.744,10.667a6.921,6.921,0,0,1,9.925,0,7.068,7.068,0,0,1,2.1,4.823,6.543,6.543,0,0,1-2.1,5.1L58.055,51.205l3.774,3.914,38.582-38.582A6.921,6.921,0,0,1,112.293,21.5a6.724,6.724,0,0,1-1.957,4.962L71.754,65.044l4.054,3.914,32.571-32.571a6.921,6.921,0,0,1,11.882,4.962,6.724,6.724,0,0,1-1.957,4.962L81.679,82.8l3.914,4.054,24.743-24.743a6.543,6.543,0,0,1,5.1-2.1,7.174,7.174,0,0,1,6.92,6.92,6.543,6.543,0,0,1-2.1,5.1L80.7,111.594a44.337,44.337,0,0,1-15.237,10.065,46.818,46.818,0,0,1-34.807,0A44.337,44.337,0,0,1,15.42,111.594Z" transform="translate(-2 -2)" fill="#4abee2" opacity="0.338"/>
</svg>
