<svg id="Artboard" xmlns="http://www.w3.org/2000/svg" width="283" height="228" viewBox="0 0 283 228">
  <g id="Group" transform="translate(0)">
    <g id="Group_344">
      <g id="Rectangle_330">
        <rect id="Rectangle" width="283" height="228" fill="rgba(0,0,0,0)"/>
      </g>
      <g id="Group_353" transform="translate(4.278 14.359)">
        <path id="Path_149" d="M113.427,91.108a75.213,75.213,0,0,0-7.319-7.534l-98.79-.26A75.213,75.213,0,0,0,0,90.848Z" transform="translate(0 -15.563)" fill="#3f3d56"/>
        <path id="Path_150" d="M73.834,52.124V78.817H55.13V52.124a.9.9,0,0,1,.633-.859.828.828,0,0,1,.268-.042h16.9a.9.9,0,0,1,.907.9Zm-7.3,9.171a2,2,0,0,0-3.993,0v3.1a2,2,0,1,0,3.993,0Z" transform="translate(-10.298 -9.569)" fill="#2f2e41"/>
        <path id="Path_151" d="M73.878,84.105v2.574a.507.507,0,0,1-.5.5H55.565a.5.5,0,0,1-.5-.5V84.105Z" transform="translate(-10.286 -15.711)" fill="#3f3d56"/>
        <path id="Path_152" d="M96.638,2.34V51.076A2.344,2.344,0,0,1,94.3,53.418H22.073a2.344,2.344,0,0,1-2.342-2.342V2.34A2.345,2.345,0,0,1,22.073,0H94.3A2.345,2.345,0,0,1,96.638,2.34Z" transform="translate(-3.686)" fill="#3f3d56"/>
        <path id="Path_153" d="M95.332,3.335V50.864a1.254,1.254,0,0,1-1.252,1.252H23.063a1.254,1.254,0,0,1-1.252-1.252V3.335A1.255,1.255,0,0,1,23.063,2.08H94.08a1.255,1.255,0,0,1,1.252,1.255Z" transform="translate(-4.074 -0.389)" fill="#6c63ff"/>
        <path id="Path_154" d="M84.391,87.628a.768.768,0,0,1-.6.289H41.537a.777.777,0,0,1-.76-.937l.656-3.115a.779.779,0,0,1,.488-.564.753.753,0,0,1,.276-.052H83.134a.752.752,0,0,1,.276.052.779.779,0,0,1,.488.564l.656,3.115A.777.777,0,0,1,84.391,87.628Z" transform="translate(-7.614 -15.551)" fill="#2f2e41"/>
        <path id="Path_155" d="M83.283,84.05a.1.1,0,0,1,.037.007.133.133,0,0,1,.081.092l.656,3.117a.124.124,0,0,1-.026.1h0a.117.117,0,0,1-.1.046H41.686a.121.121,0,0,1-.1-.046.12.12,0,0,1-.028-.1l.656-3.119a.129.129,0,0,1,.081-.091.114.114,0,0,1,.044-.009Z" transform="translate(-7.764 -15.7)" fill="#fff"/>
        <path id="Path_156" d="M92.548,10.01H26.1a.264.264,0,0,1,0-.529H92.548a.264.264,0,1,1,0,.529Z" transform="translate(-4.826 -1.771)" fill="#3f3d56"/>
        <ellipse id="Ellipse_19" cx="1.548" cy="1.583" rx="1.548" ry="1.583" transform="translate(24.247 3.195)" fill="#3f3d56"/>
        <ellipse id="Ellipse_20" cx="1.548" cy="1.583" rx="1.548" ry="1.583" transform="translate(29.597 3.195)" fill="#3f3d56"/>
        <ellipse id="Ellipse_21" cx="1.548" cy="1.583" rx="1.548" ry="1.583" transform="translate(34.946 3.195)" fill="#3f3d56"/>
        <path id="Path_157" d="M103.26,4.7a.285.285,0,0,1-.284.286h-3.8a.288.288,0,0,1,0-.575h3.8a.287.287,0,0,1,.285.289Z" transform="translate(-18.475 -0.824)" fill="#3f3d56"/>
        <path id="Path_158" d="M103.253,6.028a.285.285,0,0,1-.284.286h-3.8a.288.288,0,1,1,0-.575h3.8a.287.287,0,0,1,.283.289Z" transform="translate(-18.469 -1.072)" fill="#3f3d56"/>
        <path id="Path_159" d="M103.26,7.353a.287.287,0,0,1-.284.289h-3.8a.288.288,0,0,1,0-.575h3.8a.285.285,0,0,1,.285.286Z" transform="translate(-18.475 -1.32)" fill="#3f3d56"/>
        <path id="Path_160" d="M37.8,20.051H84.452a2.314,2.314,0,0,1,2.311,2.311v22.7a2.314,2.314,0,0,1-2.311,2.312H37.8a2.314,2.314,0,0,1-2.311-2.312v-22.7A2.314,2.314,0,0,1,37.8,20.051Zm-1.789,2.311v6.624h16.4V20.571H37.8a1.789,1.789,0,0,0-1.789,1.789Zm33.313,15.56V29.507h-16.4v8.415Zm-16.4.52v8.415h16.4V38.443Zm16.914-.52h16.4V29.507h-16.4Zm-.52-8.936V20.571h-16.4v8.415Zm-16.914.52h-16.4v8.415h16.4Zm32.04-8.935h-14.6v8.415h16.4V22.362a1.789,1.789,0,0,0-1.789-1.789Zm1.789,24.5V38.441H69.846v8.415H84.452a1.789,1.789,0,0,0,1.791-1.79ZM37.8,46.855H52.406V38.443H36.012v6.624A1.789,1.789,0,0,0,37.8,46.856Z" transform="translate(-6.63 -3.746)" fill="#3f3d56"/>
        <path id="Path_161" d="M68.6,26.74a2.484,2.484,0,0,1,4.251-.877,75.141,75.141,0,0,1,6.688,4.927v.027l-4.991-.344a8.6,8.6,0,0,1-3.507-.746,3.09,3.09,0,0,0-1.252-.524,2.013,2.013,0,0,0-1.451.786c-2.3,2.449-2.965,6.194-5.545,8.346A81.882,81.882,0,0,1,68.6,26.74Z" transform="translate(-11.73 -4.67)" fill="#fff"/>
        <path id="Path_162" d="M52.52,47.15c.255-.321.358-.4.609-.72q3.064-3.963,5.76-8.193,1.831-2.873,3.48-5.855.786-1.418,1.527-2.859.576-1.117,1.126-2.248c.1-.215.207-.432.308-.651.239-.51.473-1.022.725-1.525A4.194,4.194,0,0,1,67.22,23.54a1.587,1.587,0,0,1,.827-.318,2.306,2.306,0,0,1,1.2.343,38.533,38.533,0,0,1,7.577,5.225,39.446,39.446,0,0,1,6.156,6.831c.054.081.183,0,.128-.075q-.325-.459-.662-.908a39.662,39.662,0,0,0-10.126-9.445q-.985-.638-2.007-1.22c-.343-.194-.688-.386-1.039-.569a2.535,2.535,0,0,0-1.1-.342c-1.337-.021-2.033,1.493-2.5,2.512q-.224.481-.454.959-.868,1.815-1.8,3.6-.577,1.1-1.178,2.188-1.87,3.385-3.985,6.633c-1.862,2.868-3.71,5.4-5.832,8.085C52.356,47.119,52.461,47.225,52.52,47.15Z" transform="translate(-9.788 -4.308)" fill="#fff"/>
        <path id="Path_163" d="M82.564,28.624l.233-.259a6.869,6.869,0,0,1,2.125-1.747,3.083,3.083,0,0,1,1.291-.3,3.685,3.685,0,0,1,1.341.293c.2.081.4.172.594.27.222.112.441.231.658.351q.612.338,1.208.707,1.186.732,2.3,1.577.576.437,1.128.9.514.433,1.007.89c.07.065.175-.04.1-.1l-.262-.244q-.371-.336-.754-.658-.7-.59-1.433-1.133a28.336,28.336,0,0,0-2.363-1.578q-.61-.365-1.237-.7c-.126-.067-.254-.133-.383-.2a6.1,6.1,0,0,0-.911-.371,3.239,3.239,0,0,0-1.375-.135,3.578,3.578,0,0,0-1.269.439,8.572,8.572,0,0,0-2.1,1.884C82.4,28.589,82.5,28.7,82.564,28.624Z" transform="translate(-15.4 -4.889)" fill="#fff"/>
        <path id="Path_164" d="M58.212,37.5l-1.992-.732-.989-.362a10.114,10.114,0,0,0-.976-.337,1.54,1.54,0,0,0-.884.011,2.033,2.033,0,0,0-.69.428,5.6,5.6,0,0,0-.569.6c-.215.259-.428.52-.641.781q-1.319,1.613-2.621,3.241T46.263,44.4q-1.287,1.645-2.558,3.3l-.311.407c-.057.075-.186,0-.128-.075q1.279-1.676,2.576-3.334t2.618-3.318q1.318-1.652,2.654-3.289l.667-.813c.188-.229.373-.46.58-.673a2.089,2.089,0,0,1,1.416-.746,2.733,2.733,0,0,1,.963.211c.333.12.665.244,1,.365l2.006.732.5.184C58.34,37.391,58.3,37.534,58.212,37.5Z" transform="translate(-8.08 -6.7)" fill="#fff"/>
        <path id="Path_165" d="M85.351,27.7a3.216,3.216,0,0,1,3.239.232,46.2,46.2,0,0,0-5.256,1.226C84.051,28.737,84.612,28.079,85.351,27.7Z" transform="translate(-15.567 -5.112)" fill="#fff"/>
        <path id="Path_166" d="M89.808,28.058l.2.159c-.066-.055-.134-.107-.2-.157Z" transform="translate(-16.775 -5.241)" fill="#fff"/>
        <path id="Path_167" d="M53.263,37.751a1.658,1.658,0,0,1,.7-.586l.274.011a31.064,31.064,0,0,1-8.273,9.457Z" transform="translate(-8.586 -6.943)" fill="#fff"/>
        <circle id="Ellipse_22" cx="1.577" cy="1.577" r="1.577" transform="translate(44.38 23.622)" fill="#fff"/>
        <path id="Path_168" d="M28.105,46.438a1.173,1.173,0,0,1-1.171-1.171v-24.2a1.171,1.171,0,1,1,2.342,0v24.2A1.173,1.173,0,0,1,28.105,46.438Z" transform="translate(-5.031 -3.716)" fill="#3f3d56"/>
        <path id="Path_169" d="M28.105,50.951a1.173,1.173,0,0,1-1.171-1.171V44.648a1.452,1.452,0,0,1,2.342,0V49.78A1.173,1.173,0,0,1,28.105,50.951Z" transform="translate(-5.031 -8.23)" fill="#2f2e41"/>
        <path id="Path_170" d="M28.085,44.751a1.261,1.261,0,0,1-1.26-1.26v-5.52a1.562,1.562,0,0,1,2.521,0v5.52a1.261,1.261,0,0,1-1.261,1.26Z" transform="translate(-5.011 -6.974)" fill="#6c63ff"/>
        <path id="Path_171" d="M28.163,43.977a.921.921,0,0,1-.919-.919V39.032a1.138,1.138,0,0,1,1.838,0v4.026a.92.92,0,0,1-.919.919Z" transform="translate(-5.089 -7.204)" fill="#3f3d56"/>
      </g>
    </g>
    <path id="Path_128" d="M274.7,268.276h0a.4.4,0,0,1-.387.413H6.093v-.828H274.316a.4.4,0,0,1,.388.413Z" transform="translate(-1.138 -50.037)" fill="#cdcdcd"/>
    <g id="Group_351" transform="translate(4.955 22.957)">
      <g id="Group_345" transform="translate(163.494 4.341)">
        <path id="Path_129" d="M13.113,63.806S-2.305,65.66.3,53.47,17.643,18.762,17.643,18.762l8.368,4.693L16.4,46.165l4.136,3.263Z" transform="translate(0 -3.505)" fill="#ab6f77"/>
        <path id="Path_130" d="M65.253,55.581,63.08,73.45,8.638,73.183l10.934-19Z" transform="translate(-1.614 -10.121)" fill="#f8974d"/>
        <path id="Path_201" d="M10.36,0c5.722,0,10.361,2.993,10.361,6.684s-4.635,6.684-10.36,6.684S0,10.376,0,6.684,4.635,0,10.36,0Z" transform="translate(14.383 16.849) rotate(-54.402)" fill="#ab6f77"/>
      </g>
      <rect id="Rectangle_325" width="77.549" height="3.342" transform="translate(221.898 195.475) rotate(-90)" fill="#3f3d56"/>
      <rect id="Rectangle_326" width="77.549" height="3.342" transform="translate(205.853 195.475) rotate(-90)" fill="#3f3d56"/>
      <rect id="Rectangle_327" width="126.351" height="3.342" transform="translate(133.298 195.475) rotate(-90)" fill="#a9a9a9"/>
      <rect id="Rectangle_328" width="77.549" height="3.342" transform="translate(179.898 195.475) rotate(-90)" fill="#3f3d56"/>
      <rect id="Rectangle_329" width="77.549" height="3.342" transform="translate(168.822 195.475) rotate(-90)" fill="#3f3d56"/>
      <path id="Path_131" d="M298.229,142.956H233.68L221.3,160.521l64.229,3.829Z" transform="translate(-79.339 -26.705)" fill="#3f3d56"/>
      <g id="Group_347" transform="translate(51.247 32.606)">
        <g id="Group_346" transform="translate(0)">
          <path id="Path_132" d="M51.877,26.041,52.171,13.3l-38.959,3-.2,8.631Z" transform="translate(-2.431 -2.485)" fill="#ab6f77"/>
          <path id="Path_133" d="M23.079,12.294l-1.863,4.483-2.676.085s3.133.96,4,6.653l-2.571.771a10.056,10.056,0,0,1-7.085,2.08L.51,25.331.462,21.016l8.554-.989s1.906-1.254-7.529-6.409c0,0-3.125-1.911-.315-11.349A3.132,3.132,0,0,1,4.079.011,1.59,1.59,0,0,1,5.8,1.191C6.515,3.549,5.8,5.908,7.75,7.379s15.327,4.914,15.327,4.914Z" transform="translate(0 0)" fill="#201f37"/>
        </g>
        <path id="Path_134" d="M170.166,73.141S156.724,96,126.308,91.882a23.5,23.5,0,0,1-17.234-11.624C102.061,68.005,91.413,46.55,94.865,34.4L43.423,24.583,39.37,12.09,95.044,4.858a12.257,12.257,0,0,1,12.216,6.065l27.12,47.362,8.085.883Z" transform="translate(-7.354 -0.888)" fill="#282834"/>
      </g>
      <g id="Group_349" transform="translate(51.209 38.508)">
        <g id="Group_348" transform="translate(0 3.019)">
          <path id="Path_135" d="M53.067,21.489l-.732-12.72L13.741,14.89l.5,8.62Z" transform="translate(-2.567 -1.638)" fill="#a0616a"/>
          <path id="Path_136" d="M23.313,10.745l-1.5,4.618-2.661.3s3.2.7,4.525,6.31l-2.5.976a10.062,10.062,0,0,1-6.9,2.644L1.866,25.556l-.394-4.3,8.447-1.674s1.8-1.4-8.021-5.783c0,0-3.269-1.654-1.226-11.287A3.132,3.132,0,0,1,3.387.031,1.59,1.59,0,0,1,5.2,1.068c.9,2.3.371,4.7,2.44,6.012s15.673,3.665,15.673,3.665Z" transform="translate(0 0)" fill="#191823"/>
        </g>
        <path id="Path_137" d="M174.8,62.287S162.692,87.664,132.043,86c-7.294-.4-14.26-1.946-18.387-7.973-7.975-11.65-19.495-35.912-17.032-48.3L44.56,24.084,39.518,11.958,94.425.269A12.257,12.257,0,0,1,107.09,5.331l30.843,45.024,8.132.229,28.736,11.7Z" transform="translate(-7.382 0)" fill="#2f2e41"/>
      </g>
      <path id="Path_138" d="M271.632,0l-2.674,2.005L283,21.393l2.674-.668Z" transform="translate(-81.019)" fill="#3f3d56"/>
      <path id="Path_139" d="M308.767,52.788l15.376-.668L330.829,82.2s-14.039,52.814-30.752,50.808c0,0-10.362-7.688-10.362-10.362s-14.045-9.36-14.045-9.36l-3.342-11.365,10.028-15.376A35.811,35.811,0,0,1,299.741,67.83l9.026-15.044Z" transform="translate(-88.872 -9.736)" fill="#ffaf73"/>
      <path id="Path_140" d="M169.982,81.714H0v3.343H100.121V210.74h3.342V85.057h66.519Z" transform="translate(0 -15.264)" fill="#a3a3a3"/>
      <circle id="Ellipse_16" cx="18.051" cy="18.051" r="18.051" transform="translate(209.865 4.277)" fill="#a0616a"/>
      <path id="Path_141" d="M246.711,55.818l-12.6,5.013,24.736,32.758,8.691-6.685Z" transform="translate(-72.288 -10.427)" fill="#e6e6e6"/>
      <g id="Group_350" transform="translate(164.8 51.397)">
        <path id="Path_142" d="M51.767,63.363s-4.68,14.807-14.707,7.4S12.616,40.63,12.616,40.63l7.73-5.683L37.059,53.076l4.68-2.418,10.028,12.7Z" transform="translate(-2.357 -6.528)" fill="#a0616a"/>
        <path id="Path_143" d="M64.735,4.691,76.379,0l3.733,14.05L57.381,63.52,42.674,43.465Z" transform="translate(-7.972)" fill="#fca25e"/>
        <ellipse id="Ellipse_17" cx="6.685" cy="10.362" rx="6.685" ry="10.362" transform="translate(0 19.784) rotate(-30)" fill="#a0616a"/>
      </g>
      <path id="Path_144" d="M309.009,90.564c4.635-15.187,9.6-19.993,14.83-16.984a8.343,8.343,0,0,1,2.846,11.458c-5.943,10.08-18.189,33.174-15.638,48.48,0,0,4.011,21.393-28.078,21.393s-62.841-7.354-62.841-7.354l16.713-2.674,38.007,2.714a13.851,13.851,0,0,0,14.842-15.439q-.058-.427-.137-.864c-1.905-10.48,19.456-40.731,19.456-40.731Z" transform="translate(-79.121 -13.586)" fill="#3f3d56"/>
    </g>
    <path id="Path_145" d="M321.778,42.94a6.089,6.089,0,0,0,6.14,8.124l.1-.007h0a10.322,10.322,0,0,1,.2,12.641h0a35.733,35.733,0,0,0,2.234,14.254l4.794,12.783,7.38-3.444,3.5,9.352,20.6-10.615-12.487-28.1-3.811-15.244a20.034,20.034,0,0,0-24.579-14.5l-8.289,2.2a11.878,11.878,0,0,0-8.278,15.057h0l12.488-2.5" transform="translate(-95.674 -5.138)" fill="#191823"/>
    <g id="Group_354" transform="translate(9.29 183.784)">
      <path id="Path_192" d="M64.933,23.873V38.16H21.295A14.288,14.288,0,0,1,35.581,23.873a43.556,43.556,0,0,1,13.956-1.545A124.971,124.971,0,0,1,64.933,23.873Z" transform="translate(-3.978 -4.16)" fill="#ff6584"/>
      <path id="Path_193" d="M67.293,36.546H96.918a1.878,1.878,0,0,1,1.875,1.881h0a1.878,1.878,0,0,1-1.875,1.881H67.293V36.546Z" transform="translate(-12.571 -6.827)" fill="#964958"/>
      <path id="Path_194" d="M71.663,7.487l5.5-6.668a1.444,1.444,0,0,1,2.691.231l2.169,7.659Z" transform="translate(-13.387 0)" fill="#964958"/>
      <path id="Path_195" d="M63.455,11.122,65.537,2.73a1.443,1.443,0,0,1,2.527-.956L73.33,7.742Z" transform="translate(-11.854 -0.24)" fill="#ff6584"/>
      <path id="Path_196" d="M0,0H5.813V12.554A5.86,5.86,0,0,1,4.13,16.712,5.86,5.86,0,0,1,0,18.461H0Z" transform="matrix(-0.276, 0.961, -0.961, -0.276, 19.348, 28.413)" fill="#ff6584"/>
      <path id="Path_197" d="M67.293,37.8H90.469a1.556,1.556,0,0,1,1.464,1.632h0a1.556,1.556,0,0,1-1.464,1.632H67.293Z" transform="translate(-12.571 -7.06)" fill="#ff6584"/>
      <path id="Path_198" d="M71.391,23.886V38.093a14.031,14.031,0,0,1-15.4-15.756,124.969,124.969,0,0,1,15.4,1.548Z" transform="translate(-10.438 -4.173)" opacity="0.2"/>
      <circle id="Ellipse_28" cx="14.027" cy="14.027" r="14.027" transform="translate(46.929 5.947)" fill="#ff6584"/>
      <ellipse id="Ellipse_29" cx="2.373" cy="1.604" rx="2.373" ry="1.604" transform="matrix(0.839, -0.545, 0.545, 0.839, 71.601, 18.92)" fill="#3f3d56"/>
      <ellipse id="Ellipse_30" cx="0.813" cy="1.316" rx="0.813" ry="1.316" transform="translate(69.477 16.337)" fill="#3f3d56"/>
      <ellipse id="Ellipse_31" cx="0.813" cy="0.909" rx="0.813" ry="0.909" transform="translate(72.741 14.518)" fill="#3f3d56"/>
      <path id="Path_199" d="M73.332,6.619a6.091,6.091,0,0,1-.78-2.183" transform="translate(-13.553 -0.829)" fill="#3f3d56"/>
      <path id="Path_200" d="M73.934,5.563A6.09,6.09,0,0,1,74.95,3.48" transform="translate(-13.811 -0.65)" fill="#3f3d56"/>
    </g>
  </g>
</svg>
