<?xml version="1.0" encoding="UTF-8"?>
<svg width="118px" height="146px" viewBox="0 0 118 146" version="1.1" xmlns="http://www.w3.org/2000/svg" xmlns:xlink="http://www.w3.org/1999/xlink">
    <title>libretexts_logo</title>
    <g id="Page-1" stroke="none" stroke-width="1" fill="none" fill-rule="evenodd">
        <g id="libretexts_logo" transform="translate(0.189541, 0.949658)" fill="#000000">
            <path d="M81.5739042,0.771493329 C82.4071276,0.313574613 83.3229095,-0.35984006 84.2631469,0.232169908 C85.2189788,1.20078204 85.3477905,2.75873995 84.37839,3.76124858 C78.4332006,12.0787002 72.5151086,20.4170908 66.5768166,28.7352815 C64.2516056,31.9798365 62.5229334,35.6104076 60.1367284,38.8212139 C63.9872818,40.0472522 67.4513265,42.1538851 71.0442075,43.9556958 C85.0437566,51.196638 99.0627667,58.3971803 113.047782,65.6585689 C115.210285,66.606981 115.650914,69.5195425 114.667965,71.4635904 C114.03753,72.2832156 113.169819,72.858988 112.376675,73.5092539 C112.363117,77.3906 112.363117,81.271946 112.376675,85.1532921 C114.295178,86.5961103 116.816969,88.0864723 117,90.7484312 C116.925605,93.3088978 114.200361,94.4333205 112.370024,95.6661331 C112.370024,99.5947766 112.363245,103.523666 112.376803,107.45231 C113.901998,108.820487 116.010266,110.134691 116.105172,112.410658 C115.277959,114.713822 112.918975,115.885665 110.959851,117.09138 C94.9082826,125.876387 78.9224874,134.790722 62.876585,143.582873 C60.0227265,145.242421 56.4162969,145.059538 53.6437309,143.311922 C40.4989844,135.495035 27.3828135,127.617302 14.3129546,119.658276 C10.598135,117.321241 6.67983779,115.174134 3.48701434,112.112364 C1.73814228,110.473212 0.490820146,108.271664 0.239995917,105.860234 C-0.234456513,100.868137 -0.288897836,95.4084853 2.81598193,91.1682206 C0.38223311,87.422362 0.124627118,82.8367276 0.063615886,78.5082729 C-0.0516716205,74.2948594 1.23629675,70.1087898 3.45301931,66.5526136 C10.3540112,56.7504658 17.4446855,47.0776469 24.21019,37.181397 C25.2472848,35.7588033 26.5556995,34.5395394 28.0538459,33.6183233 C45.8568974,22.6987735 63.6577318,11.7797164 81.4457565,0.840212968 Z M106.785721,97.3800461 L82.6600012,110.858233 L58.5279304,124.331906 C45.0900384,116.704701 31.6280049,109.118143 18.1920836,101.47739 C16.1991863,100.407088 14.3349528,98.9371969 12.0572117,98.5240094 C10.5725648,98.1921883 9.46758576,99.5874874 9.42013313,100.948989 C9.10826565,104.261287 9.84039058,108.352565 13.0943065,110.039211 C26.7194176,118.05933 40.2915654,126.18094 53.9376155,134.173961 C56.8730127,136.016391 60.6284786,135.738691 63.5163321,133.950429 C77.9494411,125.801721 92.3603794,117.612366 106.786098,109.456761 L106.785721,97.3800461 Z M106.788192,76.9277009 C90.7095264,85.9092874 74.6227314,94.8844691 58.5497316,103.879851 C43.9811351,95.6096965 29.3583437,87.420342 14.824235,79.0955002 C13.6514063,78.4994293 12.3294676,77.8017182 10.9736815,78.1539609 C9.69921265,78.5402233 9.40094564,80.0574365 9.36027231,81.215731 C9.27897984,84.1691112 9.9298123,87.698116 12.6888295,89.323793 C25.887771,97.1744287 39.1337635,104.957321 52.3324586,112.814854 C54.4881872,114.074764 56.9013419,115.300803 59.4842255,114.955334 C61.4923181,114.685785 63.2573918,113.706439 64.9883739,112.697493 L65.7287453,112.265258 C66.0984965,112.050218 66.4680527,111.83828 66.8394699,111.636138 C80.1541915,104.083575 93.4679278,96.5512111 106.788562,89.0188477 C106.79534,84.9887118 106.788562,80.9583295 106.788192,76.9277009 Z M56.0864465,86.9466286 C54.2696829,87.6171437 52.6698224,88.7347921 51.0564132,89.7847213 C53.1375005,91.0582787 55.1305209,92.5823648 57.4760551,93.3342462 C59.3334649,92.7245773 60.9401983,91.5595084 62.6078272,90.5705485 C60.5333911,89.2158218 58.506548,87.6443151 56.0864465,86.9466286 Z M64.2206206,82.3819331 C62.3696649,82.9849508 60.7767019,84.1567941 59.1361952,85.1796259 C59.3971933,85.3371116 59.6569104,85.4987235 59.9162088,85.6624293 L61.473674,86.6534584 C62.7785414,87.4730343 64.1153591,88.2430219 65.5897829,88.7087046 C67.4336439,88.0854869 69.033603,86.9339667 70.6944575,85.9450068 C68.606719,84.6443519 66.5864778,83.1338146 64.2206206,82.3819331 Z M46.5624421,81.2634719 C45.3548548,81.5767681 44.2664964,82.1758198 43.2062947,82.8224891 L41.9417287,83.6061239 L41.3086574,83.9864987 C43.2542573,85.2463843 45.145539,86.655306 47.3351394,87.4749312 C49.3960267,87.2785975 51.0501315,85.7477371 52.8058764,84.7587772 C52.5525149,84.6029667 52.3002126,84.4442123 52.0482552,84.2840785 L50.5349096,83.319457 C49.2677324,82.5230372 47.9732853,81.7715745 46.5624421,81.2634719 Z M80.4850272,73.4888347 C79.4681816,73.2720794 78.6411415,74.0713815 77.7666562,74.4506971 C74.2553141,76.5436088 70.6488844,78.4809315 67.1372959,80.573991 C69.265927,81.8272253 71.2657711,83.5341948 73.7197691,84.069321 C77.4711041,82.3325803 81.0478286,80.2079927 84.5935112,78.0688067 L86.5253043,76.9027737 C86.363171,76.7983375 86.2012737,76.6931965 86.0394358,76.587727 L85.0677056,75.9539781 C83.6069353,75.0064728 82.1223315,74.0933181 80.4850272,73.4888347 Z M54.711372,76.7653623 C52.7320235,77.1447272 51.1253147,78.4926795 49.4305637,79.5019625 C51.3828148,80.7415249 53.3080915,82.0827276 55.4705944,82.9362 C57.483938,82.6585739 59.1108467,81.2022316 60.8191464,80.2064973 C58.8397979,78.9668117 56.8941981,77.6188347 54.711372,76.7653623 Z M37.1061322,75.7038797 C35.6705158,75.8807234 34.427522,76.6550124 33.2125376,77.4430154 L32.6066175,77.8354574 C32.3040623,78.0295473 32.0015431,78.2184138 31.6964877,78.3929361 C32.002064,78.5805114 32.3060363,78.7730572 32.6097128,78.9675151 L33.5211626,79.5535661 C34.8909303,80.4320712 36.2811955,81.2873594 37.8111596,81.8407223 C39.1126603,81.5426664 40.2665974,80.8773326 41.4014622,80.1818979 L42.0811204,79.7637223 C42.420833,79.5555259 42.7611421,79.3506896 43.1055167,79.1583171 C41.1734656,77.8983084 39.2889583,76.5029354 37.1061322,75.7038797 Z M62.7987413,72.382959 C61.514398,72.4472151 60.3922188,73.1004029 59.3041778,73.8118877 L58.7624095,74.1700316 C58.3123187,74.4684388 57.8644503,74.7616131 57.4095431,75.0111693 C57.7224338,75.1997868 58.0335567,75.3928938 58.3442453,75.5875305 L59.2763416,76.1730696 C60.676532,77.0493823 62.0949304,77.8967337 63.6530513,78.4454067 C65.5511074,77.9577997 67.1441688,76.7385358 68.8185721,75.769899 C66.8729722,74.5437622 64.9815674,73.1551636 62.7987413,72.382959 Z M44.7523051,71.2177669 C42.962639,71.8138624 41.3966504,72.9044379 39.7764668,73.8324284 C41.7560616,75.1194114 43.7083866,76.5486563 45.9522313,77.3344096 C47.3129124,76.9618367 48.5317465,76.2471391 49.719946,75.4964025 L50.4300792,75.0440846 C50.666158,74.8935028 50.9019012,74.7439282 51.1381983,74.5978094 C50.6484728,74.3204934 50.1670202,74.0150498 49.6861524,73.7033622 L48.9643284,73.2338832 C47.6382648,72.374616 46.2875533,71.5508748 44.7523051,71.2177669 Z M27.6074763,70.0205505 C25.6549789,70.5015063 24.0144968,71.7410934 22.3333192,72.7706995 C24.2789191,74.010385 26.1905239,75.3515877 28.3462524,76.2118345 C30.3460473,75.8527927 31.9797303,74.4845172 33.6948044,73.4752342 C33.5309673,73.370798 33.36732,73.26561 33.2037056,73.1600346 L32.221159,72.5248494 C30.7441648,71.5738464 29.2444111,70.6505117 27.6074763,70.0205505 Z M87.9407787,68.9563581 C86.1171175,69.5049345 84.5580265,70.6496803 82.9378428,71.6183171 C85.0122789,72.8580027 87.0119752,74.3075706 89.3168385,75.0730008 C90.598133,74.7025971 91.742881,74.0237271 92.8703819,73.3218673 L93.6208032,72.8536877 C93.8709647,72.6985811 94.1215837,72.545472 94.3739693,72.3974931 C92.2997796,71.1442588 90.2795385,69.6879165 87.9407787,68.9563581 Z M70.4518117,67.8724585 C68.5739556,68.3466399 66.9945661,69.5591295 65.3269372,70.5006688 C65.6017222,70.6695567 65.8754189,70.842419 66.1489922,71.0168953 L66.9703071,71.5428057 C68.4789108,72.5071972 70.012972,73.4490121 71.7330304,73.9755525 C73.5362452,73.3592323 75.1090329,72.2551328 76.7088687,71.2593985 C74.6750789,70.0535848 72.7160042,68.6311143 70.4518117,67.8724585 Z M52.7046796,66.7688516 C50.9490086,67.4259165 49.3762209,68.4826201 47.7899338,69.4783543 C49.8234773,70.6772705 51.7691264,72.1403872 54.0400933,72.8583968 C55.8773031,72.3029229 57.4702661,71.1785002 59.1107728,70.2166378 C58.8540241,70.0574585 58.5985459,69.8939394 58.3433851,69.7284355 L57.1940859,68.9782183 C55.7841401,68.0643403 54.3405382,67.1972799 52.7046796,66.7688516 Z M35.695092,65.6111482 C34.3342898,65.8346179 33.1464163,66.554378 31.9839735,67.2993659 L31.3515493,67.7053935 C31.0357117,67.906827 30.7197709,68.1037664 30.4007349,68.286656 C32.386981,69.5126696 34.3190075,70.9080426 36.5289556,71.7073447 C37.7364445,71.4236832 38.8195065,70.8278094 39.8757421,70.1843179 L41.136613,69.4062011 L41.7691177,69.0317384 C39.8099691,67.792176 37.8982658,66.3832543 35.695092,65.6111482 Z M95.4121481,64.6084425 C93.7513183,65.2518848 92.2667946,66.2543934 90.7415261,67.1485121 C91.1713415,67.3978041 91.5968116,67.6695801 92.022656,67.9476386 L92.6622935,68.367413 C94.1581896,69.34843 95.6875818,70.307173 97.4528355,70.5490008 C99.1136654,69.9122591 100.584788,68.882653 102.062611,67.9207906 C101.669427,67.7077304 101.280972,67.4765272 100.89365,67.2383033 L99.731636,66.5136671 C98.3718346,65.6696049 96.9827926,64.8756977 95.4121481,64.6084425 Z M78.4650325,63.5639574 C77.1499009,63.6542003 76.0125398,64.3556312 74.8982764,65.0781488 L74.3423534,65.4384329 C73.9720666,65.6761512 73.6014818,65.9052847 73.2248704,66.1039777 C75.3128553,67.3165658 77.2650817,68.9625659 79.6580611,69.4909177 C81.4068346,68.9152685 82.9254273,67.8314674 84.5117144,66.9102512 C82.5661145,65.6908888 80.6611856,64.3090645 78.4650325,63.5639574 Z M60.750171,62.4061556 C59.6020996,62.7363754 58.5571711,63.3073688 57.5344379,63.9190577 L56.312612,64.6598046 L55.6999377,65.0208171 C57.7945738,66.2197333 59.7604475,67.9334771 62.1873234,68.3873108 C63.4494842,67.9537868 64.5968803,67.2623028 65.726016,66.5525845 L66.5709519,66.0206225 L66.9936792,65.7591005 C66.7041232,65.586859 66.4162252,65.4097787 66.1287999,65.2307034 L65.2667568,64.6903362 C63.8284309,63.7892286 62.3722902,62.9093419 60.750171,62.4061556 Z M43.1986335,61.2210099 C41.4905062,61.8509772 39.9718889,62.8602602 38.3991752,63.7679277 C38.68391,63.9508322 38.9678118,64.1367758 39.2518889,64.3234087 L40.1056549,64.8830257 C41.5328366,65.8113349 42.9896133,66.6981342 44.6020372,67.2497089 C46.4732421,66.72823 48.0729794,65.5428379 49.7067118,64.5335549 C49.1519263,64.2251816 48.6065185,63.8750566 48.0597449,63.5198441 L47.4022733,63.0934936 C46.0832686,62.2452949 44.7316436,61.4522668 43.1986335,61.2210099 Z M85.9064961,59.1470664 C84.11683,59.6820694 82.5712631,60.8065168 80.9646528,61.7141842 C82.9981963,62.9606441 84.9912661,64.3763402 87.282556,65.1282217 C88.5450906,64.753128 89.6775844,64.0955432 90.7858251,63.3982346 L91.8898994,62.6966761 L92.2583943,62.4662627 C90.1908558,61.2807721 88.2113594,59.8379786 85.9064961,59.1470664 Z M69.9776057,58.5984654 C67.6659433,57.2774874 65.5509596,59.7703087 63.5850612,60.7186224 C65.5782048,61.9108873 67.5236815,63.2385166 69.713282,64.0513674 C71.5709381,63.5434373 73.1639011,62.4122402 74.8044078,61.4571522 C73.231768,60.4478199 71.6590296,59.4250128 69.9776057,58.5984654 Z M51.3608904,56.7895847 C49.5305781,57.3313868 47.9579383,58.4558095 46.3242059,59.4108975 C46.7336244,59.65477 47.1389841,59.9100185 47.544025,60.1677566 L48.3547897,60.6839193 C49.7090493,61.5409464 51.0874685,62.3598106 52.6285603,62.8113862 C53.8351377,62.4276201 54.9333251,61.8029545 56.0154547,61.1541913 L56.8254838,60.6664881 C57.0954517,60.5046726 57.3658586,60.3447386 57.6381474,60.1900735 C55.6181526,58.9436136 53.6521804,57.4940456 51.3608904,56.7895847 Z M76.4231134,53.7891535 C74.5723547,54.2699861 72.9861662,55.3876345 71.3524338,56.3291737 C73.4268699,57.548413 75.3859939,59.1605413 77.7789733,59.66857 C79.5008956,59.0725976 81.0057425,58.0226684 82.5377853,57.060806 C80.5446417,55.8889873 78.599165,54.5884556 76.4231134,53.7891535 Z M59.4827475,52.5303519 C57.5033989,52.6590649 55.9170133,54.1628279 54.2290367,55.0908184 C56.1679853,56.2898577 58.0795901,57.5971639 60.2353187,58.3829172 C62.1742673,58.0780704 63.7604559,56.7504412 65.407737,55.7682557 C65.2321184,55.6629472 65.0568892,55.556632 64.8818462,55.4497629 L63.8321936,54.805524 C62.4312953,53.9473369 61.0162728,53.1116625 59.4827475,52.5303519 Z M66.960571,48.1750461 C65.8207767,48.488367 64.7869828,49.0477084 63.7763695,49.6497408 L62.5694473,50.379624 L61.9643849,50.7355126 C64.0252723,51.9412031 65.9844209,53.4652892 68.3231807,54.0749088 C70.0788517,53.4992596 71.5973212,52.4086841 73.176834,51.4806936 C71.1499416,50.3019774 69.2042679,48.8930557 66.960571,48.1750461 Z" id="Combined-Shape"></path>
        </g>
    </g>
</svg>