<?xml version="1.0" encoding="UTF-8"?>
<svg width="261px" height="89px" viewBox="0 0 261 89" version="1.1" xmlns="http://www.w3.org/2000/svg" xmlns:xlink="http://www.w3.org/1999/xlink">
    <title>LibreTexts-ADAPT-logo-vector</title>
    <defs>
        <polygon id="path-1" points="261 0 261 89 0 89 0 0"></polygon>
        <polygon id="path-3" points="76 0 76 19 0 19 0 0"></polygon>
        <path d="M19.2103595,0.823535294 L19.5077722,0.983337544 C19.8032177,1.14285493 20.0926147,1.2993168 20.3746426,1.43291499 C24.1632171,3.72166316 28.1703632,5.6616497 31.8277948,8.15384212 C33.7585107,9.3527102 33.488939,11.8521685 33.5545105,13.8066868 C33.4743676,17.9336994 33.6783677,22.0679778 33.4597961,26.1949904 C33.4160818,28.345687 31.2449372,29.3556426 29.6785073,30.3438005 C25.9263614,32.3927751 22.3126442,34.7033208 18.4803553,36.5997122 C16.5334687,37.617288 14.6479408,36.493162 12.9073483,35.4701799 L12.5924926,35.2857969 C12.2792712,35.103527 11.9710085,34.9290944 11.6682069,34.7759795 C8.35320416,32.7488026 4.82691556,31.0776531 1.62848437,28.8615636 C0.133454581,27.9367225 0.0171923275,26.2335736 0.0120490763,24.6160386 L0.0122200253,24.2583468 L0.0124720942,24.1696111 L0.0125733084,23.7317025 C0.011744393,23.5587914 0.00938917242,23.3889124 0.00376875972,23.2232507 C0.105768844,19.0817064 -0.134659925,14.9328962 0.127626004,10.8058836 C0.200483207,8.45174267 2.70677097,7.49991407 4.40434379,6.42456575 C8.16377544,4.43371814 11.7192069,2.0287161 15.5952101,0.26311038 C16.8330775,-0.34605055 18.0629238,0.212680272 19.2103595,0.823535294 Z M24.1632171,15.8629272 C24.6222175,19.2197578 23.8062168,23.0270723 20.7607857,24.9525271 C17.7444976,27.1395531 13.7373514,26.3112442 10.8376348,24.3785236 C11.5006353,23.8771787 12.1636359,23.3830997 12.8266364,22.8962866 C10.910492,22.4603346 8.99434754,22.0098508 7.08548884,21.566633 L8.49163285,27.088692 C8.84863314,26.6309424 9.21291915,26.1659269 9.56991944,25.7009114 C12.5424933,28.0405206 16.7099253,29.1812618 20.258071,27.4447195 C24.5712174,25.6863796 26.7787907,20.8255145 26.2032188,16.3570062 L24.1632171,15.8629272 Z M11.5297782,9.30184913 C7.82134658,11.3798871 6.17477381,15.7902685 6.62648846,19.8809518 C7.13648888,20.0044715 8.15648972,20.2587769 8.66649013,20.3822966 C8.21477548,17.025466 9.03077614,13.1890881 12.1053501,11.2854309 C15.0997811,9.12746832 19.0777844,9.92671371 21.9483581,11.8884979 C21.2926433,12.3825768 20.6296428,12.8766558 19.973928,13.3634689 C21.8900724,13.7994209 23.8062168,14.2571706 25.7150755,14.7076543 C25.2487894,12.8475923 24.7752176,10.9875303 24.3016458,9.12746832 C23.9373598,9.59974969 23.565788,10.0647652 23.201502,10.5297807 C19.9957851,7.84867569 15.1872098,7.013101 11.5297782,9.30184913 Z" id="path-5"></path>
        <polygon id="path-7" points="33.5646899 0 33.5646899 37.0000001 0 37.0000001 0 0"></polygon>
        <path d="M10.2145798,1.58029513 C13.5587254,4.23960252 13.646154,9.80525682 10.9722947,12.9586432 C8.71248131,15.2408984 5.50898407,15.384262 2.43883035,15.3384067 L1.94230651,15.32962 C1.28228676,15.3165141 0.631222401,15.2994891 0,15.2982524 L0,0.0399312866 C0.475595627,0.0469953242 0.95835892,0.0417253279 1.44514719,0.032978598 L2.03102397,0.0213805572 L2.61955795,0.00984605528 C5.27212931,-0.0368144356 7.96875652,0.0217666186 10.2145798,1.58029513 Z M3.20571691,2.87361949 C3.20571691,6.07786692 3.20571691,9.28211438 3.21300263,12.4863618 C3.57628372,12.4442698 3.95578224,12.4251937 4.34065791,12.408091 L4.72692445,12.3908667 C6.08232025,12.3274285 7.4593214,12.2022413 8.39314973,11.1131129 C9.85029378,9.31117785 9.83572234,6.51381895 8.73557858,4.53750308 C7.8837922,3.14309768 6.31509341,2.99004935 4.79412701,2.9402934 L4.43040303,2.92975249 C4.00804109,2.91840891 3.59421722,2.90802551 3.20571691,2.87361949 Z" id="path-9"></path>
        <polygon id="path-11" points="12.8613377 0 12.8613377 15.3448014 0 15.3448014 0 0"></polygon>
        <path d="M5.51529023,0 C6.82671987,0.0217976016 8.14543524,0.0435952031 9.4641506,0.0726586719 C11.2710092,5.16603157 13.150725,10.2376069 14.9648694,15.3237139 C13.7991542,15.2946504 12.6334389,15.265587 11.4750094,15.2292576 C11.1107234,14.0376554 10.7464374,12.8460532 10.3894371,11.654451 C8.45872121,11.6617168 6.53529106,11.6617168 4.6045752,11.654451 C4.20386058,12.8678508 3.80314597,14.0812506 3.40243136,15.3019163 C2.265859,15.2946504 1.12928664,15.2873846 0,15.2873846 C1.85057294,10.1940117 3.69386017,5.10063877 5.51529023,0 Z M7.47514897,2.37593857 C6.79757699,4.49757179 6.12000501,6.61193914 5.42057586,8.7263065 C6.81943415,8.7263065 8.22557816,8.7481041 9.63172217,8.7481041 C8.90315014,6.62647088 8.18914956,4.49757179 7.47514897,2.37593857 Z" id="path-13"></path>
        <polygon id="path-15" points="14.9648694 0 14.9648694 15.3237139 0 15.3237139 0 0"></polygon>
        <path d="M5.51529023,0 C6.82671987,0.0217976016 8.14543524,0.0435952031 9.4641506,0.0726586719 C11.2710092,5.16603157 13.150725,10.2376069 14.9648694,15.3237139 C13.7991542,15.2946504 12.6334389,15.265587 11.4750094,15.2292576 C11.1107234,14.0376554 10.7464374,12.8460532 10.3894371,11.654451 C8.45872121,11.6617168 6.53529106,11.6617168 4.6045752,11.654451 C4.20386058,12.8678508 3.80314597,14.0812506 3.40243136,15.3019163 C2.265859,15.2946504 1.12928664,15.2873846 0,15.2873846 C1.85057294,10.1940117 3.69386017,5.10063877 5.51529023,0 Z M7.47514897,2.37593857 C6.79757699,4.49757179 6.12000501,6.61193914 5.42057586,8.7263065 C6.81943415,8.7263065 8.22557816,8.7481041 9.63172217,8.7481041 C8.90315014,6.62647088 8.18914956,4.49757179 7.47514897,2.37593857 Z" id="path-17"></path>
        <polygon id="path-19" points="14.9648694 0 14.9648694 15.3237139 0 15.3237139 0 0"></polygon>
        <path d="M8.44414977,0.845835919 C11.0232947,2.27721176 11.2200092,6.06999443 9.58800785,8.29334982 C8.02886371,10.2042729 5.34043294,10.1897412 3.09643111,10.3568561 C3.11100255,12.006208 3.11100255,13.6555598 3.11828827,15.3049117 L0,15.3049117 C0.00728572025,10.2188046 0.00728572025,5.13269756 0,0.0538563936 C0.703072004,0.0792869287 1.41843866,0.0606681441 2.13699282,0.0386434842 L2.75346459,0.0198790644 C4.70675185,-0.0361791928 6.66435239,-0.0317770411 8.44414977,0.845835919 Z M3.11828827,2.83005527 C3.11100255,4.37704737 3.11100255,5.93194295 3.11828827,7.48683856 C3.44468853,7.43307114 3.81392884,7.39906688 4.19570058,7.36029622 L4.45173898,7.33347376 C5.90937394,7.17442777 7.4497299,6.86956274 7.43872037,5.09636823 C7.48718622,3.30801717 6.01518153,3.02408521 4.56723161,2.92430091 L4.31227512,2.90833476 C3.93115806,2.88644668 3.55809259,2.8720199 3.22172616,2.84056638 L3.11828827,2.83005527 Z" id="path-21"></path>
        <polygon id="path-23" points="10.6355507 0 10.6355507 15.3049117 0 15.3049117 0 0"></polygon>
        <path d="M11.6571524,0.00511665223 L11.6571524,2.91146353 C10.2364369,2.91146353 8.82300722,2.91146353 7.40229177,2.9187294 C7.40957749,7.03121023 7.40957749,11.143691 7.40957749,15.2634377 L4.15286054,15.2634377 C4.15286054,11.143691 4.15286054,7.03121023 4.16014626,2.91146353 L0,2.91146353 L0,0.00511665223 C3.89057461,-0.00941508215 7.7738635,0.0123825194 11.6571524,0.00511665223 Z" id="path-25"></path>
        <polygon id="path-27" points="11.6571524 0 11.6571524 15.2634377 0 15.2634377 0 0"></polygon>
        <path d="M42.1884512,0.168719527 C43.0387795,0.509684771 43.4928383,1.45283863 43.4240415,2.33824838 C43.4240415,3.85334394 42.1279101,4.86799052 41.3959123,6.07236775 C46.0190564,8.74234559 50.6504561,11.4013246 55.2708483,14.0768018 C56.883445,15.0557021 58.5841016,16.0950961 59.5802791,17.7531771 C60.6012234,19.4800011 60.6287421,21.5587892 60.6700202,23.5055907 C60.6700202,30.9270842 60.6865314,38.3485777 60.6810277,45.7700712 C60.6480052,47.6838762 60.6562608,49.7104196 59.7371357,51.4482424 C58.7629732,53.2053133 56.9660012,54.258456 55.298367,55.2648534 C48.7846872,59.0237203 42.2710074,62.7770877 35.7518238,66.5277053 C34.0924453,67.4378626 32.3505107,68.4250119 30.4049375,68.4609375 C28.445605,68.4717572 26.6871591,67.4763586 25.0222769,66.560702 C18.4508077,62.7770877 11.8820905,58.9879739 5.31612512,55.1933607 C3.70628029,54.2144605 1.95609002,53.2245614 0.976423773,51.5472324 C-0.146339796,49.4546957 0.0600505656,46.9854474 0.0105168787,44.6894314 C0.0187724932,37.4466697 -0.0114980932,30.2011582 0.00501313572,22.9556468 C0.0462912081,21.2535703 0.0628024371,19.460753 0.869100784,17.9154106 C1.94233067,16.0696612 3.77714098,14.9787099 5.60614657,13.9418937 L6.21454746,13.5973322 C6.61860118,13.3676797 7.01815763,13.136856 7.40479558,12.8971721 C13.4534091,9.41602692 19.493767,5.91838345 25.5506362,2.44823717 C27.2100147,1.55182854 29.0042349,0.52343337 30.9663193,0.770908144 C32.7770507,1.0431304 34.3538731,2.05227753 35.9361992,2.91568952 C37.1855489,2.14026856 38.4183873,1.34010012 39.6704888,0.567428885 C40.4024866,0.105475973 41.3491304,-0.210741793 42.1884512,0.168719527 Z M40.4217497,1.87079603 C33.2008389,6.31159336 25.9744244,10.7441415 18.7480099,15.1766897 C18.1398463,15.5506516 17.6087351,16.0456011 17.1876987,16.6230423 C14.441331,20.6403828 11.5628734,24.5669825 8.76146822,28.545827 C7.86160625,29.9894298 7.33875066,31.6887566 7.38553248,33.3990823 C7.41029932,35.1561531 7.51487044,37.0177134 8.5027923,38.5383084 C7.24243516,40.2596329 7.26445013,42.475907 7.45708114,44.5024505 C7.55890038,45.4813507 8.06524474,46.3750096 8.77522758,47.0404417 C10.0713591,48.2833151 11.6619408,49.1549762 13.1699664,50.1036295 C18.4755746,53.3345502 23.8004459,56.5324742 29.1363248,59.7056507 C30.2618402,60.4150784 31.7258358,60.4893209 32.8843737,59.8156395 C39.3980535,56.2465033 45.8869665,52.6278722 52.4033982,49.0614857 C53.1986891,48.5720356 54.1563404,48.0963341 54.4920687,47.1614294 C54.4535425,46.2375236 53.5977104,45.704078 52.9785394,45.1486346 C52.9730356,43.5537972 52.9757875,41.9589597 52.9757875,40.3641223 C53.7187928,39.8636733 54.8250451,39.4072198 54.8553157,38.3678258 C54.7810152,37.2871859 53.757319,36.6822476 52.9785394,36.0965573 C52.9730356,34.5209679 52.9730356,32.9453785 52.9785394,31.3697891 C53.3005083,31.105816 53.6527479,30.8720898 53.9086719,30.5393738 C54.3076933,29.7502042 54.1288216,28.5678247 53.2509746,28.182864 C47.5738638,25.2351644 41.8829935,22.3122124 36.2003789,19.372762 C34.741887,18.6413366 33.3356807,17.7861737 31.7726176,17.2884745 C32.7412764,15.9851073 33.4430036,14.5112575 34.3868956,13.1941418 C36.797535,9.817486 39.1999188,6.43258103 41.6133101,3.05592522 C42.0068277,2.64896671 41.9545422,2.01653117 41.5665283,1.62332125 C41.164755,1.37034704 40.7739893,1.68656481 40.4217497,1.87079603 Z" id="path-29"></path>
        <polygon id="path-31" points="5.58629913 0 5.58629913 5.5654327 0 5.5654327 0 0"></polygon>
        <path d="M5.39917187,0 C5.39642,3.4453988 5.4349462,6.8907976 5.42118684,10.3361964 C6.93196429,9.29680235 8.73994386,8.66986625 10.5892015,8.75235784 C14.2519425,8.86234663 17.5624439,11.2985983 19.2686042,14.4580262 C21.9434233,19.2067922 20.7683742,25.8473653 16.4094097,29.1992736 C13.3355693,31.6492739 8.57758344,32.1084771 5.35514192,29.6832243 C5.35514192,30.0406879 5.3578938,30.4009011 5.36064567,30.7611144 L0,30.7611144 L0,0 L5.39917187,0 Z M5.37165315,14.6505066 C5.33863069,18.1179032 5.37165315,21.5852997 5.35514192,25.0526963 C7.33924127,26.8895091 10.5726903,27.1589816 12.7521725,25.5201487 C15.1903306,23.7025839 15.7764793,20.2021907 14.840843,17.4359727 C14.21892,15.5221678 12.570549,13.9493281 10.5671865,13.5863651 C8.77021445,13.1821563 6.92370867,13.7485986 5.37165315,14.6505066 Z" id="path-33"></path>
        <path d="M2.02812929,0 C2.93899875,0.29147029 3.72878587,0.86341199 4.55159545,1.34186322 C3.91040939,1.71857482 3.29399018,2.16127969 2.58125546,2.39500587 C1.63185979,2.1475311 0.836568934,1.52884416 0,1.03939405 L0.24561528,0.894920985 L0.735555901,0.598627945 C1.14581049,0.354241235 1.5654709,0.127174537 2.02812929,0 Z" id="path-35"></path>
        <path d="M5.88350125,0.00122209765 L5.88350125,24.0612696 L20.1354437,24.0612696 L20.1354437,29.6157034 L0,29.6157034 L0,0.00122209765 C1.9593325,-0.00152762206 3.92141688,0.00122209765 5.88350125,0.00122209765 Z" id="path-37"></path>
        <polygon id="path-39" points="22.2901591 0 22.2901591 5.11447867 14.0675671 5.11447867 14.0675671 29.6144813 8.22259202 29.6144813 8.22259202 5.11447867 0 5.11447867 0 0"></polygon>
        <path d="M2.13270041,0 C2.98853244,0.324466926 3.75355272,0.844163952 4.53783609,1.31436602 C3.86913132,1.71307538 3.22519339,2.25202044 2.43815814,2.37575783 C1.56306301,2.05679034 0.787035247,1.52609444 0,1.03939405 C0.685216002,0.662682451 1.32915393,0.0522446745 2.13270041,0 Z" id="path-41"></path>
        <path d="M7.68444826,0 C7.68169639,2.00729539 7.68169639,4.0173405 7.68444826,6.02463589 C9.60250269,6.05763253 11.5205571,6.08787944 13.4413634,6.12087608 C12.2883293,7.64972024 11.1352951,9.18131412 9.98501283,10.7101583 C9.21448881,10.7569035 8.44946854,10.7981493 7.68444826,10.8448945 C7.70095949,14.2105515 7.6514258,17.5789581 7.70371136,20.9418653 C7.64317019,22.1874884 8.66411451,23.3808667 9.96574973,23.2488802 C11.9140747,23.0481506 13.8156179,22.533953 15.741928,22.1874884 C14.4815708,23.8043236 13.578957,25.7538748 11.9470972,27.0462431 C10.3427561,28.3358616 8.12199583,28.1791276 6.25072321,27.6896775 C4.86102811,27.3294642 3.66396401,26.3258165 3.11358971,24.9949522 C2.44763681,23.4606086 2.34031382,21.7530326 2.32380259,20.1004511 C2.32380259,17.0152656 2.32655446,13.9300801 2.32380259,10.8448945 L0.001223054,10.7101583 C0.001223054,10.0722233 -0.0015288175,9.43428833 0.001223054,8.79635336 C2.16969779,5.86515215 4.34918001,2.94494981 6.51490288,0.0109988788 C6.90291676,0.00549943942 7.29093064,0.00274971971 7.68444826,0 Z" id="path-43"></path>
        <path d="M2.05839988,0 C2.94175063,0.324466926 3.73153774,0.852413111 4.54058796,1.32811462 C3.918665,1.71857482 3.30774953,2.14478138 2.60877417,2.38675671 C1.63736354,2.18052773 0.842072677,1.52609444 0,1.03114489 C0.66320103,0.648933852 1.30713896,0.1952301 2.05839988,0 Z" id="path-45"></path>
        <path d="M2.04464052,0 C2.97477308,0.28597085 3.77281582,0.874410869 4.59287352,1.3803593 C3.92967249,1.7570709 3.29399018,2.21077465 2.55924049,2.44450082 C1.62085231,2.16952885 0.831065191,1.55909108 0,1.06414153 C0.66320103,0.676431049 1.30163522,0.219977577 2.04464052,0 Z" id="path-47"></path>
        <path d="M2.59501482,0.153356945 C3.27747895,0.48882275 3.91591313,0.904030427 4.55434732,1.31373866 C3.88839442,1.70144914 3.24170462,2.16065234 2.48769183,2.36688131 C1.59883734,2.03691495 0.809050219,1.49796988 0,1.01401922 C0.798042733,0.629058456 1.65662664,-0.382838399 2.59501482,0.153356945 Z" id="path-49"></path>
        <path d="M2.00611432,0 C2.94175063,0.280471411 3.7452971,0.866161709 4.58461791,1.34736266 C3.93517623,1.74882174 3.30499766,2.20802493 2.56474423,2.42800251 C1.63461167,2.12278362 0.825561448,1.5480922 0,1.04214377 C0.652193544,0.67368133 1.27962024,0.217227857 2.00611432,0 Z" id="path-51"></path>
        <path d="M1.94832502,0 C2.93349501,0.148484864 3.73428961,0.868911429 4.59012165,1.34461294 C3.92692062,1.75432118 3.27747895,2.23552213 2.51796242,2.44725054 C1.60158921,2.1337825 0.809050219,1.55359164 0,1.03389461 C0.638434186,0.66543217 1.2548534,0.255723933 1.94832502,0 Z" id="path-53"></path>
        <path d="M2.05014426,0 C2.97202121,0.28597085 3.76180833,0.871661149 4.58461791,1.36111126 C3.95443933,1.74607202 3.33802012,2.18602717 2.63354102,2.42800251 C1.64837102,2.24377129 0.850328291,1.5480922 0,1.06139181 L0.248705761,0.914845712 L0.744698349,0.614148824 C1.15987084,0.365841615 1.58404603,0.134048836 2.05014426,0 Z" id="path-55"></path>
        <path d="M2.12719666,0 C3.01880303,0.302469168 3.79207892,0.86341199 4.58186603,1.35836154 C3.93792811,1.73232342 3.32150889,2.17227857 2.61152605,2.40600475 C1.64011541,2.19152661 0.84757642,1.52334472 0,1.03114489 C0.687967873,0.66818189 1.32640206,0.0549943942 2.12719666,0 Z" id="path-57"></path>
        <path d="M1.89603946,0 C2.53347296,0.108488941 3.09735645,0.430774272 3.64938683,0.773406701 L4.12109193,1.06756267 C4.27831869,1.16426769 4.43601685,1.25812176 4.59562539,1.34461294 C3.99571741,1.73507314 3.39856129,2.15303053 2.72435278,2.41150419 C1.70065658,2.27126848 0.872343263,1.53709332 0,1.03114489 C0.619171086,0.66818189 1.22183094,0.261223373 1.89603946,0 Z" id="path-59"></path>
        <path d="M2.14921164,0 C3.04356987,0.313468047 3.81959763,0.885409747 4.61488849,1.38860845 L4.35813136,1.5406164 L3.84629401,1.85649045 C3.41752341,2.11771382 2.97786894,2.35960323 2.48769183,2.47474774 C1.59058172,2.15028082 0.806298347,1.58383855 0,1.08613929 C0.690719745,0.690179648 1.34566516,0.131986546 2.14921164,0 Z" id="path-61"></path>
        <path d="M1.99510683,0 C2.96101373,0.252974214 3.76180833,0.882660028 4.59562539,1.39960733 C3.92967249,1.79006753 3.28298269,2.24652101 2.53722552,2.47199802 C1.61534857,2.18052773 0.825561448,1.58658827 0,1.09988788 C0.643937929,0.695679087 1.28237212,0.266722812 1.99510683,0 Z" id="path-63"></path>
        <path d="M15.4545103,2.76740045 C14.4996109,4.27149714 13.5419596,5.7728441 12.5953158,7.28244022 C11.4835597,6.24854561 10.192932,4.93692931 8.52529788,5.18990352 C6.56596538,5.48962297 5.41293123,7.54091387 5.37990877,9.3859758 C5.32762321,13.5820481 5.37440502,17.7808701 5.3578938,21.9796921 L0,21.9796921 L0,0.556625805 L5.36064567,0.556625805 C5.3578938,1.31004901 5.35514192,2.06072249 5.34688631,2.81139597 C6.39534935,1.47228247 7.77678884,0.168915325 9.56550531,0.0341790591 C11.8798292,-0.243542632 13.9052067,1.21655854 15.4545103,2.76740045 Z" id="path-65"></path>
        <path d="M21.4663163,5.60644724 C22.9000413,7.94095927 23.1944916,10.7896689 22.7872146,13.456897 C17.0385551,13.4623965 11.2898955,13.4541473 5.54123597,13.4623965 C6.12463272,14.9637434 7.05201342,16.4073463 8.51600905,17.1800175 C11.2100912,18.6676159 14.6691937,17.9581882 17.0413069,16.1571218 C18.1558149,17.2817571 19.2840822,18.3926439 20.4040939,19.5145295 C17.9741914,21.3513423 15.0131776,22.5144737 11.9448409,22.5337218 C7.89408609,22.7344513 3.7910457,20.6446643 1.67760839,17.1662689 C-0.174401124,14.2405671 -0.510129446,10.4349551 0.755731441,7.21778299 C2.00232923,3.97036401 4.86152371,1.45712019 8.18028073,0.472720534 C13.0923713,-1.02862643 18.882309,1.14365214 21.4663163,5.60644724 Z M8.52426466,5.4057177 C7.07127652,6.20313641 6.10812149,7.63299066 5.54123597,9.15633539 C9.48741969,9.16183483 13.4336034,9.16458454 17.3797871,9.15358567 C16.9174727,7.97120619 16.2817904,6.81357419 15.2608461,6.01890519 C13.4280997,4.45156496 10.6074314,4.18484215 8.52426466,5.4057177 Z" id="path-67"></path>
        <path d="M18.5720746,2.37855033 C20.9662028,4.15211955 22.5980625,6.93758562 22.8897609,9.91003263 C23.0328582,11.0869127 22.9172796,12.2747916 22.7879417,13.4489219 C17.042034,13.4599208 11.2933745,13.4461722 5.54746678,13.4571711 C6.21892342,15.370976 7.65264847,17.0840514 9.65050717,17.6697417 C11.967583,18.3379235 14.6809283,17.911717 16.5384415,16.3251287 C17.6859719,17.342525 18.841758,18.3544219 19.9837846,19.382817 C18.1180158,20.8676657 15.9880672,22.248025 13.5499091,22.454254 C11.3979456,22.6549835 9.16342592,22.5532439 7.14630412,21.7145794 C4.50450748,20.6751853 2.2727397,18.6266441 1.07292373,16.0529065 C-0.440605588,12.9127266 -0.349793829,9.04937036 1.32609591,5.99168204 C2.97997068,2.87899932 6.18314909,0.673724113 9.65876279,0.137528769 C12.7738813,-0.35192134 16.056864,0.481243733 18.5720746,2.37855033 Z M8.64882595,5.33174931 C7.1380485,6.11816914 6.11435231,7.57552059 5.54746678,9.14836027 C9.4936505,9.15935915 13.4370823,9.15935915 17.3832661,9.14836027 C16.912696,7.96323107 16.2797656,6.79734991 15.2505657,6.00543064 C13.4535936,4.48208591 10.7154814,4.18786591 8.64882595,5.33174931 Z" id="path-69"></path>
        <path d="M12.3778302,0.749483783 C13.9491489,1.35442212 15.2700472,2.45431 16.3928107,3.68893416 C15.3333402,4.76407456 14.2628622,5.82821609 13.2088954,6.90885594 C12.1851992,5.80621833 10.9523608,4.77507344 9.41956839,4.53034839 C8.11793317,4.31587025 6.56587765,4.52759867 5.66051193,5.5779916 C5.14040822,6.18842937 5.34129484,7.15358099 5.99073651,7.58803671 C7.66937812,8.79516366 9.79382291,9.04263844 11.6458324,9.89230183 C13.3327296,10.6429753 14.9700932,11.7428632 15.8837145,13.392695 C16.9129145,15.257005 16.6955166,17.7262533 15.3856258,19.4008326 C13.9766676,21.270642 11.6595918,22.2275445 9.3892978,22.5025164 C7.75193426,22.7252437 6.1173226,22.3347835 4.5432521,21.9223256 C3.40122543,21.6693514 2.53438591,20.8416857 1.58499025,20.2202491 L3.97636658,16.4421342 C5.31927986,17.0443228 6.63467444,17.7922466 8.09867007,18.0672185 C9.23794487,18.1304621 10.8945715,17.8334924 11.1504956,16.4998783 C11.3376228,15.4934809 10.4267534,14.7923024 9.61495126,14.4375885 C7.33915354,13.3569487 4.70286065,13.0572292 2.660972,11.4871393 C1.10616461,10.3707531 -0.0633807746,8.57518608 0.00266414122,6.60913649 C-0.0551251601,4.50835063 1.2327507,2.56979823 2.98294097,1.49190811 C5.75407556,-0.234915874 9.35902721,-0.435645413 12.3778302,0.749483783 Z" id="path-71"></path>
        <path d="M2.08041485,0 C2.99953993,0.307968608 3.79483079,0.885409747 4.62039224,1.37485986 C3.97095056,1.77906865 3.33251638,2.22727297 2.60051856,2.47749746 C1.64837102,2.18602717 0.836568934,1.58108883 0,1.06689125 C0.676960387,0.684680208 1.31814644,0.19248038 2.08041485,0 Z" id="path-73"></path>
        <polygon id="path-75" points="5.42944245 0 5.42944245 21.4588126 0 21.4588126 0 0"></polygon>
        <path d="M6.69530334,0 C8.01069791,2.00179595 9.32609249,4.0035919 10.6414871,6.00538785 C11.9431223,4.0035919 13.2475094,2.00179595 14.5491446,0 L20.6500437,0 C18.2944417,3.42340104 15.9360878,6.84680208 13.5804858,10.2674534 C16.1342226,14.0098219 18.6907112,17.7521905 21.2444479,21.494559 L15.1050226,21.494559 C13.6162601,19.2095419 12.1274977,16.9245248 10.6414871,14.6395077 C9.1417171,16.9245248 7.63919526,19.2095419 6.1394253,21.494559 L0,21.494559 C2.55373674,17.7521905 5.10747349,14.0098219 7.66396211,10.2674534 C5.31936759,6.84680208 2.97477308,3.42340104 0.630178572,0 L6.69530334,0 Z" id="path-77"></path>
        <path d="M4.07483371,0 C4.07208184,0.28597085 4.07208184,0.57469142 4.07483371,0.86066227 C3.56298561,0.86066227 3.05664126,0.86066227 2.55304878,0.86341199 C2.55304878,2.27951764 2.55029691,3.69562329 2.55304878,5.11447867 L1.52384884,5.11447867 L1.52384884,0.86066227 L0.00206390362,0.86066227 C-0.000687967873,0.57469142 -0.000687967873,0.28597085 0.00206390362,0 L4.07483371,0 Z" id="path-79"></path>
        <path d="M1.54379991,0 C1.85200951,1.16038172 2.16021912,2.32351316 2.47393247,3.4866446 C2.78214208,2.32351316 3.08484794,1.16038172 3.39305755,0 L4.94511307,0 L4.94511307,5.11447867 L3.98195805,5.11447867 C3.98195805,3.77811488 3.98195805,2.43900138 3.97095056,1.1026376 C3.64072598,2.4417511 3.30499766,3.7808646 2.96651747,5.1199781 C2.63078915,5.11447867 2.29506082,5.11172895 1.96483625,5.10897923 C1.63185979,3.76711601 1.2933796,2.42525279 0.960403151,1.08338957 C0.952147536,2.42800251 0.952147536,3.76986573 0.954899408,5.11447867 L0,5.11447867 L0,0 L1.54379991,0 Z" id="path-81"></path>
        <path d="M2.03088116,0 C2.98027683,0.296969729 3.80033453,0.888159467 4.64240721,1.39685761 C3.97645431,1.78731781 3.34077199,2.26576904 2.58951107,2.4829969 C1.65387477,2.17227857 0.842072677,1.58383855 0,1.08063985 C0.657697287,0.687429928 1.29062773,0.222727297 2.03088116,0 Z" id="path-83"></path>
        <path d="M2.14095602,0 C3.02705864,0.340965244 3.81409389,0.893658907 4.61213662,1.40235705 C3.91591313,1.81206529 3.2527121,2.36750867 2.44091001,2.51324382 C1.56581488,2.16402941 0.789787118,1.61958491 0,1.1163862 C0.68246413,0.698428807 1.34841703,0.1952301 2.14095602,0 Z" id="path-85"></path>
        <path d="M2.01987368,0 C2.9830287,0.208978698 3.76731207,0.893658907 4.61213662,1.37211014 C3.94067998,1.78731781 3.28023082,2.27126848 2.50695493,2.4829969 C1.59608547,2.16402941 0.803546476,1.58383855 0,1.06139181 C0.657697287,0.684680208 1.2933796,0.241975335 2.01987368,0 Z" id="path-87"></path>
        <path d="M2.18773784,0 C3.07384046,0.313468047 3.8416126,0.877160588 4.63139972,1.37485986 C3.95168746,1.76806978 3.30499766,2.26301932 2.53447364,2.46099914 C1.62085231,2.13928194 0.825561448,1.56459052 0,1.06689125 C0.701727231,0.681930489 1.36217639,0.0412457957 2.18773784,0 Z" id="path-89"></path>
        <path d="M5.41843497,0.0148807312 C6.30453759,0.342097377 7.08056535,0.892041319 7.87035247,1.40073947 C6.17244776,2.4236352 4.47179117,3.47677785 2.67206722,4.30994292 C1.67588974,4.09271506 0.864087649,3.3997857 0,2.89108755 C1.42546943,2.04142416 2.88946507,1.25500432 4.3149345,0.40534093 C4.66992592,0.251356626 5.00565424,-0.0731102996 5.41843497,0.0148807312 Z" id="path-91"></path>
        <path d="M2.19599345,0 C3.08209607,0.324466926 3.84711635,0.890909187 4.63139972,1.40235705 C3.93242436,1.79281725 3.27472708,2.30976456 2.48218809,2.49124606 C1.58507798,2.16677913 0.806298347,1.58658827 0,1.09163873 C0.701727231,0.690179648 1.370432,0.101739629 2.19599345,0 Z" id="path-93"></path>
        <path d="M2.14370789,0 C3.02981051,0.346464684 3.81959763,0.893658907 4.62314411,1.39685761 C3.92967249,1.80106641 3.26922333,2.39225615 2.4519175,2.50499466 C1.57407049,2.15852997 0.79253899,1.61408547 0,1.11088676 C0.687967873,0.701178527 1.34016142,0.153984304 2.14370789,0 Z" id="path-95"></path>
        <path d="M39.55256,0 C39.55256,1.63608323 39.5553118,3.27216646 39.55256,4.90824969 C34.1451325,7.96593801 28.7404569,11.0236263 23.3357813,14.0895638 C22.3808819,14.6092608 21.456253,15.2884416 20.3500007,15.4369265 C19.3015377,15.5771622 18.3218714,15.0794629 17.4467763,14.568015 C12.0888825,11.3783402 6.71172559,8.21891222 1.35383179,5.03198707 C0.233820093,4.37205434 -0.0303595707,2.93945037 0.00266288715,1.74057258 C0.0191741161,1.27037051 0.140256462,0.654433292 0.657608302,0.497699268 C1.2079826,0.354713843 1.74459754,0.637934973 2.22067131,0.879910308 C8.12068379,4.25931583 14.0564706,7.58372697 19.9702424,10.9411347 C26.4949297,7.28950696 33.0251208,3.64612834 39.55256,0 Z" id="path-97"></path>
        <path d="M2.13270041,0 C2.70543366,0.206228978 3.23086912,0.511276009 3.74528635,0.834582897 L4.35962016,1.22616017 C4.46190164,1.29116526 4.56432285,1.35561182 4.66717405,1.41885537 C3.95443933,1.82031445 3.28298269,2.4417511 2.44641376,2.52149298 C1.55755926,2.18877689 0.789787118,1.61683519 0,1.10538732 L0.256993624,0.950973377 L0.770335902,0.632865178 C1.20071893,0.370352874 1.6425233,0.127174537 2.13270041,0 Z" id="path-99"></path>
        <path d="M2.06390362,0 C3.02430677,0.305218888 3.84436447,0.918406384 4.69194089,1.44635257 C4.01773238,1.84781165 3.36829071,2.315264 2.61978166,2.56823821 C2.02124961,2.37919498 1.47861495,2.06662919 0.948879689,1.73392384 L0.316637214,1.33162696 C0.211378129,1.26517182 0.105947052,1.19956522 0,1.13563424 C0.665952901,0.720426565 1.3126427,0.244725054 2.06390362,0 Z" id="path-101"></path>
        <path d="M2.04188865,0 C3.02430677,0.28322113 3.84711635,0.921156104 4.68918902,1.47110005 C4.01222864,1.87255912 3.36003509,2.34551091 2.6060223,2.59298569 C1.65387477,2.2877668 0.844824548,1.66907987 0,1.15213256 C0.654945415,0.725926004 1.30438709,0.272222252 2.04188865,0 Z" id="path-103"></path>
        <path d="M39.5517532,0 L39.5517532,4.90275025 C33.6957707,8.21341278 27.8452919,11.5378239 21.9865575,14.8457367 C20.8142602,15.5716627 19.2897234,15.6844012 18.0981631,14.9364775 C12.5586458,11.6918082 7.04939904,8.39489428 1.51813734,5.13922614 C0.197239026,4.45454593 -0.0999630951,2.79371523 0.0266229935,1.44910229 C0.045886094,0.896408626 0.494441147,0.329966365 1.097101,0.464702631 C2.02172983,0.632435534 2.77849449,1.22912471 3.5875447,1.66358043 C9.041754,4.76526426 14.5069708,7.84495034 19.9611801,10.9411347 C26.494123,7.29775612 33.0215622,3.64612834 39.5517532,0 Z" id="path-105"></path>
        <path d="M34.3000253,0.0939067778 C34.6890958,0.485687998 34.7415237,1.11582562 34.3469345,1.52130549 C31.9269712,4.88569247 29.5180454,8.25829864 27.1008414,11.6226856 C26.1543791,12.9350157 25.450741,14.4035104 24.4794445,15.7021418 C26.0467639,16.1980327 27.4567995,17.0500884 28.9192631,17.7788563 C34.6173523,20.7076264 40.3237196,23.6199581 46.0162901,26.5569474 C46.8965276,26.9405094 47.0758863,28.1185928 46.6757784,28.904895 C46.4191574,29.2364021 46.0659586,29.4692791 45.7431129,29.7322931 C45.7375942,31.3021577 45.7375942,32.8720223 45.7431129,34.4418869 C46.5240133,35.0254491 47.5504971,35.6281895 47.625,36.7049029 C47.594647,37.7405204 46.4853822,38.1953154 45.7403535,38.693946 C45.7403535,40.2829887 45.7375942,41.8720314 45.7431129,43.4610741 C46.3639701,44.0144994 47.2221327,44.5460067 47.2607638,45.4665556 C46.9241212,46.3980634 45.9638621,46.8720365 45.1664056,47.3597082 C38.6322287,50.9131365 32.1256455,54.5186196 25.594228,58.0747876 C24.4325352,58.7460212 22.9645529,58.6720485 21.8359726,57.9651985 C16.4855634,54.8035514 11.1461917,51.6172468 5.8261355,48.3980655 C4.31400336,47.452859 2.71909025,46.584365 1.41942923,45.3460076 C0.707513002,44.6829932 0.1997898,43.7925813 0.0976932866,42.8172379 C-0.0954622795,40.7980577 -0.117537201,38.5898363 1.14625207,36.8747661 C0.155639956,35.359696 0.0507840777,33.5048996 0.0259497906,31.7542129 C-0.0209594183,30.0501016 0.503319975,28.3569492 1.40563241,26.9185916 C4.21466621,22.954204 7.10096224,19.0418712 9.85480874,15.0391274 C10.2769916,14.4637844 10.8095491,13.9706332 11.4193688,13.5980301 C18.6654619,9.18158725 25.911555,4.7651444 33.1521294,0.340482371 C33.5053281,0.15692054 33.897158,-0.158148273 34.3000253,0.0939067778 Z M43.4666366,39.3870974 C36.9186629,43.0199778 30.3734486,46.6583377 23.8227155,50.2884783 C18.3536536,47.2035437 12.8735543,44.1350474 7.40449241,41.0446333 C6.59323904,40.6117562 5.8344136,40.017235 4.90726688,39.8501116 C4.3029659,39.7158649 3.85318936,40.280249 3.83387381,40.8309345 C3.70694301,42.1706619 4.00495445,43.8254581 5.32944976,44.5076505 C10.8757739,47.7514895 16.4000231,51.0364243 21.9546253,54.2693043 C23.1494304,55.0145105 24.6781188,54.9021817 25.8536083,54.1788932 C31.7282969,50.8829995 37.5947074,47.5706674 43.4666366,44.2720339 L43.4666366,39.3870974 Z M43.4666366,31.1158561 C36.9214223,34.7487365 30.3734486,38.3788772 23.8309936,42.0172371 C17.9011177,38.6720282 11.9491669,35.359696 6.0330879,31.9925693 C5.55571771,31.7514732 5.01764149,31.4692811 4.46576844,31.611747 C3.94700778,31.7679116 3.82559571,32.3816108 3.80903952,32.8501044 C3.77592714,34.0446262 4.0408262,35.4720249 5.16388785,36.1295598 C10.5363719,39.3049055 15.9281716,42.4528539 21.3006557,45.6309394 C22.1781339,46.1405289 23.1604679,46.6364198 24.211786,46.4966937 C25.3210508,46.3487483 26.2481976,45.6720353 27.2056973,45.1542265 C32.6250906,42.0994289 38.0444839,39.0528505 43.4666366,36.006272 C43.469396,34.3761334 43.4666366,32.7459948 43.4666366,31.1158561 Z M22.829344,35.167915 C22.0898342,35.4391482 21.438624,35.8912034 20.781895,36.3158614 C21.6290202,36.8309304 22.4402736,37.4473694 23.3950139,37.7514793 C24.15108,37.5049037 24.8050496,37.0336703 25.4838534,36.6336699 C24.6394876,36.0857242 23.8144374,35.4501071 22.829344,35.167915 Z M26.1405823,33.3213378 C25.3872756,33.5651737 24.7388248,34.0391468 24.0710584,34.4528458 L24.3885579,34.6481264 L25.022522,35.0489616 C25.5536998,35.380458 26.0978122,35.6918882 26.6979741,35.8802445 C27.4485214,35.6281895 28.0997316,35.1624356 28.7757761,34.7624352 L28.4580341,34.5619587 L27.8224208,34.1554836 C27.2893837,33.8213378 26.7424689,33.5114065 26.1405823,33.3213378 Z M18.9524359,32.8692826 C18.1660168,33.0720225 17.5037692,33.5706531 16.8139278,33.9706535 C17.6058657,34.4802431 18.3757286,35.0501067 19.2670035,35.3816139 C20.1058506,35.3021617 20.7791357,34.682983 21.4938113,34.2829826 L21.1854199,34.0909876 L20.5694131,33.7008331 C20.0535951,33.3787009 19.5267288,33.0747622 18.9524359,32.8692826 Z M31.6537941,30.1131154 C30.2244429,30.9596916 28.7564606,31.743254 27.3271094,32.5898302 C27.5003975,32.6912002 27.6715885,32.7999126 27.8425809,32.9107073 L28.3568603,33.2440775 C28.8743406,33.5731737 29.4071189,33.8736671 30.006453,34.0035303 C31.8110779,33.1733924 33.5163656,32.1240763 35.2188939,31.1048972 C34.4269561,30.5980474 33.6488151,30.0501016 32.7602995,29.7240739 C32.3463947,29.6364026 32.0097522,29.9596906 31.6537941,30.1131154 Z M22.2691929,31.0501026 C21.4634583,31.2035274 20.8094887,31.7487335 20.1196474,32.1569531 C20.9143446,32.6583234 21.6980043,33.2007897 22.5782418,33.5459956 C23.3977733,33.4336667 24.0600209,32.844625 24.755381,32.4418849 C23.9496463,31.9405145 23.1577085,31.3953085 22.2691929,31.0501026 Z M15.1031214,30.6199652 C14.2753118,30.7213352 13.6047861,31.3076371 12.901148,31.7076375 C13.709642,32.2007887 14.4905423,32.7788715 15.3900954,33.1021595 C16.1847926,32.9213374 16.8442809,32.4062684 17.5451596,32.0172269 C16.7587405,31.5076373 15.991637,30.9432532 15.1031214,30.6199652 Z M25.5611156,29.2774981 C24.7333061,29.318594 24.0710584,29.9569508 23.3674203,30.3405129 C24.1952298,30.8364038 24.9926864,31.4090071 25.9087956,31.7295554 C26.6814179,31.5322949 27.3298687,31.0391437 28.0114319,30.6473625 C27.2194941,30.1514716 26.4496312,29.5898272 25.5611156,29.2774981 Z M18.2156854,28.8062647 C17.487213,29.0473609 16.8497996,29.4884572 16.1903113,29.8638 C16.996046,30.3843485 17.7907431,30.9624313 18.704093,31.2802398 C19.4794747,31.0692807 20.1417223,30.5870885 20.8150074,30.1733894 C20.6455824,30.0780468 20.4785856,29.9744851 20.3120966,29.8681398 L19.812232,29.5461888 C19.3100496,29.2267583 18.7951521,28.9311964 18.2156854,28.8062647 Z M11.2372507,28.3213327 C10.4425535,28.5158535 9.77478715,29.0172238 9.09046457,29.4336626 L9.76852829,29.8679775 C10.3351635,30.2291345 10.9112514,30.5769123 11.5380215,30.8254449 C12.3520343,30.6802392 13.0170413,30.126814 13.7151607,29.7185944 C12.9149448,29.2117446 12.1257663,28.6610591 11.2372507,28.3213327 Z M35.7956013,27.8911953 C35.053332,28.1131133 34.418678,28.5761275 33.7591897,28.9679087 C34.6035555,29.4692791 35.4175682,30.0555811 36.3557524,30.3651704 C37.1090591,30.1487318 37.7464725,29.672019 38.4142389,29.2829775 C37.5698731,28.7761277 36.7475823,28.187086 35.7956013,27.8911953 Z M28.676439,27.4528387 C27.9120948,27.6446197 27.2691627,28.1350312 26.5903589,28.5158535 C27.4292059,29.0281828 28.2432186,29.6309231 29.197959,29.9213343 C29.9319501,29.672019 30.5721229,29.2254432 31.2233331,28.8227031 C30.3955235,28.3350314 29.598067,27.7596883 28.676439,27.4528387 Z M21.4524208,27.0062629 C20.7377452,27.2720166 20.0975725,27.6994143 19.451881,28.1021544 C20.2796906,28.5870864 21.0716284,29.1788678 21.9960157,29.4692791 C22.7438037,29.2446213 23.3922546,28.7898264 24.0600209,28.4007849 C23.2239333,27.8857158 22.420958,27.2583179 21.4524208,27.0062629 Z M14.5291734,26.5377693 C13.7234388,26.6692763 13.0667099,27.2254412 12.3741092,27.6199621 C13.1826032,28.1158531 13.9690223,28.6802372 14.8685754,29.0035252 C15.6549945,28.8199634 16.3117234,28.3131135 17.0015647,27.9213323 C16.2041081,27.4199619 15.4259671,26.8500984 14.5291734,26.5377693 Z M38.8364217,26.1322894 C38.1603773,26.3925636 37.5560763,26.7980435 36.9352191,27.1596877 C37.8099379,27.6637978 38.6405068,28.3953054 39.6669907,28.5350316 C40.3430352,28.2774971 40.9418174,27.8610583 41.543359,27.4720168 C40.6631215,26.9980437 39.8408307,26.3021526 38.8364217,26.1322894 Z M31.9380087,25.7103712 C31.1350334,25.7651657 30.4948607,26.3761253 29.8050193,26.7377695 C30.6549038,27.2281809 31.449601,27.893935 32.423657,28.1076339 C33.1355732,27.8747569 33.753671,27.4364003 34.3993625,27.0637972 C33.6074246,26.570646 32.832043,26.0117413 31.9380087,25.7103712 Z M24.7277873,25.2418775 C23.9799993,25.4555764 23.3398266,25.9185906 22.6720602,26.2994129 C23.5247041,26.7843449 24.32492,27.4774962 25.3127728,27.6610581 C26.0191703,27.4199619 26.6372681,26.9816053 27.2691627,26.5980433 L26.9609977,26.4114421 L26.3462197,26.0297636 C25.8315334,25.7146948 25.3055294,25.4199599 24.7277873,25.2418775 Z M17.5837907,24.762425 C16.8884307,25.0172198 16.2703329,25.4254394 15.6301602,25.792563 C16.4414135,26.3103718 17.2361107,26.8884546 18.1549793,27.2007836 C18.9165642,26.9898245 19.5677743,26.510372 20.2327814,26.1021524 C19.3746188,25.6281793 18.5716435,24.9103704 17.5837907,24.762425 Z M34.9677917,23.924068 C34.2393193,24.1405066 33.610184,24.5953015 32.9562144,24.9624252 C33.784024,25.4665353 34.5952774,26.0391386 35.5279428,26.3432485 C36.2702121,26.1240702 36.9021067,25.6665355 37.5533169,25.2665351 C36.7117105,24.7870826 35.9059759,24.2035203 34.9677917,23.924068 Z M25.881202,24.5596851 C26.6924554,25.0418773 27.4843932,25.5788642 28.3756682,25.9076316 C29.1317342,25.702152 29.7801851,25.2446173 30.4479514,24.8583155 C29.8077787,24.4500959 29.167606,24.0363969 28.4832834,23.7021499 C27.5423399,23.1679028 26.6814179,24.176123 25.881202,24.5596851 Z M20.9060665,22.9706424 C20.1610379,23.1898207 19.5208651,23.6446156 18.8558581,24.0309174 C19.6891864,24.5240686 20.4811242,25.1322884 21.4220678,25.4062613 C22.1588183,25.1733843 22.7962317,24.7213291 23.4612387,24.3459862 C22.6389478,23.8418761 21.8387319,23.2555742 20.9060665,22.9706424 Z M31.1074397,21.7569425 C30.354133,21.9514632 29.7084416,22.4035185 29.0434345,22.7843408 C29.8878003,23.277492 30.6852569,23.9295474 31.6593128,24.1350271 C32.3601916,23.893931 32.9727706,23.469273 33.5963872,23.0802315 C32.7851338,22.6062584 31.993196,22.0802305 31.1074397,21.7569425 Z M24.211786,21.2473529 C23.4060514,21.2994078 22.7603599,21.9076276 22.073278,22.2829704 C22.8624564,22.7679024 23.6405974,23.2966701 24.5180756,23.6144786 C25.307254,23.4911908 25.9529455,22.954204 26.6234712,22.5569433 C25.8370521,22.0884497 25.0699486,21.5706409 24.211786,21.2473529 Z M27.2553659,19.4857073 C26.5130966,19.6884472 25.881202,20.145982 25.2217137,20.5213248 C26.0605607,21.0089965 26.8580173,21.6254355 27.8099983,21.8720111 C28.5246739,21.6391342 29.1427717,21.1980378 29.7857038,20.822695 L29.4775603,20.640289 L28.8633428,20.2667441 C28.3496266,19.9578824 27.8262096,19.6672143 27.2553659,19.4857073 Z" id="path-107"></path>
    </defs>
    <g id="Page-1" stroke="none" stroke-width="1" fill="none" fill-rule="evenodd">
        <g id="LibreTexts-ADAPT-logo-vector">
            <mask id="mask-2" fill="white">
                <use xlink:href="#path-1"></use>
            </mask>
            <g id="Path"></g>
            <g id="Group" mask="url(#mask-2)">
                <g transform="translate(3.000000, 6.000000)">
                    <g transform="translate(168.000000, 59.000000)" id="Clipped">
                        <mask id="mask-4" fill="white">
                            <use xlink:href="#path-3"></use>
                        </mask>
                        <g id="Path"></g>
                        <g id="Group" mask="url(#mask-4)">
                            <g transform="translate(-34.000000, -9.000000)">
                                <g id="Clipped">
                                    <mask id="mask-6" fill="white">
                                        <use xlink:href="#path-5"></use>
                                    </mask>
                                    <g id="Shape"></g>
                                    <g id="Group" mask="url(#mask-6)">
                                        <g transform="translate(-0.000000, 0.000000)" id="Clipped">
                                            <mask id="mask-8" fill="white">
                                                <use xlink:href="#path-7"></use>
                                            </mask>
                                            <g id="Path"></g>
                                        </g>
                                    </g>
                                </g>
                                <g id="Clipped" transform="translate(52.337097, 10.816813)">
                                    <mask id="mask-10" fill="white">
                                        <use xlink:href="#path-9"></use>
                                    </mask>
                                    <g id="Shape"></g>
                                    <g id="Group" mask="url(#mask-10)">
                                        <g transform="translate(0.000000, 0.000000)" id="Clipped">
                                            <mask id="mask-12" fill="white">
                                                <use xlink:href="#path-11"></use>
                                            </mask>
                                            <g id="Path"></g>
                                            <polygon id="Path" fill="#066BBE" fill-rule="nonzero" mask="url(#mask-12)" points="0 0 12.8613377 0 12.8613377 15.3448014 0 15.3448014"></polygon>
                                        </g>
                                    </g>
                                </g>
                                <g id="Clipped" transform="translate(66.740966, 10.827681)">
                                    <mask id="mask-14" fill="white">
                                        <use xlink:href="#path-13"></use>
                                    </mask>
                                    <g id="Shape"></g>
                                    <g mask="url(#mask-14)">
                                        <mask id="mask-16" fill="white">
                                            <use xlink:href="#path-15"></use>
                                        </mask>
                                        <g id="Path"></g>
                                        <polygon id="Path" fill="#066BBE" fill-rule="nonzero" mask="url(#mask-16)" points="0 0 14.9648694 0 14.9648694 15.3237139 0 15.3237139"></polygon>
                                    </g>
                                </g>
                                <g id="Clipped" transform="translate(34.997083, 10.856745)">
                                    <mask id="mask-18" fill="white">
                                        <use xlink:href="#path-17"></use>
                                    </mask>
                                    <g id="Shape"></g>
                                    <g mask="url(#mask-18)">
                                        <mask id="mask-20" fill="white">
                                            <use xlink:href="#path-19"></use>
                                        </mask>
                                        <g id="Path"></g>
                                        <polygon id="Path" fill="#066BBE" fill-rule="nonzero" mask="url(#mask-20)" points="0 0 14.9648694 0 14.9648694 15.3237139 0 15.3237139"></polygon>
                                    </g>
                                </g>
                                <g id="Clipped" transform="translate(84.073695, 10.810154)">
                                    <mask id="mask-22" fill="white">
                                        <use xlink:href="#path-21"></use>
                                    </mask>
                                    <g id="Shape"></g>
                                    <g id="Group" mask="url(#mask-22)">
                                        <g transform="translate(0.000000, -0.000000)" id="Clipped">
                                            <mask id="mask-24" fill="white">
                                                <use xlink:href="#path-23"></use>
                                            </mask>
                                            <g id="Path"></g>
                                            <polygon id="Path" fill="#066BBE" fill-rule="nonzero" mask="url(#mask-24)" points="0 4.99750246e-12 10.6355507 4.99750246e-12 10.6355507 15.3049117 0 15.3049117"></polygon>
                                        </g>
                                    </g>
                                </g>
                                <g id="Clipped" transform="translate(96.342848, 10.851628)">
                                    <mask id="mask-26" fill="white">
                                        <use xlink:href="#path-25"></use>
                                    </mask>
                                    <g id="Path"></g>
                                    <g id="Group" mask="url(#mask-26)">
                                        <g transform="translate(0.000000, 0.000000)" id="Clipped">
                                            <mask id="mask-28" fill="white">
                                                <use xlink:href="#path-27"></use>
                                            </mask>
                                            <g id="Path"></g>
                                            <polygon id="Path" fill="#066BBE" fill-rule="nonzero" mask="url(#mask-28)" points="0 0 11.6571524 0 11.6571524 15.2634377 0 15.2634377"></polygon>
                                        </g>
                                    </g>
                                </g>
                            </g>
                        </g>
                    </g>
                    <g>
                        <g id="Clipped" transform="translate(0.000000, 0.000000)">
                            <mask id="mask-30" fill="white">
                                <use xlink:href="#path-29"></use>
                            </mask>
                            <g id="Shape"></g>
                            <polygon id="Path" fill="#127BC3" fill-rule="nonzero" mask="url(#mask-30)" points="-6.61159495e-12 -1.82204474e-10 60.6821509 -1.82204474e-10 60.6821509 68.4609375 -6.61159495e-12 68.4609375"></polygon>
                        </g>
                        <g transform="translate(88.029127, 19.972201)" id="Clipped">
                            <mask id="mask-32" fill="white">
                                <use xlink:href="#path-31"></use>
                            </mask>
                            <g id="Path"></g>
                            <polygon id="Path" fill="#127BC3" fill-rule="nonzero" mask="url(#mask-32)" points="0 0 5.58629913 0 5.58629913 5.5654327 0 5.5654327"></polygon>
                        </g>
                        <g transform="translate(96.592951, 19.936455)" id="Clipped">
                            <mask id="mask-34" fill="white">
                                <use xlink:href="#path-33"></use>
                            </mask>
                            <g id="Shape"></g>
                            <polygon id="Path" fill="#127BC3" fill-rule="nonzero" mask="url(#mask-34)" points="0 0 20.6916749 0 20.6916749 31.2864747 0 31.2864747"></polygon>
                        </g>
                        <g transform="translate(32.512871, 21.085837)" id="Clipped">
                            <mask id="mask-36" fill="white">
                                <use xlink:href="#path-35"></use>
                            </mask>
                            <g id="Path"></g>
                            <polygon id="Path" fill="#127BC3" fill-rule="nonzero" mask="url(#mask-36)" points="0 0 4.55159545 0 4.55159545 2.39500587 0 2.39500587"></polygon>
                        </g>
                        <g transform="translate(65.667419, 21.081866)" id="Clipped">
                            <mask id="mask-38" fill="white">
                                <use xlink:href="#path-37"></use>
                            </mask>
                            <g id="Path"></g>
                            <polygon id="Path" fill="#127BC3" fill-rule="nonzero" mask="url(#mask-38)" points="0 -1.11282815e-12 20.1354437 -1.11282815e-12 20.1354437 29.6157034 0 29.6157034"></polygon>
                        </g>
                        <g transform="translate(151.630380, 21.083088)" id="Clipped">
                            <mask id="mask-40" fill="white">
                                <use xlink:href="#path-39"></use>
                            </mask>
                            <g id="Path"></g>
                            <polygon id="Path" fill="#127BC3" fill-rule="nonzero" mask="url(#mask-40)" points="0 0 22.2901591 0 22.2901591 29.6144813 0 29.6144813"></polygon>
                        </g>
                        <g transform="translate(29.372986, 22.853907)" id="Clipped">
                            <mask id="mask-42" fill="white">
                                <use xlink:href="#path-41"></use>
                            </mask>
                            <g id="Path"></g>
                            <polygon id="Path" fill="#127BC3" fill-rule="nonzero" mask="url(#mask-42)" points="0 0 4.53783609 0 4.53783609 2.37575783 0 2.37575783"></polygon>
                        </g>
                        <g transform="translate(211.708016, 23.214120)" id="Clipped">
                            <mask id="mask-44" fill="white">
                                <use xlink:href="#path-43"></use>
                            </mask>
                            <g id="Path"></g>
                            <polygon id="Path" fill="#127BC3" fill-rule="nonzero" mask="url(#mask-44)" points="6.95233801e-15 0 15.741928 0 15.741928 28.0479749 6.95233801e-15 28.0479749"></polygon>
                        </g>
                        <g transform="translate(36.324213, 23.365355)" id="Clipped">
                            <mask id="mask-46" fill="white">
                                <use xlink:href="#path-45"></use>
                            </mask>
                            <g id="Path"></g>
                            <polygon id="Path" fill="#127BC3" fill-rule="nonzero" mask="url(#mask-46)" points="0 0 4.54058796 0 4.54058796 2.38675671 0 2.38675671"></polygon>
                        </g>
                        <g transform="translate(26.164304, 24.583481)" id="Clipped">
                            <mask id="mask-48" fill="white">
                                <use xlink:href="#path-47"></use>
                            </mask>
                            <g id="Path"></g>
                            <polygon id="Path" fill="#127BC3" fill-rule="nonzero" mask="url(#mask-48)" points="0 0 4.59287352 0 4.59287352 2.44450082 0 2.44450082"></polygon>
                        </g>
                        <g transform="translate(33.170568, 25.164299)" id="Clipped">
                            <mask id="mask-50" fill="white">
                                <use xlink:href="#path-49"></use>
                            </mask>
                            <g id="Path"></g>
                            <polygon id="Path" fill="#127BC3" fill-rule="nonzero" mask="url(#mask-50)" points="0 2.49353427e-10 4.55434732 2.49353427e-10 4.55434732 2.36688131 0 2.36688131"></polygon>
                        </g>
                        <g transform="translate(40.226367, 25.540383)" id="Clipped">
                            <mask id="mask-52" fill="white">
                                <use xlink:href="#path-51"></use>
                            </mask>
                            <g id="Path"></g>
                            <polygon id="Path" fill="#127BC3" fill-rule="nonzero" mask="url(#mask-52)" points="0 0 4.58461791 0 4.58461791 2.42800251 0 2.42800251"></polygon>
                        </g>
                        <g transform="translate(22.947366, 26.381798)" id="Clipped">
                            <mask id="mask-54" fill="white">
                                <use xlink:href="#path-53"></use>
                            </mask>
                            <g id="Path"></g>
                            <polygon id="Path" fill="#127BC3" fill-rule="nonzero" mask="url(#mask-54)" points="0 0 4.59012165 0 4.59012165 2.44725054 0 2.44725054"></polygon>
                        </g>
                        <g transform="translate(29.970142, 26.862998)" id="Clipped">
                            <mask id="mask-56" fill="white">
                                <use xlink:href="#path-55"></use>
                            </mask>
                            <g id="Path"></g>
                            <polygon id="Path" fill="#127BC3" fill-rule="nonzero" mask="url(#mask-56)" points="0 0 4.58461791 0 4.58461791 2.42800251 0 2.42800251"></polygon>
                        </g>
                        <g transform="translate(37.083730, 27.333201)" id="Clipped">
                            <mask id="mask-58" fill="white">
                                <use xlink:href="#path-57"></use>
                            </mask>
                            <g id="Path"></g>
                            <polygon id="Path" fill="#127BC3" fill-rule="nonzero" mask="url(#mask-58)" points="0 0 4.58186603 0 4.58186603 2.40600475 0 2.40600475"></polygon>
                        </g>
                        <g transform="translate(44.194566, 27.756657)" id="Clipped">
                            <mask id="mask-60" fill="white">
                                <use xlink:href="#path-59"></use>
                            </mask>
                            <g id="Path"></g>
                            <polygon id="Path" fill="#127BC3" fill-rule="nonzero" mask="url(#mask-60)" points="0 0 4.59562539 0 4.59562539 2.41150419 0 2.41150419"></polygon>
                        </g>
                        <g transform="translate(19.700157, 28.163616)" id="Clipped">
                            <mask id="mask-62" fill="white">
                                <use xlink:href="#path-61"></use>
                            </mask>
                            <g id="Path"></g>
                            <polygon id="Path" fill="#127BC3" fill-rule="nonzero" mask="url(#mask-62)" points="0 0 4.61488849 0 4.61488849 2.47474774 0 2.47474774"></polygon>
                        </g>
                        <g transform="translate(26.758708, 28.633818)" id="Clipped">
                            <mask id="mask-64" fill="white">
                                <use xlink:href="#path-63"></use>
                            </mask>
                            <g id="Path"></g>
                            <polygon id="Path" fill="#127BC3" fill-rule="nonzero" mask="url(#mask-64)" points="0 0 4.59562539 0 4.59562539 2.47199802 0 2.47199802"></polygon>
                        </g>
                        <g transform="translate(118.770283, 28.717877)" id="Clipped">
                            <mask id="mask-66" fill="white">
                                <use xlink:href="#path-65"></use>
                            </mask>
                            <g id="Path"></g>
                            <polygon id="Path" fill="#127BC3" fill-rule="nonzero" mask="url(#mask-66)" points="0 -7.51474785e-11 15.4545103 -7.51474785e-11 15.4545103 21.9796921 0 21.9796921"></polygon>
                        </g>
                        <g transform="translate(133.504836, 28.713791)" id="Clipped">
                            <mask id="mask-68" fill="white">
                                <use xlink:href="#path-67"></use>
                            </mask>
                            <g id="Shape"></g>
                            <polygon id="Path" fill="#127BC3" fill-rule="nonzero" mask="url(#mask-68)" points="3.07821102e-10 3.94573318e-10 22.9550405 3.94573318e-10 22.9550405 22.5469919 3.07821102e-10 22.5469919"></polygon>
                        </g>
                        <g transform="translate(169.080304, 28.719017)" id="Clipped">
                            <mask id="mask-70" fill="white">
                                <use xlink:href="#path-69"></use>
                            </mask>
                            <g id="Shape"></g>
                            <polygon id="Path" fill="#127BC3" fill-rule="nonzero" mask="url(#mask-70)" points="4.83618257e-10 1.73150411e-10 22.9557233 1.73150411e-10 22.9557233 22.5422019 4.83618257e-10 22.5422019"></polygon>
                        </g>
                        <g transform="translate(225.416399, 28.720249)" id="Clipped">
                            <mask id="mask-72" fill="white">
                                <use xlink:href="#path-71"></use>
                            </mask>
                            <g id="Path"></g>
                            <polygon id="Path" fill="#127BC3" fill-rule="nonzero" mask="url(#mask-72)" points="7.20756788e-13 -2.25385488e-10 16.5322784 -2.25385488e-10 16.5322784 22.5673017 7.20756788e-13 22.5673017"></polygon>
                        </g>
                        <g transform="translate(33.877799, 29.082022)" id="Clipped">
                            <mask id="mask-74" fill="white">
                                <use xlink:href="#path-73"></use>
                            </mask>
                            <g id="Path"></g>
                            <polygon id="Path" fill="#127BC3" fill-rule="nonzero" mask="url(#mask-74)" points="0 0 4.62039224 0 4.62039224 2.47749746 0 2.47749746"></polygon>
                        </g>
                        <g transform="translate(88.111683, 29.238756)" id="Clipped">
                            <mask id="mask-76" fill="white">
                                <use xlink:href="#path-75"></use>
                            </mask>
                            <g id="Path"></g>
                            <polygon id="Path" fill="#127BC3" fill-rule="nonzero" mask="url(#mask-76)" points="0 0 5.42944245 0 5.42944245 21.4588126 0 21.4588126"></polygon>
                        </g>
                        <g transform="translate(191.075706, 29.238756)" id="Clipped">
                            <mask id="mask-78" fill="white">
                                <use xlink:href="#path-77"></use>
                            </mask>
                            <g id="Path"></g>
                            <polygon id="Path" fill="#127BC3" fill-rule="nonzero" mask="url(#mask-78)" points="0 0 21.2444479 0 21.2444479 21.494559 0 21.494559"></polygon>
                        </g>
                        <g transform="translate(244.325108, 29.395490)" id="Clipped">
                            <mask id="mask-80" fill="white">
                                <use xlink:href="#path-79"></use>
                            </mask>
                            <g id="Path"></g>
                            <polygon id="Path" fill="#127BC3" fill-rule="nonzero" mask="url(#mask-80)" points="-2.34379356e-13 0 4.07483371 0 4.07483371 5.11447867 -2.34379356e-13 5.11447867"></polygon>
                        </g>
                        <g transform="translate(249.054887, 29.395490)" id="Clipped">
                            <mask id="mask-82" fill="white">
                                <use xlink:href="#path-81"></use>
                            </mask>
                            <g id="Path"></g>
                            <polygon id="Path" fill="#127BC3" fill-rule="nonzero" mask="url(#mask-82)" points="0 0 4.94511307 0 4.94511307 5.1199781 0 5.1199781"></polygon>
                        </g>
                        <g transform="translate(41.027161, 29.521977)" id="Clipped">
                            <mask id="mask-84" fill="white">
                                <use xlink:href="#path-83"></use>
                            </mask>
                            <g id="Path"></g>
                            <polygon id="Path" fill="#127BC3" fill-rule="nonzero" mask="url(#mask-84)" points="0 0 4.64240721 0 4.64240721 2.4829969 0 2.4829969"></polygon>
                        </g>
                        <g transform="translate(16.425430, 29.953683)" id="Clipped">
                            <mask id="mask-86" fill="white">
                                <use xlink:href="#path-85"></use>
                            </mask>
                            <g id="Path"></g>
                            <polygon id="Path" fill="#127BC3" fill-rule="nonzero" mask="url(#mask-86)" points="0 0 4.61213662 0 4.61213662 2.51324382 0 2.51324382"></polygon>
                        </g>
                        <g transform="translate(23.505996, 30.440384)" id="Clipped">
                            <mask id="mask-88" fill="white">
                                <use xlink:href="#path-87"></use>
                            </mask>
                            <g id="Path"></g>
                            <polygon id="Path" fill="#127BC3" fill-rule="nonzero" mask="url(#mask-88)" points="0 0 4.61213662 0 4.61213662 2.4829969 0 2.4829969"></polygon>
                        </g>
                        <g transform="translate(30.663613, 30.913336)" id="Clipped">
                            <mask id="mask-90" fill="white">
                                <use xlink:href="#path-89"></use>
                            </mask>
                            <g id="Path"></g>
                            <polygon id="Path" fill="#127BC3" fill-rule="nonzero" mask="url(#mask-90)" points="0 0 4.63139972 0 4.63139972 2.46099914 0 2.46099914"></polygon>
                        </g>
                        <g transform="translate(34.612549, 31.346659)" id="Clipped">
                            <mask id="mask-92" fill="white">
                                <use xlink:href="#path-91"></use>
                            </mask>
                            <g id="Path"></g>
                            <polygon id="Path" fill="#127BC3" fill-rule="nonzero" mask="url(#mask-92)" points="0 -2.06353268e-11 7.87035247 -2.06353268e-11 7.87035247 4.30994292 0 4.30994292"></polygon>
                        </g>
                        <g transform="translate(20.225765, 32.260698)" id="Clipped">
                            <mask id="mask-94" fill="white">
                                <use xlink:href="#path-93"></use>
                            </mask>
                            <g id="Path"></g>
                            <polygon id="Path" fill="#127BC3" fill-rule="nonzero" mask="url(#mask-94)" points="0 0 4.63139972 0 4.63139972 2.49124606 0 2.49124606"></polygon>
                        </g>
                        <g transform="translate(27.424661, 32.692404)" id="Clipped">
                            <mask id="mask-96" fill="white">
                                <use xlink:href="#path-95"></use>
                            </mask>
                            <g id="Path"></g>
                            <polygon id="Path" fill="#127BC3" fill-rule="nonzero" mask="url(#mask-96)" points="0 0 4.62314411 0 4.62314411 2.50499466 0 2.50499466"></polygon>
                        </g>
                        <g transform="translate(11.155685, 32.758398)" id="Clipped">
                            <mask id="mask-98" fill="white">
                                <use xlink:href="#path-97"></use>
                            </mask>
                            <g id="Path"></g>
                            <polygon id="Path" fill="#127BC3" fill-rule="nonzero" mask="url(#mask-98)" points="-1.00586206e-11 0 39.553783 0 39.553783 15.4609512 -1.00586206e-11 15.4609512"></polygon>
                        </g>
                        <g transform="translate(24.127919, 34.518218)" id="Clipped">
                            <mask id="mask-100" fill="white">
                                <use xlink:href="#path-99"></use>
                            </mask>
                            <g id="Path"></g>
                            <polygon id="Path" fill="#127BC3" fill-rule="nonzero" mask="url(#mask-100)" points="0 0 4.66717405 0 4.66717405 2.52149298 0 2.52149298"></polygon>
                        </g>
                        <g transform="translate(31.365341, 34.971922)" id="Clipped">
                            <mask id="mask-102" fill="white">
                                <use xlink:href="#path-101"></use>
                            </mask>
                            <g id="Path"></g>
                            <polygon id="Path" fill="#127BC3" fill-rule="nonzero" mask="url(#mask-102)" points="0 0 4.69194089 0 4.69194089 2.56823821 0 2.56823821"></polygon>
                        </g>
                        <g transform="translate(28.085110, 36.825233)" id="Clipped">
                            <mask id="mask-104" fill="white">
                                <use xlink:href="#path-103"></use>
                            </mask>
                            <g id="Path"></g>
                            <polygon id="Path" fill="#127BC3" fill-rule="nonzero" mask="url(#mask-104)" points="0 0 4.68918902 0 4.68918902 2.59298569 0 2.59298569"></polygon>
                        </g>
                        <g transform="translate(11.156492, 41.059801)" id="Clipped">
                            <mask id="mask-106" fill="white">
                                <use xlink:href="#path-105"></use>
                            </mask>
                            <g id="Path"></g>
                            <polygon id="Path" fill="#127BC3" fill-rule="nonzero" mask="url(#mask-106)" points="2.25968133e-11 0 39.5517532 0 39.5517532 15.4464243 2.25968133e-11 15.4464243"></polygon>
                        </g>
                        <g transform="translate(6.945312, 1.984375)" id="Clipped">
                            <mask id="mask-108" fill="white">
                                <use xlink:href="#path-107"></use>
                            </mask>
                            <g id="Shape"></g>
                            <polygon id="Path" fill="#FFFFFF" fill-rule="nonzero" mask="url(#mask-108)" points="4.29629804e-11 5.45731793e-11 47.625 5.45731793e-11 47.625 58.5390625 4.29629804e-11 58.5390625"></polygon>
                        </g>
                    </g>
                </g>
            </g>
        </g>
    </g>
</svg>