<svg xmlns="http://www.w3.org/2000/svg" xmlns:xlink="http://www.w3.org/1999/xlink" width="26.6" height="32" viewBox="0 0 26.6 32"><defs><clipPath id="a"><path d="M12.1-24.076l8.441,2.907,1.04-3.02a4.458,4.458,0,0,0-.181-3.476,4.248,4.248,0,0,0-2.551-2.295,4.248,4.248,0,0,0-3.424.237A4.459,4.459,0,0,0,13.143-27.1ZM18.086-.66a6.563,6.563,0,0,1-3.823-3.349,6.563,6.563,0,0,1-.285-5.075,6.563,6.563,0,0,1,3.349-3.823,6.563,6.563,0,0,1,5.075-.285,6.563,6.563,0,0,1,3.823,3.349,6.563,6.563,0,0,1,.285,5.075A6.563,6.563,0,0,1,23.161-.945a6.563,6.563,0,0,1-4.811.373ZM15.167-4.338A4.957,4.957,0,0,0,18.352-1.43a5.449,5.449,0,0,0,4.518-.255,5.651,5.651,0,0,0,2.773-3.128l.077-.228a5.3,5.3,0,0,0-.367-4.378,7,7,0,0,0-.99-1.5,4.852,4.852,0,0,0-2.259-1.4,5.184,5.184,0,0,0-4.429.263A5.058,5.058,0,0,0,14.93-8.757a5.562,5.562,0,0,0,.128,4.187Zm-2.539.568L1.686-7.537A1.987,1.987,0,0,1,.5-8.581,1.987,1.987,0,0,1,.411-10.16L5.263-24.252a1.987,1.987,0,0,1,1.043-1.184,1.987,1.987,0,0,1,1.575-.093l2.273.783,1.04-3.02a6.445,6.445,0,0,1,3.1-3.7l.223-.113a6.234,6.234,0,0,1,4.752-.413l.247.084a6.234,6.234,0,0,1,3.628,3.114l.108.224a6.445,6.445,0,0,1,.361,4.8L22.493-20.5l2.273.783a2.052,2.052,0,0,1,1.184,1.043,2.052,2.052,0,0,1,.093,1.575L24.994-14.05a17.255,17.255,0,0,0-2.21-1.005,7.522,7.522,0,0,0-5.905.39l-.237.126a8.5,8.5,0,0,0-4.2,4.927A8.411,8.411,0,0,0,12.086-7l.014.332a9.262,9.262,0,0,0,.53,2.891Z" fill="none"/></clipPath><clipPath id="b"><path d="M18.951-2.694a.733.733,0,0,0,.569-.025.715.715,0,0,0,.37-.413.715.715,0,0,0-.037-.554.733.733,0,0,0-.433-.371.733.733,0,0,0-.569.025.715.715,0,0,0-.37.413.715.715,0,0,0,.037.554A.733.733,0,0,0,18.951-2.694Z" fill="none"/></clipPath><clipPath id="c"><path d="M19.252-5.56,20.31-5.2a3.074,3.074,0,0,1,.219-.488,1.423,1.423,0,0,1,.278-.355,3.611,3.611,0,0,1,.726-.482l.2-.092a4.719,4.719,0,0,0,1.214-.754,2.146,2.146,0,0,0,.572-.877,2.016,2.016,0,0,0-.112-1.724,2.634,2.634,0,0,0-1.516-1.144,3.086,3.086,0,0,0-1.774-.12,2.709,2.709,0,0,0-1.41.869l.847.733a2.036,2.036,0,0,1,.931-.532,1.858,1.858,0,0,1,.91.025l.146.048a1.5,1.5,0,0,1,.839.61,1.03,1.03,0,0,1,.072.907,1.374,1.374,0,0,1-.442.62,4.273,4.273,0,0,1-.955.544,3.462,3.462,0,0,0-1.236.779,3.294,3.294,0,0,0-.5.876Z" fill="none"/></clipPath></defs><g transform="translate(-0.289 32.281)"><g clip-path="url(#a)"><path d="M-.779-33.488H28V.918H-.779Z" fill="#127ac4"/></g><g clip-path="url(#b)"><path d="M17.418-5.126h3.535v3.5H17.418Z" fill="#127ac4"/></g><g clip-path="url(#c)"><path d="M17.706-12.366h7.036V-4.2H17.706Z" fill="#127ac4"/></g></g></svg>