<?xml version="1.0" encoding="UTF-8"?>
<svg width="283px" height="228px" viewBox="0 0 283 228" version="1.1" xmlns="http://www.w3.org/2000/svg" xmlns:xlink="http://www.w3.org/1999/xlink">
    <title>Home_Artboard</title>
    <g id="Page-1" stroke="none" stroke-width="1" fill="none" fill-rule="evenodd">
        <g id="Home_Artboard" fill-rule="nonzero">
            <rect id="Rectangle" fill-opacity="0" fill="#000000" x="0" y="0" width="283" height="228"></rect>
            <g id="Group_344" transform="translate(4.278000, 14.359000)">
                <path d="M113.427,75.545 C111.165887,72.8661732 108.720258,70.3487025 106.108,68.011 L7.318,67.751 C4.70608613,70.0887376 2.26079223,72.6062074 0,75.285 L113.427,75.545 Z" id="Path_149" fill="#3F3D56"></path>
                <path d="M63.536,42.555 L63.536,69.248 L44.832,69.248 L44.832,42.555 C44.8322115,42.1609721 45.0887107,41.8128949 45.465,41.696 C45.5514169,41.6673619 45.6419652,41.6531715 45.733,41.6539657 L62.633,41.6539657 C62.8729054,41.652134 63.1036263,41.7461308 63.2739261,41.9151162 C63.4442258,42.0841016 63.54,42.3140874 63.54,42.554 L63.536,42.555 Z" id="Path_150-path" fill="#2F2E41"></path>
                <path d="M63.592,68.394 L63.592,70.968 C63.5882346,71.2425676 63.3665676,71.4642346 63.092,71.468 L45.279,71.468 C45.0028576,71.468 44.779,71.2441424 44.779,70.968 L44.779,68.394 L63.592,68.394 Z" id="Path_151" fill="#3F3D56"></path>
                <path d="M92.952,2.34 L92.952,51.076 C92.9509023,52.3674352 91.9054315,53.4146947 90.614,53.418 L18.387,53.418 C17.0940062,53.4168972 16.0461028,52.3689938 16.045,51.076 L16.045,2.34 C16.0477537,1.04801546 17.0950136,0.00164992782 18.387,-7.10542736e-15 L90.614,-7.10542736e-15 C91.9044243,0.00384910894 92.9492543,1.04957286 92.952,2.34 Z" id="Path_152" fill="#3F3D56"></path>
                <path d="M91.258,2.946 L91.258,50.475 C91.2568988,51.1660039 90.6970039,51.7258988 90.006,51.727 L18.989,51.727 C18.2979961,51.7258988 17.7381012,51.1660039 17.737,50.475 L17.737,2.946 C17.737,2.25405252 18.2970545,1.69265406 18.989,1.691 L90.006,1.691 C90.6979455,1.69265406 91.258,2.25405252 91.258,2.946 Z" id="Path_153" fill="#6C63FF"></path>
                <path d="M76.777,72.077 C76.631343,72.2595484 76.4105377,72.365903 76.177,72.366 L33.923,72.366 C33.6889152,72.3658952 33.4673526,72.2602623 33.3198939,72.0784612 C33.1724351,71.8966601 33.1147972,71.6580681 33.163,71.429 L33.819,68.314 C33.8752543,68.0552872 34.0590595,67.8428566 34.307,67.75 C34.3949247,67.715511 34.488553,67.6978709 34.583,67.697999 L75.52,67.697999 C75.6144492,67.6978471 75.7080819,67.715488 75.796,67.75 C76.0439405,67.8428566 76.2277457,68.0552872 76.284,68.314 L76.94,71.429 C76.9860586,71.6585259 76.9261766,71.8965842 76.777,72.077 Z" id="Path_154" fill="#2F2E41"></path>
                <path d="M75.519,68.35 C75.5316653,68.3499692 75.5442212,68.3523446 75.556,68.357 C75.5963646,68.3726552 75.6265833,68.4069776 75.637,68.449 L76.293,71.566 C76.2992953,71.6015285 76.2898031,71.638037 76.267,71.666 L76.267,71.666 C76.2434112,71.6970348 76.205915,71.7142831 76.167,71.712 L33.922,71.712 C33.8832181,71.7135933 33.8460259,71.6964849 33.822,71.666 C33.7979801,71.6386402 33.7876802,71.601855 33.794,71.566 L34.45,68.447 C34.4600738,68.4050248 34.490475,68.3708703 34.531,68.356 C34.5449248,68.3501121 34.5598816,68.3470527 34.575,68.347 L75.519,68.35 Z" id="Path_155" fill="#FFFFFF"></path>
                <path d="M87.722,8.239 L21.274,8.239 C21.1279207,8.239 21.0095,8.12057932 21.0095,7.9745 C21.0095,7.82842068 21.1279207,7.71 21.274,7.71 L87.722,7.71 C87.8680793,7.71 87.9865,7.82842068 87.9865,7.9745 C87.9865,8.12057932 87.8680793,8.239 87.722,8.239 Z" id="Path_156" fill="#3F3D56"></path>
                <ellipse id="Ellipse_19" fill="#3F3D56" cx="25.795" cy="4.778" rx="1.548" ry="1.583"></ellipse>
                <ellipse id="Ellipse_20" fill="#3F3D56" cx="31.145" cy="4.778" rx="1.548" ry="1.583"></ellipse>
                <ellipse id="Ellipse_21" fill="#3F3D56" cx="36.494" cy="4.778" rx="1.548" ry="1.583"></ellipse>
                <path d="M84.785,3.876 C84.7852657,3.95158684 84.7554935,4.02418333 84.7022331,4.07781884 C84.6489726,4.13145434 84.5765868,4.16173525 84.501,4.162 L80.701,4.162 C80.5487953,4.15301956 80.4299632,4.02696936 80.4299632,3.8745 C80.4299632,3.72203064 80.5487953,3.59598044 80.701,3.587 L84.501,3.587 C84.5771177,3.58752859 84.6499076,3.61827412 84.7033559,3.67247254 C84.7568042,3.72667096 84.7865323,3.79988231 84.786007,3.876 L84.785,3.876 Z" id="Path_157" fill="#3F3D56"></path>
                <path d="M84.7840018,4.956 C84.7842657,5.03158684 84.7544935,5.10418333 84.7012331,5.15781884 C84.6479726,5.21145434 84.5755868,5.24173525 84.5,5.242 L80.7,5.242 C80.5932398,5.24829911 80.4917802,5.19492117 80.4364983,5.10337159 C80.3812163,5.01182201 80.3812163,4.89717799 80.4364983,4.80562841 C80.4917802,4.71407883 80.5932398,4.66070089 80.7,4.667 L84.5,4.667 C84.6577236,4.66919451 84.7841145,4.79826512 84.783,4.956 L84.7840018,4.956 Z" id="Path_158" fill="#3F3D56"></path>
                <path d="M84.785,6.033 C84.7861105,6.19112028 84.6591156,6.32035103 84.501,6.322 L80.701,6.322 C80.5487953,6.31301956 80.4299632,6.18696936 80.4299632,6.0345 C80.4299632,5.88203064 80.5487953,5.75598044 80.701,5.747 L84.501,5.747 C84.5767603,5.74699953 84.6494031,5.77716347 84.7028798,5.83082781 C84.7563565,5.88449215 84.7862658,5.95724019 84.7860018,6.033 L84.785,6.033 Z" id="Path_159" fill="#3F3D56"></path>
                <path d="M31.17,16.305 L77.822,16.305 C79.0976448,16.3066527 80.1313473,17.3403552 80.133,18.616 L80.133,41.316 C80.1318982,42.5920353 79.0980347,43.6263462 77.822,43.628 L31.17,43.628 C29.8939653,43.6263462 28.8601018,42.5920353 28.859,41.316 L28.859,18.616 C28.8606527,17.3403552 29.8943552,16.3066527 31.17,16.305 L31.17,16.305 Z M29.381,18.616 L29.381,25.24 L45.781,25.24 L45.781,16.825 L31.17,16.825 C30.1819626,16.825 29.381,17.6259626 29.381,18.614 L29.381,18.616 Z M62.694,34.176 L62.694,25.761 L46.294,25.761 L46.294,34.176 L62.694,34.176 Z M46.294,34.696 L46.294,43.111 L62.694,43.111 L62.694,34.697 L46.294,34.696 Z M63.208,34.176 L79.608,34.176 L79.608,25.761 L63.208,25.761 L63.208,34.176 Z M62.688,25.24 L62.688,16.825 L46.288,16.825 L46.288,25.24 L62.688,25.24 Z M45.774,25.76 L29.374,25.76 L29.374,34.175 L45.774,34.175 L45.774,25.76 Z M77.814,16.825 L63.214,16.825 L63.214,25.24 L79.614,25.24 L79.614,18.616 C79.614,17.6279626 78.8130374,16.827 77.825,16.827 L77.814,16.825 Z M79.603,41.325 L79.603,34.695 L63.216,34.695 L63.216,43.1100011 L77.822,43.1100011 C78.2969921,43.1105311 78.7526969,42.9221449 79.088661,42.5863684 C79.4246251,42.2505919 79.6132658,41.7949923 79.6130003,41.32 L79.603,41.325 Z M31.17,43.109 L45.776,43.109 L45.776,34.697 L29.382,34.697 L29.382,41.321 C29.382,42.308647 30.1823531,43.1094479 31.17,43.11 L31.17,43.109 Z" id="Path_160" fill="#3F3D56"></path>
                <path d="M56.87,22.07 C57.1402971,21.210224 57.8550902,20.5643057 58.7377651,20.382206 C59.62044,20.2001063 60.5325034,20.5103969 61.121,21.193 C63.439478,22.7107553 65.6722223,24.3556014 67.809,26.12 L67.809,26.147 L62.818,25.803 C61.6095711,25.8034881 60.4146047,25.549298 59.311,25.057 C58.9376578,24.7917057 58.5100098,24.6127221 58.059,24.533 C57.4852328,24.5756017 56.9571162,24.86168 56.608,25.319 C54.308,27.768 53.643,31.513 51.063,33.665 C52.6890866,29.6525587 54.6308412,25.7754029 56.87,22.07 L56.87,22.07 Z" id="Path_161" fill="#FFFFFF"></path>
                <path d="M42.732,42.842 C42.987,42.521 43.09,42.442 43.341,42.122 C45.3836667,39.48 47.3036667,36.749 49.101,33.929 C50.3216667,32.0136667 51.4816667,30.062 52.581,28.074 C53.105,27.1286667 53.614,26.1756667 54.108,25.215 C54.492,24.4703333 54.8673333,23.721 55.234,22.967 C55.334,22.752 55.441,22.535 55.542,22.316 C55.781,21.806 56.015,21.294 56.267,20.791 C56.5277191,20.1871737 56.9267965,19.6531294 57.432,19.232 C57.6718859,19.0496358 57.9587335,18.9393365 58.259,18.914 C58.6829239,18.9158577 59.0981321,19.034538 59.459,19.257 C62.1843478,20.6896913 64.7281561,22.4438682 67.036,24.482 C69.3472956,26.5112157 71.4133304,28.8037894 73.192,31.313 C73.246,31.394 73.375,31.313 73.32,31.238 C73.1033333,30.932 72.8826667,30.6293333 72.658,30.33 C69.8626195,26.6122517 66.4350594,23.415204 62.532,20.885 C61.8753333,20.4596667 61.2063333,20.053 60.525,19.665 C60.182,19.471 59.837,19.279 59.486,19.096 C59.1504365,18.8990974 58.7740531,18.7820764 58.386,18.7537839 C57.049,18.733 56.353,20.247 55.886,21.266 C55.7366667,21.5866667 55.5853333,21.9063333 55.432,22.225 C54.8533333,23.435 54.2533333,24.635 53.632,25.825 C53.2473333,26.5583333 52.8546667,27.2876667 52.454,28.013 C51.2073333,30.2696667 49.879,32.4806667 48.469,34.646 C46.607,37.514 44.759,40.046 42.637,42.731 C42.568,42.811 42.673,42.917 42.732,42.842 Z" id="Path_162" fill="#FFFFFF"></path>
                <path d="M67.164,23.735 L67.397,23.476 C67.9802859,22.7563346 68.7031123,22.1620862 69.522,21.729 C69.9254947,21.5365874 70.3660063,21.4342222 70.813,21.429 C71.2744055,21.4418178 71.7292957,21.5412084 72.154,21.722 C72.354,21.803 72.554,21.894 72.748,21.992 C72.97,22.104 73.189,22.223 73.406,22.343 C73.814,22.5683333 74.2166667,22.804 74.614,23.05 C75.4046667,23.538 76.1713333,24.0636667 76.914,24.627 C77.298,24.9183333 77.674,25.2183333 78.042,25.527 C78.3846667,25.8156667 78.7203333,26.1123333 79.049,26.417 C79.119,26.482 79.224,26.377 79.149,26.317 L78.887,26.073 C78.6396667,25.849 78.3883333,25.6296667 78.133,25.415 C77.6663333,25.0216667 77.1886667,24.644 76.7,24.282 C75.9392185,23.7168137 75.1505605,23.1901517 74.337,22.704 C73.9303333,22.4606667 73.518,22.2273333 73.1,22.004 C72.974,21.937 72.846,21.871 72.717,21.804 C72.4238156,21.6560114 72.1191587,21.5319414 71.806,21.433 C71.36271,21.2896339 70.8937084,21.2435865 70.431,21.298 C69.9840858,21.3629368 69.5535046,21.5118928 69.162,21.737 C68.3627502,22.2447058 67.6531414,22.8813262 67.062,23.621 C67,23.7 67.1,23.811 67.164,23.735 Z" id="Path_163" fill="#FFFFFF"></path>
                <path d="M50.132,30.8 L48.14,30.068 L47.151,29.706 C46.8316167,29.5771224 46.505859,29.4646425 46.175,29.369 C45.8855913,29.2861904 45.5782586,29.2900146 45.291,29.38 C45.0345601,29.474818 44.7998803,29.6203875 44.601,29.808 C44.3968063,29.9937044 44.2066213,30.194251 44.032,30.408 C43.817,30.667 43.604,30.928 43.391,31.189 C42.5116667,32.2643333 41.638,33.3446667 40.77,34.43 C39.902,35.5153333 39.0396667,36.6053333 38.183,37.7 C37.325,38.7966667 36.4723333,39.8966667 35.625,41 L35.314,41.407 C35.257,41.482 35.128,41.407 35.186,41.332 C36.0386667,40.2146667 36.8973333,39.1033333 37.762,37.998 C38.6266667,36.8926667 39.4993333,35.7866667 40.38,34.68 C41.2586667,33.5786667 42.1433333,32.4823333 43.034,31.391 L43.701,30.578 C43.889,30.349 44.074,30.118 44.281,29.905 C44.6352477,29.4782122 45.1446811,29.2098243 45.697,29.159 C46.0281363,29.1703778 46.354444,29.2418741 46.66,29.37 C46.993,29.49 47.325,29.614 47.66,29.735 L49.666,30.467 L50.166,30.651 C50.26,30.691 50.2199864,30.834 50.132,30.8 Z" id="Path_164" fill="#FFFFFF"></path>
                <path d="M69.784,22.588 C70.8263035,22.0745461 72.0645157,22.1632356 73.023,22.82 C71.2486062,23.1258956 69.4936124,23.5352606 67.767,24.046 C68.484,23.625 69.045,22.967 69.784,22.588 Z" id="Path_165" fill="#FFFFFF"></path>
                <path d="M73.033,22.817 L73.233,22.976 C73.167,22.921 73.099,22.869 73.033,22.819 L73.033,22.817 Z" id="Path_166" fill="#FFFFFF"></path>
                <path d="M44.677,30.808 C44.8509008,30.5510121 45.0934284,30.3479819 45.377,30.222 L45.651,30.233 C43.5663157,33.9159628 40.7510682,37.1341177 37.378,39.69 L44.677,30.808 Z" id="Path_167" fill="#FFFFFF"></path>
                <circle id="Ellipse_22" fill="#FFFFFF" cx="45.957" cy="25.199" r="1.577"></circle>
                <path d="M23.074,42.722 C22.4277311,42.720899 21.904101,42.1972689 21.903,41.551 L21.903,17.351 C21.903,16.7042746 22.4272746,16.18 23.074,16.18 C23.7207254,16.18 24.245,16.7042746 24.245,17.351 L24.245,41.551 C24.243899,42.1972689 23.7202689,42.720899 23.074,42.722 L23.074,42.722 Z" id="Path_168" fill="#3F3D56"></path>
                <path d="M23.074,42.721 C22.4277311,42.719899 21.904101,42.1962689 21.903,41.55 L21.903,36.418 C22.1765124,36.0449375 22.6114152,35.8245237 23.074,35.8245237 C23.5365848,35.8245237 23.9714876,36.0449375 24.245,36.418 L24.245,41.55 C24.243899,42.1962689 23.7202689,42.719899 23.074,42.721 L23.074,42.721 Z" id="Path_169" fill="#2F2E41"></path>
                <path d="M23.074,37.777 C22.3783498,37.7764486 21.8145514,37.2126502 21.814,36.517 L21.814,30.997 C22.1081678,30.595045 22.5764011,30.3574878 23.0745,30.3574878 C23.5725989,30.3574878 24.0408322,30.595045 24.335,30.997 L24.335,36.517 C24.334448,37.2130405 23.7700407,37.777 23.074,37.777 Z" id="Path_170" fill="#6C63FF"></path>
                <path d="M23.074,36.773 C22.5669066,36.7719 22.1561,36.3610934 22.155,35.854 L22.155,31.828 C22.3692616,31.5346267 22.7107151,31.3611803 23.074,31.3611803 C23.4372849,31.3611803 23.7787384,31.5346267 23.993,31.828 L23.993,35.854 C23.9924489,36.3613212 23.5813212,36.7724489 23.074,36.773 L23.074,36.773 Z" id="Path_171" fill="#3F3D56"></path>
            </g>
            <path d="M273.562,218.239 L273.562,218.239 C273.566217,218.345102 273.526687,218.448245 273.454099,218.52571 C273.381511,218.603175 273.281106,218.648608 273.175,218.652 L4.955,218.652 L4.955,217.824 L273.178,217.824 C273.284282,217.827132 273.384943,217.872451 273.457746,217.949945 C273.530549,218.027439 273.569502,218.13073 273.566217,218.237 L273.562,218.239 Z" id="Path_128" fill="#CDCDCD"></path>
            <g id="Group_351" transform="translate(4.955000, 22.957000)">
                <g id="Group_345" transform="translate(163.497516, 4.341318)">
                    <path d="M13.1094842,60.3006819 C13.1094842,60.3006819 -2.30851583,62.1546819 0.296484175,49.9646819 C2.90148417,37.7746819 17.6394842,15.2566819 17.6394842,15.2566819 L26.0074842,19.9496819 L16.3964842,42.6596819 L20.5324842,45.9226819 L13.1094842,60.3006819 Z" id="Path_129" fill="#AB6F77"></path>
                    <polygon id="Path_130" fill="#F8974D" points="63.6354842 45.4596819 61.4624842 63.3286819 7.02048417 63.0616819 17.9544842 44.0616819"></polygon>
                    <path d="M25.8446764,5.63106118 C31.5666764,5.63106118 36.2056764,8.62406118 36.2056764,12.3150612 C36.2056764,16.0060612 31.5706764,18.9990612 25.8456764,18.9990612 C20.1206764,18.9990612 15.4846764,16.0070612 15.4846764,12.3150612 C15.4846764,8.62306118 20.1196764,5.63106118 25.8446764,5.63106118 Z" id="Path_201" fill="#AB6F77" transform="translate(25.845176, 12.315061) rotate(-54.402000) translate(-25.845176, -12.315061) "></path>
                </g>
                <rect id="Rectangle_325" fill="#3F3D56" transform="translate(223.569000, 156.700500) rotate(-90.000000) translate(-223.569000, -156.700500) " x="184.7945" y="155.0295" width="77.549" height="3.342"></rect>
                <rect id="Rectangle_326" fill="#3F3D56" transform="translate(207.524000, 156.700500) rotate(-90.000000) translate(-207.524000, -156.700500) " x="168.7495" y="155.0295" width="77.549" height="3.342"></rect>
                <rect id="Rectangle_327" fill="#A9A9A9" transform="translate(134.969000, 132.299500) rotate(-90.000000) translate(-134.969000, -132.299500) " x="71.7935" y="130.6285" width="126.351" height="3.342"></rect>
                <rect id="Rectangle_328" fill="#3F3D56" transform="translate(181.569000, 156.700500) rotate(-90.000000) translate(-181.569000, -156.700500) " x="142.7945" y="155.0295" width="77.549" height="3.342"></rect>
                <rect id="Rectangle_329" fill="#3F3D56" transform="translate(170.493000, 156.700500) rotate(-90.000000) translate(-170.493000, -156.700500) " x="131.7185" y="155.0295" width="77.549" height="3.342"></rect>
                <polygon id="Path_131" fill="#3F3D56" points="218.89 116.251 154.341 116.251 141.961 133.816 206.19 137.645"></polygon>
                <g id="Group_347" transform="translate(51.246854, 32.606449)">
                    <g id="Group_346" transform="translate(-0.000000, 0.000000)">
                        <polygon id="Path_132" fill="#AB6F77" points="49.4461462 23.5555512 49.7401462 10.8145512 10.7811462 13.8145512 10.5811462 22.4455512"></polygon>
                        <path d="M23.0791462,12.2935512 L21.2161462,16.7765512 L18.5401462,16.8615512 C18.5401462,16.8615512 21.6731462,17.8215512 22.5401462,23.5145512 L19.9691462,24.2855512 C17.9566917,25.8522438 15.424128,26.5957487 12.8841462,26.3655512 L0.510146184,25.3305512 L0.462146184,21.0155512 L9.01614618,20.0265512 C9.01614618,20.0265512 10.9221462,18.7725512 1.48714618,13.6175512 C1.48714618,13.6175512 -1.63785382,11.7065512 1.17214618,2.26855122 C1.54995752,0.965803233 2.7234256,0.0543168421 4.07914618,0.0105512206 C4.86677791,-0.0802115322 5.60091441,0.423147598 5.80014618,1.19055122 C6.51514618,3.54855122 5.80014618,5.90755122 7.75014618,7.37855122 C9.70014618,8.84955122 23.0771462,12.2925512 23.0771462,12.2925512 L23.0791462,12.2935512 Z" id="Path_133" fill="#201F37"></path>
                    </g>
                    <path d="M162.812146,72.2525512 C162.812146,72.2525512 149.370146,95.1115512 118.954146,90.9935512 C111.714901,90.0084958 105.345585,85.7125157 101.720146,79.3695512 C94.7071462,67.1165512 84.0591462,45.6615512 87.5111462,33.5115512 L36.0691462,23.6945512 L32.0161462,11.2015512 L87.6901462,3.96955122 C92.6147957,3.32983804 97.4387817,5.72485073 99.9061462,10.0345512 L127.026146,57.3965512 L135.111146,58.2795512 L162.812146,72.2525512 Z" id="Path_134" fill="#282834"></path>
                </g>
                <polygon id="Path_135" fill="#A0616A" points="101.709 61.378 100.977 48.658 62.383 54.779 62.883 63.399"></polygon>
                <path d="M74.522,52.272 L73.022,56.89 L70.361,57.19 C70.361,57.19 73.561,57.89 74.886,63.5 L72.386,64.476 C70.5045609,66.2005268 68.0380869,67.145651 65.486,67.12 L53.075,67.083 L52.681,62.783 L61.128,61.109 C61.128,61.109 62.928,59.709 53.107,55.326 C53.107,55.326 49.838,53.672 51.881,44.039 C52.1540259,42.7117643 53.2495955,41.7106195 54.596,41.558 C55.3744664,41.4026236 56.1482647,41.8452208 56.409,42.595 C57.309,44.895 56.78,47.295 58.849,48.607 C60.918,49.919 74.522,52.272 74.522,52.272 L74.522,52.272 Z" id="Path_136" fill="#191823"></path>
                <path d="M218.628,100.795 C218.628,100.795 206.519,126.172 175.87,124.508 C168.576,124.108 161.61,122.562 157.483,116.535 C149.508,104.885 137.988,80.623 140.451,68.235 L88.387,62.592 L83.345,50.466 L138.252,38.777 C143.109319,37.7427624 148.110667,39.7417222 150.917,43.839 L181.76,88.863 L189.892,89.092 L218.628,100.792 L218.628,100.795 Z" id="Path_137" fill="#2F2E41"></path>
                <polygon id="Path_138" fill="#3F3D56" points="190.613 0 187.939 2.005 201.981 21.393 204.655 20.725"></polygon>
                <path d="M219.895,43.052 L235.271,42.384 L241.957,72.464 C241.957,72.464 227.918,125.278 211.205,123.272 C211.205,123.272 200.843,115.584 200.843,112.91 C200.843,110.236 186.798,103.55 186.798,103.55 L183.456,92.185 L193.484,76.809 C196.781444,68.645716 202.970487,61.983194 210.869,58.094 L219.895,43.05 L219.895,43.052 Z" id="Path_139" fill="#FFAF73"></path>
                <polygon id="Path_140" fill="#A3A3A3" points="169.982 66.45 0 66.45 0 69.793 100.121 69.793 100.121 195.476 103.463 195.476 103.463 69.793 169.982 69.793"></polygon>
                <circle id="Ellipse_16" fill="#A0616A" cx="227.916" cy="22.328" r="18.051"></circle>
                <polygon id="Path_141" fill="#E6E6E6" points="174.423 45.391 161.823 50.404 186.559 83.162 195.25 76.477"></polygon>
                <path d="M214.21,108.232 C214.21,108.232 209.53,123.039 199.503,115.632 C189.476,108.225 175.059,85.499 175.059,85.499 L182.789,79.816 L199.502,97.945 L204.182,95.527 L214.21,108.227 L214.21,108.232 Z" id="Path_142" fill="#A0616A"></path>
                <polygon id="Path_143" fill="#FCA25E" points="221.563 56.088 233.207 51.397 236.94 65.447 214.209 114.917 199.502 94.862"></polygon>
                <ellipse id="Ellipse_17" fill="#A0616A" transform="translate(175.770380, 76.812255) rotate(-30.000000) translate(-175.770380, -76.812255) " cx="175.77038" cy="76.8122552" rx="6.685" ry="10.362"></ellipse>
                <path d="M229.888,76.978 C234.523,61.791 239.488,56.985 244.718,59.994 C246.615907,61.1350542 247.982298,62.9838484 248.516129,65.1330525 C249.04996,67.2822567 248.707428,69.5555226 247.564,71.452 C241.621,81.532 229.375,104.626 231.926,119.932 C231.926,119.932 235.937,141.325 203.848,141.325 C171.759,141.325 141.007,133.971 141.007,133.971 L157.72,131.297 L195.727,134.011 C199.861915,134.336604 203.925127,132.79204 206.799623,129.801921 C209.674119,126.811802 211.05733,122.690868 210.569,118.572 C210.530333,118.287333 210.484667,117.999333 210.432,117.708 C208.527,107.228 229.888,76.977 229.888,76.977 L229.888,76.978 Z" id="Path_144" fill="#3F3D56"></path>
            </g>
            <path d="M226.104,37.802 C225.413596,39.7344987 225.74305,41.8847672 226.980377,43.5219082 C228.217704,45.1590492 230.196443,46.0628124 232.244,45.926 L232.344,45.919 L232.344,45.919 C235.285226,49.5941442 235.36749,54.7936491 232.544,58.56 L232.544,58.56 C232.311713,63.4138089 233.071872,68.2639948 234.778,72.814 L239.572,85.597 L246.952,82.153 L250.452,91.505 L271.052,80.89 L258.565,52.79 L254.754,37.546 C253.45219,32.34261 250.118206,27.8785461 245.498427,25.1531794 C240.878649,22.4278128 235.35894,21.6687778 230.175,23.046 L221.886,25.246 C218.749054,26.079042 216.08963,28.1594705 214.525965,31.0036475 C212.962301,33.8478246 212.630609,37.2079882 213.608,40.303 L213.608,40.303 L226.096,37.803" id="Path_145" fill="#191823"></path>
            <g id="Group_354" transform="translate(9.292537, 183.783897)">
                <path d="M60.9524628,19.7131028 L60.9524628,34.0001028 L17.3144628,34.0001028 C17.315015,26.1102298 23.7105899,19.7142072 31.6004628,19.7131028 C36.1382907,18.4467187 40.8515205,17.9249403 45.5564628,18.1681028 C50.7154493,18.3645933 55.8573025,18.880582 60.9524628,19.7131028 L60.9524628,19.7131028 Z" id="Path_192" fill="#FF6584"></path>
                <path d="M54.7194628,29.7191028 L84.3444628,29.7191028 C84.8425396,29.7198978 85.3199006,29.9185208 85.6715314,30.2712769 C86.0231622,30.6240329 86.2202591,31.102026 86.2194628,31.6001028 L86.2194628,31.6001028 C86.2202591,32.0981796 86.0231622,32.5761726 85.6715314,32.9289287 C85.3199006,33.2816848 84.8425396,33.4803078 84.3444628,33.4811028 L54.7194628,33.4811028 L54.7194628,29.7191028 Z" id="Path_193" fill="#964958"></path>
                <path d="M58.2734628,7.4871028 L63.7734628,0.819102798 C64.0332358,0.277973828 64.6006815,-0.0460196266 65.1987342,0.0053182268 C65.7967869,0.0566560802 66.3007136,0.472617963 66.4644628,1.0501028 L68.6334628,8.7091028 L58.2734628,7.4871028 Z" id="Path_194" fill="#964958"></path>
                <path d="M51.5984628,10.8821028 L53.6804628,2.4901028 C53.6789886,1.88883577 54.0504975,1.34967065 54.612868,1.13691792 C55.1752384,0.924165203 55.8105913,1.08242017 56.2074628,1.5341028 L61.4734628,7.5021028 L51.5984628,10.8821028 Z" id="Path_195" fill="#FF6584"></path>
                <path d="M6.76657427,19.4296236 L12.5786935,19.4296236 L12.5786935,31.9817215 C12.591366,33.5358446 11.9860507,35.0313295 10.8959485,36.1390915 C9.80585034,37.2465318 8.32046867,37.8755711 6.76657427,37.8878265 L6.76657427,37.8878265 L6.76657427,19.4296236 Z" id="Path_196" fill="#FF6584" transform="translate(9.672731, 28.658725) rotate(106.024110) translate(-9.672731, -28.658725) "></path>
                <path d="M54.7194628,30.7401028 L77.8954628,30.7401028 C78.7489282,30.7895578 79.4026504,31.5182974 79.3594628,32.3721028 L79.3594628,32.3721028 C79.4026504,33.2259082 78.7489282,33.9546478 77.8954628,34.0041028 L54.7194628,34.0041028 L54.7194628,30.7401028 Z" id="Path_197" fill="#FF6584"></path>
                <path d="M60.9504628,19.7131028 L60.9504628,33.9201028 C56.6785736,34.3749159 52.4337474,32.8476273 49.4309004,29.7753639 C46.4280534,26.7031004 44.9981568,22.4244843 45.5504628,18.1641028 C50.7108498,18.3614161 55.8540447,18.8784074 60.9504628,19.7121028 L60.9504628,19.7131028 Z" id="Path_198" fill="#000000" opacity="0.2"></path>
                <circle id="Ellipse_28" fill="#FF6584" cx="60.9534628" cy="19.9741028" r="14.027"></circle>
                <ellipse id="Ellipse_29" fill="#3F3D56" transform="translate(74.463590, 18.972574) rotate(-33.007062) translate(-74.463590, -18.972574) " cx="74.4635898" cy="18.9725738" rx="2.37412216" ry="1.60475851"></ellipse>
                <ellipse id="Ellipse_30" fill="#3F3D56" cx="70.2874628" cy="17.6531028" rx="1" ry="1.316"></ellipse>
                <ellipse id="Ellipse_31" fill="#3F3D56" cx="73.5514628" cy="15.4271028" rx="1" ry="1"></ellipse>
                <path d="M59.7764628,5.7901028 C59.3791126,5.11907845 59.1143179,4.37799259 58.9964628,3.6071028" id="Path_199" fill="#3F3D56"></path>
                <path d="M60.1204628,4.9131028 C60.3226738,4.16013598 60.6675847,3.45300055 61.1364628,2.8301028" id="Path_200" fill="#3F3D56"></path>
            </g>
        </g>
    </g>
</svg>