<svg xmlns="http://www.w3.org/2000/svg" xmlns:xlink="http://www.w3.org/1999/xlink" width="229.476" height="109.751" viewBox="0 0 229.476 109.751"><defs><clipPath id="a"><path d="M229.476,0V109.751H0V0Z"/></clipPath><clipPath id="b"><path d="M135.559,0V48.68H0V0Z"/></clipPath><clipPath id="c"><path d="M23.361,1l.362.195c.359.194.711.385,1.054.548,4.607,2.788,9.48,5.151,13.928,8.187,2.348,1.46,2.02,4.505,2.1,6.886-.1,5.027.151,10.063-.115,15.091-.053,2.62-2.693,3.85-4.6,5.054-4.563,2.5-8.958,5.311-13.618,7.621-2.368,1.24-4.661-.13-6.777-1.376l-.383-.225c-.381-.222-.756-.435-1.124-.621-4.031-2.469-8.32-4.505-12.209-7.2C.162,34.031.021,31.956.015,29.986V28.909c0-.211,0-.418-.011-.619.124-5.045-.168-10.1.151-15.126.089-2.868,3.136-4.027,5.2-5.337C9.928,5.4,14.252,2.471,18.965.321,20.47-.422,21.966.259,23.361,1Zm6.023,18.32c.558,4.089-.434,8.727-4.138,11.072-3.668,2.664-8.541,1.655-12.067-.7q1.209-.916,2.419-1.806c-2.33-.531-4.66-1.08-6.982-1.62L10.327,33c.434-.558.877-1.124,1.311-1.691,3.615,2.85,8.683,4.24,13,2.124,5.245-2.142,7.93-8.063,7.23-13.506ZM14.021,11.331c-4.51,2.531-6.512,7.9-5.963,12.887.62.15,1.861.46,2.481.611-.549-4.089.443-8.762,4.182-11.081,3.641-2.629,8.479-1.655,11.97.735-.8.6-1.6,1.2-2.4,1.8,2.33.531,4.66,1.089,6.982,1.637q-.851-3.4-1.719-6.8c-.443.575-.895,1.142-1.338,1.708C24.317,9.561,18.469,8.543,14.021,11.331Z" transform="translate(0 0)"/></clipPath><clipPath id="d"><path d="M40.818,0V45.071H0V0Z"/></clipPath><clipPath id="e"><path d="M12.422,1.925c4.067,3.239,4.173,10.019.921,13.86C10.6,18.566,6.7,18.74,2.966,18.684l-.6-.011c-.8-.016-1.594-.037-2.362-.038V.049C.578.057,1.165.051,1.757.04L2.47.026,3.186.012C6.411-.045,9.691.027,12.422,1.925ZM3.9,3.5q0,5.855.009,11.71c.442-.051.9-.075,1.371-.1l.47-.021c1.648-.077,3.323-.23,4.458-1.556a7.465,7.465,0,0,0,.416-8.01C9.587,3.829,7.68,3.642,5.83,3.582l-.442-.013C4.874,3.555,4.371,3.542,3.9,3.5Z" transform="translate(0 0)"/></clipPath><clipPath id="f"><path d="M15.641,0V18.692H0V0Z"/></clipPath><clipPath id="g"><path d="M6.707,0c1.595.027,3.2.053,4.8.089,2.2,6.2,4.483,12.382,6.689,18.578-1.418-.035-2.835-.071-4.244-.115q-.665-2.177-1.32-4.355c-2.348.009-4.687.009-7.035,0q-.731,2.217-1.462,4.443c-1.382-.009-2.764-.018-4.138-.018Q3.376,9.316,6.707,0ZM9.09,2.894c-.824,2.584-1.648,5.16-2.5,7.736,1.7,0,3.411.027,5.121.027C10.827,8.072,9.959,5.479,9.09,2.894Z"/></clipPath><clipPath id="h"><path d="M18.2,0V18.666H0V0Z"/></clipPath><clipPath id="k"><path d="M10.269,1.03c3.136,1.744,3.376,6.364,1.391,9.072-1.9,2.328-5.165,2.31-7.894,2.514.018,2.009.018,4.018.027,6.027H0Q.013,9.35,0,.066C.855.1,1.725.074,2.6.047l.75-.023C5.724-.044,8.1-.039,10.269,1.03ZM3.792,3.447c-.009,1.884-.009,3.779,0,5.673.4-.065.846-.107,1.31-.154l.311-.033c1.773-.194,3.646-.565,3.632-2.725C9.105,4.03,7.315,3.684,5.554,3.562l-.31-.019c-.463-.027-.917-.044-1.326-.083Z" transform="translate(0 0)"/></clipPath><clipPath id="l"><path d="M12.934,0V18.644H0V0Z"/></clipPath><clipPath id="m"><path d="M14.176.006v3.54c-1.728,0-3.447,0-5.174.009q.013,7.514.009,15.038H5.05q0-7.528.009-15.046H0V.006C4.731-.011,9.454.015,14.176.006Z" transform="translate(0 0)"/></clipPath><clipPath id="n"><path d="M14.176,0V18.593H0V0Z"/></clipPath><clipPath id="o"><path d="M37.379.149a1.9,1.9,0,0,1,1.095,1.92c0,1.341-1.148,2.239-1.8,3.305q6.144,3.545,12.293,7.085a10.486,10.486,0,0,1,3.818,3.254,10.235,10.235,0,0,1,.965,5.091c0,6.569.015,13.137.01,19.706a10.964,10.964,0,0,1-.836,5.026,10.076,10.076,0,0,1-3.933,3.378q-8.657,4.99-17.318,9.969a10.541,10.541,0,0,1-4.737,1.711,10.07,10.07,0,0,1-4.769-1.682Q13.436,53.889,4.71,48.851A10.246,10.246,0,0,1,.865,45.624c-.995-1.852-.812-4.038-.856-6.07.007-6.41-.02-12.823,0-19.236A10.005,10.005,0,0,1,.77,15.857a10.394,10.394,0,0,1,4.2-3.517l.539-.305c.358-.2.712-.407,1.055-.62Q14.6,6.793,22.638,2.167c1.47-.793,3.06-1.7,4.8-1.485a13.776,13.776,0,0,1,4.4,1.9c1.107-.686,2.2-1.395,3.309-2.078A2.407,2.407,0,0,1,37.379.149ZM35.814,1.656q-9.6,5.9-19.2,11.777a4.88,4.88,0,0,0-1.382,1.28c-2.433,3.556-4.984,7.031-7.466,10.553a7.791,7.791,0,0,0-1.219,4.3,8.388,8.388,0,0,0,.99,4.549c-1.117,1.523-1.1,3.485-.927,5.279a3.639,3.639,0,0,0,1.168,2.246,23.433,23.433,0,0,0,3.894,2.711q7.051,4.289,14.146,8.5a3.234,3.234,0,0,0,3.321.1c5.771-3.159,11.52-6.362,17.294-9.518.7-.433,1.553-.854,1.851-1.682-.034-.818-.792-1.29-1.341-1.782,0-1.412,0-2.823,0-4.235.658-.443,1.638-.847,1.665-1.767-.066-.956-.973-1.492-1.663-2.01q-.007-2.092,0-4.184a4.838,4.838,0,0,0,.824-.735,1.54,1.54,0,0,0-.583-2.086q-7.545-3.913-15.107-7.8A27.675,27.675,0,0,0,28.151,15.3c.858-1.154,1.48-2.458,2.316-3.624q3.2-4.483,6.4-8.973a.9.9,0,0,0-.041-1.268C36.472,1.213,36.126,1.493,35.814,1.656Z" transform="translate(0)"/></clipPath><clipPath id="p"><path d="M4.95,0V4.926H0V0Z"/></clipPath><clipPath id="q"><path d="M4.784,0c0,3.049.032,6.1.02,9.148a7.564,7.564,0,0,1,4.579-1.4,9.4,9.4,0,0,1,7.69,5.05,10.459,10.459,0,0,1-2.533,13.047,8.231,8.231,0,0,1-9.794.428c0,.316,0,.635,0,.954H0V0ZM4.759,12.967c-.029,3.069,0,6.138-.015,9.207a5.243,5.243,0,0,0,6.554.414c2.16-1.609,2.68-4.707,1.851-7.155a5.048,5.048,0,0,0-3.786-3.407A6.478,6.478,0,0,0,4.759,12.967Z"/></clipPath><clipPath id="r"><path d="M1.8,0A11.725,11.725,0,0,1,4.033,1.188a9.253,9.253,0,0,1-1.746.932A9.461,9.461,0,0,1,0,.92L.218.792.652.53A4.691,4.691,0,0,1,1.8,0Z"/></clipPath><clipPath id="s"><path d="M5.213,0V21.3H17.84v4.916H0V0Q2.6,0,5.213,0Z" transform="translate(0 0)"/></clipPath><clipPath id="t"><path d="M19.749,0V4.527H12.464V26.211H7.285V4.527H0V0Z"/></clipPath><clipPath id="u"><path d="M1.89,0A13.71,13.71,0,0,1,4.021,1.163,5.523,5.523,0,0,1,2.16,2.1,12.089,12.089,0,0,1,0,.92,4.9,4.9,0,0,1,1.89,0Z"/></clipPath><clipPath id="v"><path d="M6.808,0q0,2.665,0,5.332l5.1.085q-1.532,2.03-3.062,4.062c-.683.041-1.361.078-2.038.119.015,2.979-.029,5.96.017,8.937a1.912,1.912,0,0,0,2,2.042c1.726-.178,3.411-.633,5.118-.939-1.117,1.431-1.916,3.157-3.362,4.3-1.421,1.141-3.389,1-5.047.57a4.148,4.148,0,0,1-2.78-2.385,11.087,11.087,0,0,1-.7-4.332q0-4.1,0-8.192L0,9.479C0,8.915,0,8.35,0,7.786Q2.883,3.894,5.772.01C6.116,0,6.46,0,6.808,0Z" transform="translate(0)"/></clipPath><clipPath id="w"><path d="M1.824,0a13.932,13.932,0,0,1,2.2,1.175,8.6,8.6,0,0,1-1.712.937A8.138,8.138,0,0,1,0,.913,7.614,7.614,0,0,1,1.824,0Z"/></clipPath><clipPath id="x"><path d="M1.812,0A10.133,10.133,0,0,1,4.069,1.222a9.763,9.763,0,0,1-1.8.942A10.254,10.254,0,0,1,0,.942,8.487,8.487,0,0,1,1.812,0Z"/></clipPath><clipPath id="y"><path d="M2.3.136A17.761,17.761,0,0,1,4.035,1.163,7.915,7.915,0,0,1,2.2,2.095,13.691,13.691,0,0,1,0,.9C.707.557,1.468-.339,2.3.136Z" transform="translate(0 0)"/></clipPath><clipPath id="z"><path d="M1.777,0A11.275,11.275,0,0,1,4.062,1.193a7.676,7.676,0,0,1-1.79.956A11.132,11.132,0,0,1,0,.922,8.991,8.991,0,0,1,1.777,0Z"/></clipPath><clipPath id="aa"><path d="M1.726,0A7.469,7.469,0,0,1,4.067,1.19a7.435,7.435,0,0,1-1.836.976A10.639,10.639,0,0,1,0,.915,11.484,11.484,0,0,1,1.726,0Z"/></clipPath><clipPath id="ab"><path d="M1.816,0A10.85,10.85,0,0,1,4.062,1.2a9.1,9.1,0,0,1-1.729.944A7.922,7.922,0,0,1,0,.939L.22.81.66.544A4.938,4.938,0,0,1,1.816,0Z"/></clipPath><clipPath id="ac"><path d="M1.885,0A10.716,10.716,0,0,1,4.06,1.2a9.528,9.528,0,0,1-1.746.927A8.531,8.531,0,0,1,0,.913,5.113,5.113,0,0,1,1.885,0Z"/></clipPath><clipPath id="ad"><path d="M1.68,0A4.4,4.4,0,0,1,3.233.685l.418.26c.139.086.279.169.42.245a9.075,9.075,0,0,1-1.658.944A7.048,7.048,0,0,1,0,.913,11.917,11.917,0,0,1,1.68,0Z"/></clipPath><clipPath id="ae"><path d="M1.9,0A11.094,11.094,0,0,1,4.089,1.229l-.227.135-.453.28a4.183,4.183,0,0,1-1.2.547A12.3,12.3,0,0,1,0,.961,6.028,6.028,0,0,1,1.9,0Z"/></clipPath><clipPath id="af"><path d="M1.768,0a8.782,8.782,0,0,1,2.3,1.239,8.719,8.719,0,0,1-1.824.949A11.335,11.335,0,0,1,0,.973,10.007,10.007,0,0,1,1.768,0Z"/></clipPath><clipPath id="ag"><path d="M13.693,2.449c-.846,1.331-1.694,2.66-2.533,4-.985-.915-2.129-2.076-3.606-1.852C5.817,4.859,4.8,6.674,4.767,8.307c-.046,3.714,0,7.43-.02,11.147H0V.493H4.75c0,.667,0,1.331-.012,2A5.567,5.567,0,0,1,8.475.03C10.526-.216,12.32,1.077,13.693,2.449Z" transform="translate(0 0)"/></clipPath><clipPath id="ah"><path d="M19.019,4.962a10.3,10.3,0,0,1,1.17,6.948c-5.093,0-10.187,0-15.28,0a6.043,6.043,0,0,0,2.636,3.29A7.146,7.146,0,0,0,15.1,14.3c.987,1,1.987,1.979,2.979,2.972a12.7,12.7,0,0,1-7.495,2.672,10.227,10.227,0,0,1-9.1-4.751A9.915,9.915,0,0,1,.67,6.388,10.191,10.191,0,0,1,7.248.418,10.427,10.427,0,0,1,19.019,4.962ZM7.553,4.785A6.107,6.107,0,0,0,4.91,8.1q5.245.007,10.489,0a6.324,6.324,0,0,0-1.877-2.774A5.3,5.3,0,0,0,7.553,4.785Z" transform="translate(0 0)"/></clipPath><clipPath id="ai"><path d="M16.455,2.105a9.587,9.587,0,0,1,3.826,6.666,13.6,13.6,0,0,1-.09,3.132c-5.091.01-10.184,0-15.275.007A5.75,5.75,0,0,0,8.55,15.639a6.709,6.709,0,0,0,6.1-1.19c1.017.9,2.041,1.8,3.053,2.706a10.956,10.956,0,0,1-5.7,2.719,11.9,11.9,0,0,1-5.674-.655A10.016,10.016,0,0,1,.951,14.208,9.887,9.887,0,0,1,1.175,5.3,10.23,10.23,0,0,1,8.558.122,10.554,10.554,0,0,1,16.455,2.105ZM7.663,4.719A6.013,6.013,0,0,0,4.915,8.1q5.245.015,10.487,0a6.345,6.345,0,0,0-1.89-2.782A5.3,5.3,0,0,0,7.663,4.719Z" transform="translate(0 0)"/></clipPath><clipPath id="aj"><path d="M10.967.663a9.588,9.588,0,0,1,3.557,2.6c-.939.952-1.887,1.893-2.821,2.85A6.094,6.094,0,0,0,8.346,4.01a3.617,3.617,0,0,0-3.331.927,1.231,1.231,0,0,0,.293,1.779C6.8,7.784,8.677,8,10.318,8.756a7.721,7.721,0,0,1,3.755,3.1,4.954,4.954,0,0,1-.441,5.318,7.731,7.731,0,0,1-5.313,2.745A11.14,11.14,0,0,1,4.025,19.4,8.35,8.35,0,0,1,1.4,17.9l2.119-3.344a16.692,16.692,0,0,0,3.652,1.438c1.009.056,2.477-.207,2.7-1.387.166-.891-.641-1.511-1.361-1.825-2.016-.957-4.352-1.222-6.161-2.611A5.278,5.278,0,0,1,0,5.85,5.325,5.325,0,0,1,2.643,1.32,9.47,9.47,0,0,1,10.967.663Z" transform="translate(0 0)"/></clipPath><clipPath id="ak"><path d="M1.843,0a12.106,12.106,0,0,1,2.25,1.217,8.984,8.984,0,0,1-1.79.976A10.348,10.348,0,0,1,0,.944,7.808,7.808,0,0,1,1.843,0Z"/></clipPath><clipPath id="al"><path d="M4.811,0V18.993H0V0Z"/></clipPath><clipPath id="am"><path d="M5.932,0l3.5,5.315Q11.158,2.658,12.891,0H18.3q-3.131,4.545-6.264,9.088,3.394,4.968,6.79,9.937h-5.44Q11.4,15.991,9.428,12.957,7.435,15.991,5.44,19.025H0q3.394-4.969,6.79-9.937Q3.674,4.546.558,0Z"/></clipPath><clipPath id="an"><path d="M3.61,0c0,.253,0,.509,0,.762-.453,0-.9,0-1.348,0,0,1.253,0,2.507,0,3.763H1.35V.762H0C0,.509,0,.253,0,0Z" transform="translate(0)"/></clipPath><clipPath id="ao"><path d="M1.368,0q.41,1.541.824,3.086c.273-1.029.541-2.059.814-3.086H4.381V4.527H3.528c0-1.183,0-2.368-.01-3.551q-.439,1.778-.89,3.556c-.3,0-.595-.007-.887-.01-.3-1.188-.595-2.375-.89-3.563Q.84,2.744.846,4.527H0V0Z"/></clipPath><clipPath id="ap"><path d="M1.8,0A10.959,10.959,0,0,1,4.113,1.236,8.289,8.289,0,0,1,2.294,2.2,12.018,12.018,0,0,1,0,.956,8.292,8.292,0,0,1,1.8,0Z"/></clipPath><clipPath id="aq"><path d="M1.9,0A12.628,12.628,0,0,1,4.086,1.241a6.157,6.157,0,0,1-1.924.983A13.3,13.3,0,0,1,0,.988,6.976,6.976,0,0,1,1.9,0Z"/></clipPath><clipPath id="ar"><path d="M1.79,0a8.707,8.707,0,0,1,2.3,1.214A7.4,7.4,0,0,1,2.221,2.2,10.709,10.709,0,0,1,0,.939,10.194,10.194,0,0,1,1.79,0Z"/></clipPath><clipPath id="as"><path d="M1.938,0A11.212,11.212,0,0,1,4.1,1.217a7.7,7.7,0,0,1-1.858.961A12.6,12.6,0,0,1,0,.944,4.879,4.879,0,0,1,1.938,0Z"/></clipPath><clipPath id="at"><path d="M4.8.013A11.444,11.444,0,0,1,6.973,1.24,48.727,48.727,0,0,1,2.367,3.815,8.52,8.52,0,0,1,0,2.559c1.263-.752,2.56-1.448,3.823-2.2C4.138.222,4.435-.065,4.8.013Z" transform="translate(0 0)"/></clipPath><clipPath id="au"><path d="M1.946,0A11,11,0,0,1,4.1,1.241,7.537,7.537,0,0,1,2.2,2.2,12.455,12.455,0,0,1,0,.966,5.546,5.546,0,0,1,1.946,0Z"/></clipPath><clipPath id="av"><path d="M1.9,0A13.541,13.541,0,0,1,4.1,1.236a5.609,5.609,0,0,1-1.924.981A13.2,13.2,0,0,1,0,.983,6.193,6.193,0,0,1,1.9,0Z"/></clipPath><clipPath id="aw"><path d="M35.044,0q0,2.172,0,4.344Q27.857,8.4,20.676,12.471a7.981,7.981,0,0,1-2.645,1.192,4.138,4.138,0,0,1-2.572-.769C10.711,10.071,5.947,7.274,1.2,4.454A3.147,3.147,0,0,1,0,1.541c.015-.416.122-.961.58-1.1A2.019,2.019,0,0,1,1.968.779C7.195,3.77,12.454,6.712,17.694,9.684Q26.365,4.836,35.044,0Z" transform="translate(0)"/></clipPath><clipPath id="ax"><path d="M1.89,0A7.47,7.47,0,0,1,3.318.739l.544.347q.136.086.272.171a5.349,5.349,0,0,1-1.968.976A11.586,11.586,0,0,1,0,.978L.228.842.683.56A4.532,4.532,0,0,1,1.89,0Z"/></clipPath><clipPath id="ay"><path d="M1.829,0A10.7,10.7,0,0,1,4.157,1.28a9.913,9.913,0,0,1-1.836.993,6.5,6.5,0,0,1-1.48-.738l-.56-.356Q.141,1.09,0,1.005A8.638,8.638,0,0,1,1.829,0Z"/></clipPath><clipPath id="az"><path d="M1.809,0A9.043,9.043,0,0,1,4.155,1.3,9.638,9.638,0,0,1,2.309,2.3,11.082,11.082,0,0,1,0,1.02,9.325,9.325,0,0,1,1.809,0Z"/></clipPath><clipPath id="ba"><path d="M35.043,0V4.339q-7.783,4.4-15.563,8.8a3.279,3.279,0,0,1-3.445.08c-4.908-2.872-9.789-5.79-14.69-8.671C.175,3.943-.089,2.473.024,1.283A.842.842,0,0,1,.972.411,7.819,7.819,0,0,1,3.179,1.472Q10.427,5.59,17.686,9.684,26.368,4.847,35.043,0Z"/></clipPath><clipPath id="bb"><path d="M30.39.083a.9.9,0,0,1,.042,1.263q-3.216,4.467-6.42,8.941c-.839,1.161-1.462,2.461-2.323,3.611a27.838,27.838,0,0,1,3.934,1.838q7.573,3.888,15.148,7.769a1.53,1.53,0,0,1,.584,2.078,4.834,4.834,0,0,1-.826.732q-.007,2.084,0,4.168c.692.516,1.6,1.05,1.667,2-.027.917-1.01,1.319-1.67,1.76,0,1.406,0,2.813,0,4.219.55.49,1.31.96,1.345,1.775-.3.824-1.149,1.244-1.856,1.676-5.789,3.145-11.554,6.336-17.341,9.484a3.261,3.261,0,0,1-3.33-.1q-7.111-4.2-14.185-8.468a23.5,23.5,0,0,1-3.9-2.7A3.618,3.618,0,0,1,.087,37.9c-.171-1.787-.191-3.742.929-5.26a8.314,8.314,0,0,1-.993-4.532,7.726,7.726,0,0,1,1.222-4.28c2.489-3.509,5.046-6.972,7.486-10.514a4.881,4.881,0,0,1,1.386-1.275Q19.748,6.172,29.373.3C29.686.139,30.033-.14,30.39.083Zm8.122,34.778q-8.7,4.823-17.4,9.649-7.268-4.1-14.547-8.182a7.864,7.864,0,0,0-2.213-1.057.843.843,0,0,0-.951.868,3.182,3.182,0,0,0,1.325,3.254c4.914,2.871,9.809,5.778,14.73,8.64a3.306,3.306,0,0,0,3.455-.08q7.808-4.376,15.605-8.768Zm0-7.321q-8.7,4.823-17.4,9.649C15.861,34.228,10.587,31.3,5.345,28.316a2.035,2.035,0,0,0-1.389-.337c-.46.138-.567.681-.582,1.1a3.126,3.126,0,0,0,1.2,2.9c4.76,2.81,9.537,5.6,14.3,8.409a4.169,4.169,0,0,0,2.579.766A8.028,8.028,0,0,0,24.1,39.965q7.2-4.056,14.407-8.1C38.514,30.426,38.512,28.983,38.512,27.54ZM20.227,31.127a9.363,9.363,0,0,0-1.814,1.016,11.136,11.136,0,0,0,2.315,1.271,9.688,9.688,0,0,0,1.851-.989A9.084,9.084,0,0,0,20.227,31.127Zm2.934-1.634a8.679,8.679,0,0,0-1.834,1l.281.173.562.355a6.529,6.529,0,0,0,1.485.736,9.96,9.96,0,0,0,1.841-.989l-.282-.177-.563-.36A6.547,6.547,0,0,0,23.161,29.492Zm-6.369-.4a7.822,7.822,0,0,0-1.895.975,11.641,11.641,0,0,0,2.173,1.249,5.376,5.376,0,0,0,1.973-.972l-.273-.17-.546-.345A7.51,7.51,0,0,0,16.792,29.092Zm11.254-2.439c-1.266.749-2.567,1.443-3.833,2.192.154.09.305.186.457.284l.456.3a4.561,4.561,0,0,0,1.462.672A48.938,48.938,0,0,0,31.2,27.531a11.491,11.491,0,0,0-2.178-1.222C28.659,26.231,28.361,26.517,28.045,26.653Zm-8.315.829a6.223,6.223,0,0,0-1.9.98A13.267,13.267,0,0,0,20,29.691a5.638,5.638,0,0,0,1.929-.977A13.6,13.6,0,0,0,19.731,27.482ZM13.381,27.1a5.575,5.575,0,0,0-1.951.963A12.508,12.508,0,0,0,13.636,29.3a7.577,7.577,0,0,0,1.909-.96A11.047,11.047,0,0,0,13.381,27.1Zm9.266-1.188a4.906,4.906,0,0,0-1.944.941,12.665,12.665,0,0,0,2.252,1.229,7.737,7.737,0,0,0,1.863-.958A11.26,11.26,0,0,0,22.647,25.913ZM16.139,25.5a10.247,10.247,0,0,0-1.795.936,10.756,10.756,0,0,0,2.227,1.254,7.431,7.431,0,0,0,1.87-.98c-.15-.084-.3-.176-.446-.27l-.443-.285A4.413,4.413,0,0,0,16.139,25.5Zm-6.183-.429a7.012,7.012,0,0,0-1.9.985l.6.384a9.393,9.393,0,0,0,1.568.847,6.19,6.19,0,0,0,1.929-.98A12.689,12.689,0,0,0,9.956,25.067Zm21.759-.381a8.33,8.33,0,0,0-1.8.953,12.075,12.075,0,0,0,2.3,1.237,8.331,8.331,0,0,0,1.824-.958A11.008,11.008,0,0,0,31.715,24.686ZM25.407,24.3a7.847,7.847,0,0,0-1.848.941,10.4,10.4,0,0,0,2.31,1.244,9.029,9.029,0,0,0,1.794-.972A12.163,12.163,0,0,0,25.407,24.3Zm-6.4-.4a10.046,10.046,0,0,0-1.772.97,11.39,11.39,0,0,0,2.254,1.21,8.764,8.764,0,0,0,1.829-.946A8.821,8.821,0,0,0,19.007,23.9Zm-6.134-.415a6.057,6.057,0,0,0-1.909.958,12.352,12.352,0,0,0,2.21,1.225,7.406,7.406,0,0,0,1.89-.958A11.146,11.146,0,0,0,12.873,23.488Zm21.536-.359a11.975,11.975,0,0,0-1.684.909,7.084,7.084,0,0,0,2.42,1.217,9.114,9.114,0,0,0,1.662-.941A8.282,8.282,0,0,0,34.409,23.129ZM28.3,22.756a5.14,5.14,0,0,0-1.89.909,8.573,8.573,0,0,0,2.32,1.212,9.571,9.571,0,0,0,1.75-.924A10.763,10.763,0,0,0,28.3,22.756Zm-6.388-.415a8.555,8.555,0,0,0-1.821.936,7.963,7.963,0,0,0,2.34,1.205,9.137,9.137,0,0,0,1.733-.941l-.273-.165-.545-.338A6.375,6.375,0,0,0,21.909,22.341Zm-6.33-.424a11.529,11.529,0,0,0-1.731.912,10.684,10.684,0,0,0,2.237,1.246,7.472,7.472,0,0,0,1.841-.972A7.509,7.509,0,0,0,15.579,21.917Zm15.4-.742a9.036,9.036,0,0,0-1.782.919,11.186,11.186,0,0,0,2.279,1.222,7.71,7.71,0,0,0,1.795-.953A11.331,11.331,0,0,0,30.982,21.175Zm-8.051.563a13.752,13.752,0,0,0,2.21,1.193A7.955,7.955,0,0,0,26.977,22a17.834,17.834,0,0,0-1.741-1.023C24.4,20.506,23.64,21.4,22.931,21.737Zm-4.408-1.406a8.529,8.529,0,0,0-1.816.938,10.3,10.3,0,0,0,2.274,1.217,9.816,9.816,0,0,0,1.807-.938A10.186,10.186,0,0,0,18.523,20.331Zm9.038-1.074a7.657,7.657,0,0,0-1.829.909,8.179,8.179,0,0,0,2.318,1.2,8.637,8.637,0,0,0,1.716-.934A14.006,14.006,0,0,0,27.561,19.257Zm-6.11-.451a4.923,4.923,0,0,0-1.895.917A12.147,12.147,0,0,0,21.723,20.9a5.552,5.552,0,0,0,1.865-.936A13.769,13.769,0,0,0,21.452,18.806Zm2.7-1.559a8.073,8.073,0,0,0-1.8.917,9.509,9.509,0,0,0,2.293,1.2,9.3,9.3,0,0,0,1.75-.929l-.273-.161-.544-.331A6.793,6.793,0,0,0,24.148,17.247Z" transform="translate(0 0)"/></clipPath></defs><g clip-path="url(#a)"><g transform="translate(0.886 3.54)"><g transform="translate(32.782)"><g clip-path="url(#b)"><g transform="translate(1.741 1.821)"><g transform="translate(0 0)" clip-path="url(#c)"><g transform="translate(0 0)"><g clip-path="url(#d)"><path d="M0,0H40.818V45.071H0Z" transform="translate(0)" fill="#fff"/></g></g></g><g transform="translate(63.646 13.176)"><g transform="translate(0 0)" clip-path="url(#e)"><g transform="translate(0 0)"><g clip-path="url(#f)"><path d="M0,0H15.641V18.692H0Z" fill="#fff"/></g></g></g></g><g transform="translate(81.163 13.19)"><g clip-path="url(#g)"><g clip-path="url(#h)"><path d="M0,0H18.2V18.666H0Z" fill="#fff"/></g></g></g><g transform="translate(42.56 13.225)"><g clip-path="url(#g)"><g clip-path="url(#h)"><path d="M0,0H18.2V18.666H0Z" fill="#fff"/></g></g></g><g transform="translate(102.241 13.168)"><g transform="translate(0 0)" clip-path="url(#k)"><g transform="translate(0 0)"><g clip-path="url(#l)"><path d="M0,0H12.934V18.644H0Z" transform="translate(0 0)" fill="#fff"/></g></g></g></g><g transform="translate(117.161 13.219)"><g transform="translate(0 0)" clip-path="url(#m)"><g transform="translate(0 0)"><g clip-path="url(#n)"><path d="M0,0H14.176V18.593H0Z" fill="#fff"/></g></g></g></g></g></g></g><g transform="translate(0 41.599)"><g transform="translate(0 0)" clip-path="url(#o)"><path d="M0,0H53.765V60.594H0Z" transform="translate(0 0)" fill="#fff"/></g><g transform="translate(77.994 17.677)"><g clip-path="url(#p)"><path d="M0,0H4.95V4.926H0Z" fill="#fff"/></g></g><g transform="translate(85.582 17.645)"><g clip-path="url(#q)"><path d="M0,0H18.333V27.691H0Z" fill="#fff"/></g></g><g transform="translate(28.807 18.663)"><g clip-path="url(#r)"><path d="M0,0H4.033V2.12H0Z" fill="#fff"/></g></g><g transform="translate(58.182 18.659)"><g transform="translate(0 0)" clip-path="url(#s)"><path d="M0,0H17.84V26.212H0Z" transform="translate(0 0)" fill="#fff"/></g></g><g transform="translate(134.346 18.66)"><g clip-path="url(#t)"><path d="M0,0H19.749V26.211H0Z" fill="#fff"/></g></g><g transform="translate(26.025 20.228)"><g clip-path="url(#u)"><path d="M0,0H4.021V2.1H0Z" fill="#fff"/></g></g><g transform="translate(187.575 20.546)"><g transform="translate(0)" clip-path="url(#v)"><path d="M0,0H13.947V24.825H0Z" transform="translate(0)" fill="#fff"/></g></g><g transform="translate(32.184 20.68)"><g clip-path="url(#w)"><path d="M0,0H4.023V2.112H0Z" fill="#fff"/></g></g><g transform="translate(23.182 21.758)"><g clip-path="url(#x)"><path d="M0,0H4.069V2.164H0Z" fill="#fff"/></g></g><g transform="translate(29.389 22.273)"><g transform="translate(0 0)" clip-path="url(#y)"><path d="M0,0H4.035V2.095H0Z" transform="translate(0 0)" fill="#fff"/></g></g><g transform="translate(35.641 22.605)"><g clip-path="url(#z)"><path d="M0,0H4.062V2.149H0Z" fill="#fff"/></g></g><g transform="translate(20.332 23.35)"><g clip-path="url(#aa)"><path d="M0,0H4.067V2.166H0Z" fill="#fff"/></g></g><g transform="translate(26.554 23.776)"><g clip-path="url(#ab)"><path d="M0,0H4.062V2.149H0Z" fill="#fff"/></g></g><g transform="translate(32.856 24.192)"><g clip-path="url(#ac)"><path d="M0,0H4.06V2.13H0Z" fill="#fff"/></g></g><g transform="translate(39.157 24.567)"><g clip-path="url(#ad)"><path d="M0,0H4.072V2.134H0Z" fill="#fff"/></g></g><g transform="translate(17.454 24.927)"><g clip-path="url(#ae)"><path d="M0,0H4.089V2.19H0Z" fill="#fff"/></g></g><g transform="translate(23.708 25.343)"><g clip-path="url(#af)"><path d="M0,0H4.072V2.188H0Z" fill="#fff"/></g></g><g transform="translate(105.231 25.418)"><g transform="translate(0 0)" clip-path="url(#ag)"><path d="M0,0H13.693V19.454H0Z" transform="translate(0 0)" fill="#fff"/></g></g><g transform="translate(118.286 25.414)"><g transform="translate(0 0)" clip-path="url(#ah)"><path d="M0,0H20.338V19.956H0Z" transform="translate(0 0)" fill="#fff"/></g></g><g transform="translate(149.806 25.419)"><g transform="translate(0 0)" clip-path="url(#ai)"><path d="M0,0H20.339V19.952H0Z" transform="translate(0 0)" fill="#fff"/></g></g><g transform="translate(199.721 25.42)"><g transform="translate(0 0)" clip-path="url(#aj)"><path d="M0,0H14.648V19.974H0Z" transform="translate(0 0)" fill="#fff"/></g></g><g transform="translate(30.016 25.74)"><g clip-path="url(#ak)"><path d="M0,0H4.094V2.193H0Z" fill="#fff"/></g></g><g transform="translate(78.068 25.879)"><g clip-path="url(#al)"><path d="M0,0H4.811V18.993H0Z" fill="#fff"/></g></g><g transform="translate(169.294 25.879)"><g clip-path="url(#am)"><path d="M0,0H18.823V19.025H0Z" fill="#fff"/></g></g><g transform="translate(216.474 26.018)"><g transform="translate(0)" clip-path="url(#an)"><path d="M0,0H3.61V4.527H0Z" transform="translate(0)" fill="#fff"/></g></g><g transform="translate(220.664 26.018)"><g clip-path="url(#ao)"><path d="M0,0H4.381V4.532H0Z" fill="#fff"/></g></g><g transform="translate(36.35 26.129)"><g clip-path="url(#ap)"><path d="M0,0H4.113V2.2H0Z" fill="#fff"/></g></g><g transform="translate(14.553 26.512)"><g clip-path="url(#aq)"><path d="M0,0H4.086V2.224H0Z" fill="#fff"/></g></g><g transform="translate(20.826 26.942)"><g clip-path="url(#ar)"><path d="M0,0H4.086V2.2H0Z" fill="#fff"/></g></g><g transform="translate(27.168 27.361)"><g clip-path="url(#as)"><path d="M0,0H4.1V2.178H0Z" fill="#fff"/></g></g><g transform="translate(30.667 27.744)"><g transform="translate(0 0)" clip-path="url(#at)"><path d="M0,0H6.973V3.815H0Z" transform="translate(0 0)" fill="#fff"/></g></g><g transform="translate(17.92 28.553)"><g clip-path="url(#au)"><path d="M0,0H4.1V2.2H0Z" fill="#fff"/></g></g><g transform="translate(24.298 28.936)"><g clip-path="url(#av)"><path d="M0,0H4.1V2.217H0Z" fill="#fff"/></g></g><g transform="translate(9.884 28.994)"><g transform="translate(0)" clip-path="url(#aw)"><path d="M0,0H35.045V13.684H0Z" transform="translate(0)" fill="#fff"/></g></g><g transform="translate(21.378 30.552)"><g clip-path="url(#ax)"><path d="M0,0H4.135V2.232H0Z" fill="#fff"/></g></g><g transform="translate(27.79 30.953)"><g clip-path="url(#ay)"><path d="M0,0H4.157V2.273H0Z" fill="#fff"/></g></g><g transform="translate(24.884 32.593)"><g clip-path="url(#az)"><path d="M0,0H4.155V2.3H0Z" fill="#fff"/></g></g><g transform="translate(9.885 36.341)"><g transform="translate(0)" clip-path="url(#ba)"><path d="M0,0H35.043V13.671H0Z" transform="translate(0)" fill="#fff"/></g></g><g transform="translate(6.154 1.756)"><g transform="translate(0 0)" clip-path="url(#bb)"><path d="M0,0H42.2V51.812H0Z" transform="translate(0 0)" fill="#066bbe"/></g></g></g></g></g></svg>